# This file uses centimeters as units for non-parametric coordinates.

mtllib boat.mtl
g default
v -1.173387 0.208876 6.336364
v 1.228448 0.208876 6.336364
v -1.173387 1.535338 7.737163
v 1.228448 1.535338 7.737163
v -1.173387 1.535338 -9.540448
v 1.228448 1.535338 -9.540448
v -1.173387 0.208876 -8.139651
v 1.228448 0.208876 -8.139651
v 3.089547 1.535338 -0.698325
v -3.034485 1.535338 -0.698325
v -2.381405 -0.267788 -0.698325
v 2.436467 -0.267788 -0.698325
v 2.856954 1.535338 -0.698325
v 1.137226 1.535338 7.737163
v 1.137226 0.208876 6.336364
v 2.253482 -0.267788 -0.698325
v 1.137226 0.208876 -8.139651
v 1.137226 1.535338 -9.540446
v -2.773215 1.535338 -0.698325
v -1.070917 1.535338 7.737163
v -1.070917 0.208876 6.336364
v -2.175860 -0.267788 -0.698325
v -1.070917 0.208876 -8.139651
v -1.070917 1.535338 -9.540446
v 1.463629 1.535338 7.585929
v 1.581684 1.535338 7.585929
v 1.250207 0.208876 6.209655
v 1.157332 0.208876 6.209655
v -1.090819 0.208876 6.209655
v -1.195146 0.208876 6.209655
v -1.526622 1.535338 7.585929
v -1.394012 1.535338 7.585929
v 1.583453 1.535338 -9.370238
v 1.465265 1.535338 -9.370238
v -1.395631 1.535338 -9.370238
v -1.528392 1.535338 -9.370238
v -1.196538 0.208875 -7.997041
v -1.092093 0.208876 -7.997041
v 1.158618 0.208876 -7.997041
v 1.251599 0.208875 -7.997041
v -1.090819 0.760450 6.209655
v 1.157332 0.760450 6.209655
v 2.253482 0.114386 -0.698325
v -2.175860 0.283786 -0.698325
v -1.092093 0.760450 -7.997041
v 1.158618 0.760450 -7.997041
v -1.284019 0.696722 5.146480
v 1.391778 0.696722 5.146480
v -1.408641 0.922162 5.146480
v 1.468972 0.922162 5.146480
v -1.408641 0.922162 4.921039
v 1.488441 0.922162 4.921039
v -1.284019 0.696722 4.921039
v 1.391778 0.696722 4.921039
v 2.780640 1.357138 -0.778413
v 2.780640 1.193787 -0.778413
v 2.780640 1.112112 -0.636946
v 2.780640 1.193787 -0.495480
v 2.780640 1.357138 -0.495480
v 2.780640 1.438813 -0.636946
v -2.711819 1.357137 -0.778413
v -2.711819 1.193787 -0.778413
v -2.711819 1.112112 -0.636946
v -2.711819 1.193787 -0.495480
v -2.711819 1.357137 -0.495480
v -2.711819 1.438813 -0.636946
v 2.780640 1.275462 -0.636946
v -2.711819 1.275463 -0.636946
vt 0.208894 0.173774
vt 0.208832 0.178332
vt 0.138890 0.172826
vt 0.138829 0.177385
vt 0.990756 0.480693
vt 0.990676 0.486593
vt 0.575816 0.544721
vt 0.575659 0.556345
vt 1.002322 0.184509
vt 1.002261 0.189068
vt 0.932319 0.183562
vt 0.932257 0.188121
vt 0.559567 0.243459
vt 0.215150 0.179505
vt 0.559691 0.234314
vt 0.215213 0.174864
vt 0.563742 0.563694
vt 0.562523 0.653803
vt 0.218200 0.582843
vt 0.148525 0.648202
vt 0.581792 0.661710
vt 0.926690 0.690202
vt 0.580573 0.751820
vt 0.994571 0.757422
vt 0.143386 0.469309
vt 0.143306 0.475215
vt 0.216723 0.680596
vt 0.147202 0.745956
vt 0.925178 0.184535
vt 0.925115 0.189181
vt 0.928166 0.592450
vt 0.995893 0.659667
vt 0.923705 0.352106
vt 0.922185 0.464455
vt 0.579219 0.293211
vt 0.576224 0.514563
vt 0.210387 0.063424
vt 0.140384 0.062477
vt 0.993189 1.006719
vt -0.003371 0.745737
vt 1.006719 0.006811
vt 0.003496 0.238225
vt 0.926700 0.072058
vt 0.562686 0.012962
vt 1.003816 0.074160
vt 0.933812 0.073212
vt 0.213740 0.342436
vt 0.212218 0.454913
vt 0.992688 0.337885
vt 0.579623 0.263359
vt 0.992778 0.331258
vt 0.579800 0.250302
vt 0.210456 0.058303
vt 0.140453 0.057356
vt 0.562825 0.002690
vt 0.216803 0.057301
vt 0.216733 0.062515
vt 0.926770 0.066838
vt 1.003885 0.069039
vt 0.933882 0.068092
vt 0.145411 0.319704
vt 0.145321 0.326338
vt 0.998534 0.464483
vt 0.998473 0.469042
vt 0.146148 0.195140
vt 0.148249 0.039805
vt 1.000027 0.354134
vt 1.000097 0.349013
vt 0.135102 0.452800
vt 0.135040 0.457359
vt 0.136595 0.342451
vt 0.136665 0.337330
vt 0.995619 0.051183
vt 0.993515 0.206694
vt 0.992558 0.906165
vt 0.578560 0.900563
vt 0.924304 0.866510
vt 0.579521 0.829553
vt 0.146253 0.816146
vt 0.215554 0.778352
vt 0.560250 0.821748
vt 0.561096 0.759202
vt 0.993621 0.827611
vt 0.925521 0.787959
vt 0.145190 0.894699
vt 0.214338 0.856904
vt 0.138018 0.860370
vt 0.141723 0.871688
vt 0.004297 0.858560
vt -0.002083 0.869742
vt -0.003135 0.875535
vt 0.140671 0.877481
vt -0.003287 0.886801
vt 0.141492 0.888760
vt -0.003366 0.892607
vt 0.141413 0.894566
vt 0.002710 0.903958
vt 0.136430 0.905767
vt 0.008386 0.841540
vt 0.142106 0.843349
vt 0.008234 0.852806
vt 0.141954 0.854615
vt 0.142877 0.786386
vt 0.142725 0.797652
vt 0.131611 0.786233
vt 0.131459 0.797499
vt 0.143108 0.769314
vt 0.142956 0.780580
vt 0.131842 0.769161
vt 0.131690 0.780427
vt 0.992471 0.912620
vt 0.992360 0.920783
vt 0.717990 0.908906
vt 0.717880 0.917069
vt 0.992271 0.927375
vt 0.992175 0.934445
vt 0.717790 0.923661
vt 0.717695 0.930731
vt 0.992080 0.941515
vt 0.717599 0.937801
vt 0.713800 0.939336
vt 0.713690 0.947499
vt 0.439320 0.935622
vt 0.439209 0.943785
vt 0.714070 0.919390
vt 0.713974 0.926460
vt 0.439590 0.915676
vt 0.439494 0.922746
vt 0.713879 0.933530
vt 0.439398 0.929816
vt 0.138103 0.837488
vt 0.129940 0.837377
vt 0.134117 0.830363
vt 0.142281 0.830473
vt 0.138295 0.823349
vt 0.130131 0.823238
vt 0.125954 0.830253
vt 0.130401 0.803293
vt 0.138565 0.803403
vt 0.134387 0.810417
vt 0.142550 0.810528
vt 0.138373 0.817542
vt 0.130210 0.817432
vt 0.126224 0.810307
vn 0.000014 -0.726111 0.687577
vn 0.000033 -0.726112 0.687576
vn 0.000022 -0.726112 0.687577
vn 0.000022 -0.726112 0.687577
vn 0.000033 -0.726112 0.687576
vn 0.000023 -0.726112 0.687576
vn -0.000001 1.000000 -0.000003
vn -0.000001 1.000000 -0.000002
vn 0.000000 1.000000 0.000000
vn 0.000000 1.000000 0.000000
vn -0.000001 1.000000 -0.000002
vn 0.000002 1.000000 0.000000
vn -0.000014 -0.726111 -0.687578
vn -0.000030 -0.726110 -0.687579
vn -0.000020 -0.726110 -0.687579
vn -0.000020 -0.726110 -0.687579
vn -0.000030 -0.726110 -0.687579
vn -0.000016 -0.726107 -0.687581
vn -0.000001 -0.999998 0.001838
vn -0.000002 -0.998945 0.045916
vn -0.000001 -0.999998 0.001839
vn -0.000001 -0.999998 0.001839
vn -0.000002 -0.998945 0.045916
vn -0.000001 -0.999564 0.029519
vn 0.940217 -0.340541 0.004882
vn 0.929148 -0.369685 0.004178
vn 0.912395 -0.373475 0.167489
vn 0.912395 -0.373475 0.167489
vn 0.929148 -0.369685 0.004178
vn 0.762537 -0.539594 0.356898
vn -0.940217 -0.340541 0.004882
vn -0.912396 -0.373474 0.167486
vn -0.929148 -0.369685 0.004178
vn -0.929148 -0.369685 0.004178
vn -0.912396 -0.373474 0.167486
vn -0.762539 -0.539593 0.356895
vn -0.000001 1.000000 0.000002
vn 0.000000 1.000000 0.000000
vn -0.000001 1.000000 0.000001
vn -0.000001 1.000000 0.000001
vn 0.000000 1.000000 0.000000
vn 0.000002 1.000000 0.000000
vn -0.940217 -0.340541 0.004882
vn -0.929148 -0.369685 0.004178
vn -0.915591 -0.369179 -0.159372
vn -0.915591 -0.369179 -0.159372
vn -0.929148 -0.369685 0.004178
vn -0.773464 -0.529967 -0.347690
vn -0.000002 -0.999468 -0.032602
vn -0.000003 -0.999055 -0.043466
vn -0.000001 -0.999998 0.001839
vn -0.000001 -0.999998 0.001839
vn -0.000003 -0.999055 -0.043466
vn -0.000001 -0.999998 0.001838
vn 0.940217 -0.340541 0.004882
vn 0.915592 -0.369177 -0.159371
vn 0.929148 -0.369685 0.004178
vn 0.929148 -0.369685 0.004178
vn 0.915592 -0.369177 -0.159371
vn 0.773467 -0.529963 -0.347689
vn -0.000000 0.997628 -0.068838
vn 0.019040 0.996774 -0.077966
vn 0.019099 0.999815 -0.002079
vn 0.019099 0.999815 -0.002079
vn 0.019040 0.996774 -0.077966
vn 0.038217 0.999267 -0.002319
vn -0.000001 -0.726111 0.687578
vn 0.000014 -0.726111 0.687577
vn -0.000001 -0.726111 0.687577
vn -0.000001 -0.726111 0.687577
vn 0.000014 -0.726111 0.687577
vn 0.000022 -0.726112 0.687577
vn -0.000001 -0.999998 0.001839
vn -0.000001 -0.999564 0.029519
vn 0.000001 -0.999998 0.001839
vn 0.000001 -0.999998 0.001839
vn -0.000001 -0.999564 0.029519
vn 0.000002 -0.999620 0.027550
vn 0.000002 -0.999764 -0.021733
vn -0.000002 -0.999468 -0.032602
vn 0.000001 -0.999998 0.001839
vn 0.000001 -0.999998 0.001839
vn -0.000002 -0.999468 -0.032602
vn -0.000001 -0.999998 0.001839
vn 0.000005 -0.726110 -0.687579
vn -0.000014 -0.726111 -0.687578
vn -0.000001 -0.726111 -0.687578
vn -0.000001 -0.726111 -0.687578
vn -0.000014 -0.726111 -0.687578
vn -0.000020 -0.726110 -0.687579
vn 0.000000 0.997874 0.065169
vn 0.019099 0.999815 -0.002079
vn 0.019048 0.997090 0.073820
vn 0.019048 0.997090 0.073820
vn 0.019099 0.999815 -0.002079
vn 0.038217 0.999267 -0.002319
vn 0.000002 1.000000 -0.000004
vn 0.000002 1.000000 0.000000
vn 0.000003 1.000000 -0.000003
vn 0.000003 1.000000 -0.000003
vn 0.000002 1.000000 0.000000
vn 0.000001 1.000000 0.000000
vn 0.000000 -0.726110 0.687579
vn -0.000001 -0.726111 0.687578
vn -0.000001 -0.726111 0.687577
vn -0.000001 -0.726111 0.687577
vn -0.000001 -0.726111 0.687578
vn -0.000001 -0.726111 0.687577
vn 0.000002 -0.999998 0.001839
vn 0.000001 -0.999998 0.001839
vn 0.000002 -0.998945 0.045916
vn 0.000002 -0.998945 0.045916
vn 0.000001 -0.999998 0.001839
vn 0.000002 -0.999620 0.027550
vn 0.000002 -0.999764 -0.021733
vn 0.000001 -0.999998 0.001839
vn 0.000004 -0.999055 -0.043466
vn 0.000004 -0.999055 -0.043466
vn 0.000001 -0.999998 0.001839
vn 0.000002 -0.999998 0.001839
vn 0.000019 -0.726108 -0.687581
vn 0.000005 -0.726110 -0.687579
vn 0.000007 -0.726110 -0.687579
vn 0.000007 -0.726110 -0.687579
vn 0.000005 -0.726110 -0.687579
vn -0.000001 -0.726111 -0.687578
vn 0.000001 1.000000 0.000000
vn 0.000002 1.000000 0.000000
vn 0.000002 1.000000 0.000003
vn 0.000002 1.000000 0.000003
vn 0.000002 1.000000 0.000000
vn 0.000001 1.000000 0.000004
vn -0.000000 1.000000 -0.000003
vn -0.000001 1.000000 -0.000005
vn -0.000001 1.000000 -0.000003
vn -0.000001 1.000000 -0.000003
vn -0.000001 1.000000 -0.000005
vn -0.000001 1.000000 -0.000002
vn 0.912395 -0.373475 0.167489
vn 0.762537 -0.539594 0.356898
vn 0.659319 -0.601070 0.451678
vn 0.659319 -0.601070 0.451678
vn 0.762537 -0.539594 0.356898
vn 0.282389 -0.696558 0.659594
vn -0.000002 -0.998945 0.045916
vn -0.000002 -1.000000 -0.000001
vn -0.000001 -0.999564 0.029519
vn -0.000001 -0.999564 0.029519
vn -0.000002 -1.000000 -0.000001
vn -0.000002 -1.000000 0.000000
vn 0.000002 -0.999620 0.027550
vn -0.000001 -0.999564 0.029519
vn 0.000001 -1.000000 0.000000
vn 0.000001 -1.000000 0.000000
vn -0.000001 -0.999564 0.029519
vn -0.000002 -1.000000 0.000000
vn 0.000002 -0.998945 0.045916
vn 0.000002 -0.999620 0.027550
vn 0.000003 -1.000000 -0.000001
vn 0.000003 -1.000000 -0.000001
vn 0.000002 -0.999620 0.027550
vn 0.000001 -1.000000 0.000000
vn -0.912396 -0.373474 0.167486
vn -0.659323 -0.601069 0.451674
vn -0.762539 -0.539593 0.356895
vn -0.762539 -0.539593 0.356895
vn -0.659323 -0.601069 0.451674
vn -0.282389 -0.696558 0.659594
vn 0.000001 1.000000 -0.000004
vn 0.000002 1.000000 -0.000004
vn 0.000002 1.000000 -0.000007
vn 0.000002 1.000000 -0.000007
vn 0.000002 1.000000 -0.000004
vn 0.000003 1.000000 -0.000003
vn 0.000001 1.000000 -0.000004
vn -0.000000 1.000000 -0.000003
vn 0.000002 1.000000 -0.000004
vn 0.000002 1.000000 -0.000004
vn -0.000000 1.000000 -0.000003
vn -0.000001 1.000000 -0.000003
vn 0.000000 1.000000 0.000002
vn -0.000001 1.000000 0.000002
vn -0.000002 1.000000 0.000002
vn -0.000002 1.000000 0.000002
vn -0.000001 1.000000 0.000002
vn -0.000001 1.000000 0.000001
vn 0.000001 1.000000 0.000004
vn 0.000001 1.000000 0.000004
vn 0.000000 1.000000 0.000002
vn 0.000000 1.000000 0.000002
vn 0.000001 1.000000 0.000004
vn -0.000001 1.000000 0.000002
vn 0.000002 1.000000 0.000003
vn 0.000001 1.000000 0.000004
vn 0.000002 1.000000 0.000007
vn 0.000002 1.000000 0.000007
vn 0.000001 1.000000 0.000004
vn 0.000001 1.000000 0.000004
vn -0.915591 -0.369179 -0.159372
vn -0.773464 -0.529967 -0.347690
vn -0.675515 -0.590479 -0.441604
vn -0.675515 -0.590479 -0.441604
vn -0.773464 -0.529967 -0.347690
vn -0.313090 -0.689604 -0.653009
vn 0.000001 -1.000000 0.000001
vn 0.000002 -0.999764 -0.021733
vn 0.000004 -1.000000 0.000001
vn 0.000004 -1.000000 0.000001
vn 0.000002 -0.999764 -0.021733
vn 0.000004 -0.999055 -0.043466
vn 0.000001 -1.000000 0.000001
vn -0.000001 -1.000000 0.000000
vn 0.000002 -0.999764 -0.021733
vn 0.000002 -0.999764 -0.021733
vn -0.000001 -1.000000 0.000000
vn -0.000002 -0.999468 -0.032602
vn -0.000001 -1.000000 0.000000
vn -0.000004 -1.000000 0.000000
vn -0.000002 -0.999468 -0.032602
vn -0.000002 -0.999468 -0.032602
vn -0.000004 -1.000000 0.000000
vn -0.000003 -0.999055 -0.043466
vn 0.915592 -0.369177 -0.159371
vn 0.675520 -0.590474 -0.441603
vn 0.773467 -0.529963 -0.347689
vn 0.773467 -0.529963 -0.347689
vn 0.675520 -0.590474 -0.441603
vn 0.313097 -0.689602 -0.653008
vn 0.000000 0.871377 -0.490614
vn 0.000000 0.871377 -0.490614
vn 0.000000 0.871377 -0.490614
vn 0.000000 0.871377 -0.490614
vn 0.000000 0.871377 -0.490614
vn 0.000000 0.871377 -0.490614
vn -0.813809 0.564784 -0.136874
vn -0.876560 0.481279 -0.003768
vn -0.864261 0.477219 -0.159110
vn -0.864261 0.477219 -0.159110
vn -0.876560 0.481279 -0.003768
vn -0.920421 0.390899 -0.004817
vn 0.816595 0.560973 -0.135951
vn 0.855724 0.494309 -0.152958
vn 0.867091 0.498137 -0.003617
vn 0.867091 0.498137 -0.003617
vn 0.855724 0.494309 -0.152958
vn 0.902465 0.430739 -0.004542
vn 0.822419 0.553678 0.130646
vn 0.867091 0.498137 -0.003617
vn 0.859001 0.490789 0.145749
vn 0.859001 0.490789 0.145749
vn 0.867091 0.498137 -0.003617
vn 0.902465 0.430739 -0.004542
vn -0.819694 0.557493 0.131546
vn -0.867569 0.473651 0.151588
vn -0.876560 0.481279 -0.003768
vn -0.876560 0.481279 -0.003768
vn -0.867569 0.473651 0.151588
vn -0.920421 0.390899 -0.004817
vn 0.000000 0.870907 0.491448
vn 0.000000 0.870907 0.491448
vn 0.000000 0.870907 0.491448
vn 0.000000 0.870907 0.491448
vn 0.000000 0.870907 0.491448
vn 0.000000 0.870907 0.491448
vn 0.000001 0.000000 1.000000
vn 0.000001 0.000000 1.000000
vn 0.000001 0.000000 1.000000
vn 0.000001 0.000000 1.000000
vn 0.000001 0.000000 1.000000
vn 0.000000 0.000000 1.000000
vn 0.000000 1.000000 0.000000
vn -0.000000 1.000000 -0.000000
vn -0.000000 1.000000 -0.000000
vn -0.000000 1.000000 -0.000000
vn -0.000000 1.000000 -0.000000
vn -0.000000 1.000000 -0.000000
vn 0.000000 0.000000 -1.000000
vn -0.000000 0.000000 -1.000000
vn -0.000000 0.000000 -1.000000
vn -0.000000 0.000000 -1.000000
vn -0.000000 0.000000 -1.000000
vn -0.000001 0.000000 -1.000000
vn 0.000000 -1.000000 0.000000
vn 0.000000 -1.000000 0.000000
vn 0.000000 -1.000000 0.000000
vn 0.000000 -1.000000 0.000000
vn 0.000000 -1.000000 0.000000
vn 0.000000 -1.000000 0.000000
vn 0.946073 -0.323954 0.000000
vn 0.932522 -0.358934 0.039621
vn 0.932522 -0.358934 0.039621
vn 0.932522 -0.358934 0.039621
vn 0.932522 -0.358934 0.039621
vn 0.916194 -0.392845 0.079123
vn -0.875179 -0.483800 0.000000
vn -0.875179 -0.483799 0.000000
vn -0.875179 -0.483799 0.000000
vn -0.875179 -0.483799 0.000000
vn -0.875179 -0.483799 0.000000
vn -0.875180 -0.483798 0.000000
vn 0.000000 0.000000 -1.000000
vn 0.000000 0.000000 -1.000000
vn 0.000000 0.000000 -1.000000
vn 0.000000 0.000000 -1.000000
vn 0.000000 0.000000 -1.000000
vn 0.000000 0.000000 -1.000000
vn 0.000000 -0.866026 -0.499998
vn 0.000000 -0.866026 -0.499998
vn 0.000000 -0.866026 -0.499998
vn 0.000000 -0.866026 -0.499998
vn 0.000000 -0.866026 -0.499998
vn -0.000001 -0.866027 -0.499998
vn 0.000000 -0.866026 0.499998
vn 0.000000 -0.866026 0.499998
vn 0.000000 -0.866026 0.499998
vn 0.000000 -0.866026 0.499998
vn 0.000000 -0.866026 0.499998
vn 0.000000 -0.866027 0.499998
vn 0.000000 0.000000 1.000000
vn 0.000000 0.000000 1.000000
vn 0.000000 0.000000 1.000000
vn 0.000000 0.000000 1.000000
vn 0.000000 0.000000 1.000000
vn 0.000000 0.000000 1.000000
vn -0.000001 0.866027 0.499998
vn 0.000000 0.866026 0.499998
vn 0.000000 0.866026 0.499998
vn 0.000000 0.866026 0.499998
vn 0.000000 0.866026 0.499998
vn 0.000001 0.866026 0.499999
vn 0.000000 0.866027 -0.499998
vn 0.000000 0.866026 -0.499998
vn 0.000000 0.866026 -0.499998
vn 0.000000 0.866026 -0.499998
vn 0.000000 0.866026 -0.499998
vn 0.000000 0.866026 -0.499999
vn 1.000000 0.000000 0.000000
vn 1.000000 0.000000 0.000000
vn 1.000000 0.000000 0.000000
vn 1.000000 0.000000 0.000000
vn 1.000000 0.000000 0.000000
vn 1.000000 0.000000 0.000000
vn 1.000000 0.000000 0.000000
vn 1.000000 0.000000 0.000000
vn 1.000000 0.000000 0.000000
vn 1.000000 0.000000 0.000000
vn 1.000000 0.000000 0.000000
vn 1.000000 0.000000 0.000000
vn 1.000000 0.000000 0.000000
vn 1.000000 0.000000 0.000000
vn 1.000000 0.000000 0.000000
vn 1.000000 0.000000 0.000000
vn 1.000000 0.000000 0.000000
vn 1.000000 0.000000 0.000000
vn -1.000000 0.000000 0.000000
vn -1.000000 0.000000 0.000000
vn -1.000000 0.000000 0.000000
vn -1.000000 0.000000 0.000000
vn -1.000000 0.000000 0.000000
vn -1.000000 0.000000 0.000000
vn -1.000000 0.000000 0.000000
vn -1.000000 0.000000 0.000000
vn -1.000000 0.000000 0.000000
vn -1.000000 0.000000 0.000000
vn -1.000000 0.000000 0.000000
vn -1.000000 0.000000 0.000000
vn -1.000000 0.000000 0.000000
vn -1.000000 0.000000 0.000000
vn -1.000000 0.000000 0.000000
vn -1.000000 0.000000 0.000000
vn -1.000000 0.000000 0.000000
vn -1.000000 0.000000 0.000000
s off
g ship_1_:transform1
usemtl lambert2SG
f 15/1/1 2/2/2 14/3/3
f 14/3/4 2/2/5 4/4/6
f 25/5/7 26/6/8 13/7/9
f 13/7/10 26/6/11 9/8/12
f 18/9/13 6/10/14 17/11/15
f 17/11/16 6/10/17 8/12/18
f 12/13/19 27/14/20 16/15/21
f 16/15/22 27/14/23 28/16/24
f 12/17/25 9/18/26 27/19/27
f 27/19/28 9/18/29 26/20/30
f 11/21/31 30/22/32 10/23/33
f 10/23/34 30/22/35 31/24/36
f 34/25/37 13/7/38 33/26/39
f 33/26/40 13/7/41 9/8/42
f 11/21/43 10/23/44 37/27/45
f 37/27/46 10/23/47 36/28/48
f 39/29/49 40/30/50 16/15/51
f 16/15/52 40/30/53 12/13/54
f 12/17/55 40/31/56 9/18/57
f 9/18/58 40/31/59 33/32/60
f 41/33/61 42/34/62 44/35/63
f 44/35/64 42/34/65 43/36/66
f 21/37/67 15/1/68 20/38/69
f 20/38/70 15/1/71 14/3/72
f 16/39/73 28/40/74 22/41/75
f 22/41/76 28/40/77 29/42/78
f 38/43/79 39/29/80 22/44/81
f 22/44/82 39/29/83 16/15/84
f 24/45/85 18/9/86 23/46/87
f 23/46/88 18/9/89 17/11/90
f 45/47/91 44/35/92 46/48/93
f 46/48/94 44/35/95 43/36/96
f 32/49/97 19/50/98 31/51/99
f 31/51/100 19/50/101 10/52/102
f 1/53/103 21/37/104 3/54/105
f 3/54/106 21/37/107 20/38/108
f 11/55/109 22/44/110 30/56/111
f 30/56/112 22/44/113 29/57/114
f 38/43/115 22/44/116 37/58/117
f 37/58/118 22/44/119 11/55/120
f 5/59/121 24/45/122 7/60/123
f 7/60/124 24/45/125 23/46/126
f 10/52/127 19/50/128 36/61/129
f 36/61/130 19/50/131 35/62/132
f 14/63/133 4/64/134 25/5/135
f 25/5/136 4/64/137 26/6/138
f 27/14/139 26/65/140 2/2/141
f 2/2/142 26/65/143 4/4/144
f 27/14/145 2/2/146 28/16/147
f 28/16/148 2/2/149 15/1/150
f 29/57/151 28/16/152 21/37/153
f 21/37/154 28/16/155 15/1/156
f 30/56/157 29/57/158 1/53/159
f 1/53/160 29/57/161 21/37/162
f 30/56/163 1/53/164 31/66/165
f 31/66/166 1/53/167 3/54/168
f 20/67/169 32/49/170 3/68/171
f 3/68/172 32/49/173 31/51/174
f 20/67/175 14/63/176 32/49/177
f 32/49/178 14/63/179 25/5/180
f 18/69/181 34/25/182 6/70/183
f 6/70/184 34/25/185 33/26/186
f 24/71/187 35/62/188 18/69/189
f 18/69/190 35/62/191 34/25/192
f 36/61/193 35/62/194 5/72/195
f 5/72/196 35/62/197 24/71/198
f 37/58/199 36/73/200 7/60/201
f 7/60/202 36/73/203 5/59/204
f 23/46/205 38/43/206 7/60/207
f 7/60/208 38/43/209 37/58/210
f 23/46/211 17/11/212 38/43/213
f 38/43/214 17/11/215 39/29/216
f 17/11/217 8/12/218 39/29/219
f 39/29/220 8/12/221 40/30/222
f 40/30/223 8/12/224 33/74/225
f 33/74/226 8/12/227 6/10/228
f 25/5/229 42/34/230 32/49/231
f 32/49/232 42/34/233 41/33/234
f 25/75/235 13/76/236 42/77/237
f 42/77/238 13/76/239 43/78/240
f 32/79/241 41/80/242 19/81/243
f 19/81/244 41/80/245 44/82/246
f 35/83/247 19/81/248 45/84/249
f 45/84/250 19/81/251 44/82/252
f 34/85/253 46/86/254 13/76/255
f 13/76/256 46/86/257 43/78/258
f 34/25/259 35/62/260 46/48/261
f 46/48/262 35/62/263 45/47/264
f 48/87/265 50/88/266 47/89/267
f 47/89/268 50/88/269 49/90/270
f 49/91/271 50/92/272 51/93/273
f 51/93/274 50/92/275 52/94/276
f 51/95/277 52/96/278 53/97/279
f 53/97/280 52/96/281 54/98/282
f 53/99/283 54/100/284 47/101/285
f 47/101/286 54/100/287 48/102/288
f 48/103/289 54/104/290 50/105/291
f 50/105/292 54/104/293 52/106/294
f 53/107/295 47/108/296 51/109/297
f 51/109/298 47/108/299 49/110/300
f 55/111/301 56/112/302 61/113/303
f 61/113/304 56/112/305 62/114/306
f 56/115/307 57/116/308 62/117/309
f 62/117/310 57/116/311 63/118/312
f 57/116/313 58/119/314 63/118/315
f 63/118/316 58/119/317 64/120/318
f 58/121/319 59/122/320 64/123/321
f 64/123/322 59/122/323 65/124/324
f 59/125/325 60/126/326 65/127/327
f 65/127/328 60/126/329 66/128/330
f 60/126/331 55/129/332 66/128/333
f 66/128/334 55/129/335 61/130/336
f 56/131/337 55/132/338 67/133/339
f 57/134/340 56/131/341 67/133/342
f 58/135/343 57/134/344 67/133/345
f 59/136/346 58/135/347 67/133/348
f 60/137/349 59/136/350 67/133/351
f 55/132/352 60/137/353 67/133/354
f 61/138/355 62/139/356 68/140/357
f 62/139/358 63/141/359 68/140/360
f 63/141/361 64/142/362 68/140/363
f 64/142/364 65/143/365 68/140/366
f 65/143/367 66/144/368 68/140/369
f 66/144/370 61/138/371 68/140/372
