# This file uses centimeters as units for non-parametric coordinates.

mtllib box5.mtl
g default
v 78.291603 -0.000000 81.810081
v 82.029552 -0.000000 81.810081
v 78.291603 -0.000000 78.072132
v 82.029552 -0.000000 78.072132
v 78.291603 3.737949 81.810081
v 82.029552 3.737949 81.810081
v 78.291603 3.737949 78.072132
v 82.029552 3.737949 78.072132
v 78.366361 3.737949 81.735322
v 81.954792 3.737949 81.735322
v 81.954792 3.737949 78.146891
v 78.366361 3.737949 78.146891
v 78.366361 0.082609 81.735322
v 81.954792 0.082609 81.735322
v 81.954792 0.082609 78.146891
v 78.366361 0.082609 78.146891
v 78.291603 5.089915 83.484719
v 82.029552 5.089915 83.484719
v 81.954793 5.089915 83.416336
v 78.366362 5.089915 83.416336
v 83.631532 5.089915 81.810081
v 83.631532 5.089915 78.072132
v 83.565716 5.089915 78.146891
v 83.565716 5.089915 81.735322
v 82.029552 5.089915 76.367401
v 78.291603 5.089915 76.367401
v 78.366362 5.089915 76.435783
v 81.954793 5.089915 76.435783
v 76.773274 5.089915 78.072132
v 76.773274 5.089915 81.810081
v 76.839091 5.089915 81.735322
v 76.839091 5.089915 78.146891
vt 0.340707 0.669329
vt 0.009694 0.669392
vt 0.009694 0.337511
vt 0.340838 0.337390
vt 0.669635 0.340401
vt 0.669635 0.669329
vt 0.669766 0.012118
vt 0.340838 0.012118
vt 0.917876 0.984347
vt 0.917876 0.718880
vt 0.923407 0.713350
vt 0.923406 0.989878
vt 0.887018 0.718880
vt 0.887017 0.984347
vt 0.881487 0.989878
vt 0.881487 0.713350
vt 0.940114 0.722644
vt 0.940113 0.988111
vt 0.934582 0.993641
vt 0.934583 0.717113
vt 0.737813 0.982552
vt 0.737814 0.717085
vt 0.743345 0.711555
vt 0.743344 0.988083
vt 0.009694 0.992729
vt 0.009694 0.676958
vt 0.331353 0.676958
vt 0.331353 0.992729
vt 0.846579 0.340119
vt 0.846579 0.669047
vt 0.962079 0.982987
vt 0.955354 0.986982
vt 0.952608 0.776852
vt 0.959332 0.772858
vt 0.508297 0.676959
vt 0.508297 0.992729
vt 0.796448 0.706860
vt 0.803316 0.710600
vt 0.808420 0.920685
vt 0.801551 0.916945
vt 0.846710 0.012118
vt 0.850628 0.926727
vt 0.843904 0.930721
vt 0.842963 0.717344
vt 0.849687 0.713349
vt 0.816332 0.711555
vt 0.823200 0.715296
vt 0.830229 0.928560
vt 0.823361 0.924819
vt 0.765588 0.918577
vt 0.758864 0.922572
vt 0.757004 0.710854
vt 0.763729 0.706859
vt 0.899552 0.734482
vt 0.906421 0.738222
vt 0.912471 0.949862
vt 0.905602 0.946121
vt 0.868693 0.943441
vt 0.861969 0.947435
vt 0.858562 0.738476
vt 0.865287 0.734481
vt 0.774203 0.711555
vt 0.781072 0.715296
vt 0.785472 0.924237
vt 0.778604 0.920496
vt 0.340707 0.669329
vt 0.009694 0.669392
vt 0.009694 0.337511
vt 0.340838 0.337390
vt 0.340707 0.669329
vt 0.340838 0.337390
vt 0.340838 0.337390
vt 0.669635 0.340401
vt 0.669635 0.669329
vt 0.669766 0.012118
vt 0.669635 0.340401
vt 0.340838 0.012118
vt 0.009694 0.992729
vt 0.009694 0.676958
vt 0.331353 0.676958
vt 0.331353 0.992729
vt 0.009694 0.992729
vt 0.009694 0.676958
vt 0.331353 0.676958
vt 0.331353 0.992729
vt 0.009694 0.992729
vt 0.009694 0.676958
vt 0.331353 0.676958
vt 0.331353 0.992729
vt 0.846579 0.340119
vt 0.508297 0.676959
vt 0.508297 0.992729
vt 0.331353 0.992729
vt 0.331353 0.676958
vt 0.846579 0.340119
vt 0.846579 0.669047
vt 0.669635 0.669329
vt 0.669635 0.340401
vt 0.508297 0.676959
vt 0.508297 0.992729
vt 0.331353 0.992729
vt 0.331353 0.676958
vt 0.846710 0.012118
vt 0.846579 0.340119
vt 0.669635 0.340401
vt 0.669766 0.012118
vt 0.508297 0.676959
vt 0.508297 0.992729
vt 0.331353 0.992729
vt 0.331353 0.676958
vn 0.000000 -1.000000 0.000000
vn 0.000000 -1.000000 0.000000
vn 0.000000 -1.000000 0.000000
vn 0.000000 -1.000000 0.000000
vn 0.000000 1.000000 0.000000
vn 0.000000 1.000000 0.000000
vn 0.000000 1.000000 0.000000
vn 0.000000 1.000000 0.000000
vn 0.000000 0.000000 1.000000
vn 0.000000 0.000000 1.000000
vn 0.000000 0.000000 1.000000
vn 0.000000 0.000000 1.000000
vn 1.000000 0.000000 0.000000
vn 1.000000 0.000000 0.000000
vn 1.000000 0.000000 0.000000
vn 1.000000 0.000000 0.000000
vn 0.000000 0.000000 -1.000000
vn 0.000000 0.000000 -1.000000
vn 0.000000 0.000000 -1.000000
vn 0.000000 0.000000 -1.000000
vn -1.000000 0.000000 0.000000
vn -1.000000 0.000000 0.000000
vn -1.000000 0.000000 0.000000
vn -1.000000 0.000000 0.000000
vn 0.000000 1.000000 0.000007
vn 0.000000 1.000000 -0.000017
vn 0.000000 1.000000 0.000006
vn 0.000000 1.000000 -0.000017
vn 0.000000 1.000000 0.000000
vn 0.000000 1.000000 0.000000
vn 0.000000 1.000000 0.000000
vn 0.000000 1.000000 0.000000
vn 0.000000 1.000000 -0.000004
vn 0.000000 1.000000 0.000017
vn 0.000000 1.000000 -0.000004
vn 0.000000 1.000000 0.000017
vn 0.000000 1.000000 0.000000
vn 0.000000 1.000000 0.000000
vn 0.000000 1.000000 0.000000
vn 0.000000 1.000000 0.000000
vn 0.000000 0.000000 -1.000000
vn 0.000000 0.000000 -1.000000
vn 0.000000 0.000000 -1.000000
vn 0.000000 0.000000 -1.000000
vn -1.000000 0.000000 0.000000
vn -1.000000 0.000000 0.000000
vn -1.000000 0.000000 0.000000
vn -1.000000 0.000000 0.000000
vn 0.000000 0.000000 1.000000
vn 0.000000 0.000000 1.000000
vn 0.000000 0.000000 1.000000
vn 0.000000 0.000000 1.000000
vn 1.000000 0.000000 0.000000
vn 1.000000 0.000000 0.000000
vn 1.000000 0.000000 0.000000
vn 1.000000 0.000000 0.000000
vn 0.000000 -0.778083 0.628161
vn 0.000000 -0.778083 0.628161
vn 0.000000 -0.778083 0.628161
vn 0.000000 -0.778084 0.628161
vn 0.498203 0.674645 -0.544654
vn 0.530441 0.660567 -0.531304
vn 0.498876 0.674364 -0.544386
vn 0.531044 0.660291 -0.531044
vn 0.000000 0.779248 -0.626715
vn 0.000000 0.779248 -0.626715
vn 0.000000 0.779248 -0.626715
vn 0.000000 0.779248 -0.626715
vn -0.498201 0.674646 -0.544654
vn -0.498874 0.674365 -0.544386
vn -0.530443 0.660566 -0.531304
vn -0.531046 0.660290 -0.531043
vn 0.644953 -0.764222 0.000000
vn 0.644953 -0.764222 0.000000
vn 0.644953 -0.764222 0.000000
vn 0.644953 -0.764222 0.000000
vn -0.560849 0.664565 -0.493762
vn -0.541152 0.644734 -0.539882
vn -0.560437 0.664153 -0.494784
vn -0.540756 0.644333 -0.540756
vn -0.642855 0.765988 0.000000
vn -0.642855 0.765988 0.000000
vn -0.642855 0.765988 0.000000
vn -0.642855 0.765988 0.000000
vn -0.560848 0.664567 0.493761
vn -0.560436 0.664155 0.494783
vn -0.541153 0.644735 0.539880
vn -0.540757 0.644334 0.540754
vn 0.000000 -0.783511 -0.621377
vn 0.000000 -0.783511 -0.621377
vn 0.000000 -0.783511 -0.621377
vn 0.000000 -0.783511 -0.621377
vn -0.494136 0.681172 0.540217
vn -0.526318 0.667151 0.527161
vn -0.494797 0.680897 0.539959
vn -0.526911 0.666881 0.526911
vn 0.000000 0.784639 0.619953
vn 0.000000 0.784639 0.619953
vn 0.000000 0.784639 0.619953
vn 0.000000 0.784639 0.619953
vn 0.494137 0.681172 0.540215
vn 0.494798 0.680897 0.539958
vn 0.526316 0.667153 0.527162
vn 0.526909 0.666882 0.526911
vn -0.665007 -0.746837 0.000000
vn -0.665007 -0.746837 0.000000
vn -0.665007 -0.746837 0.000000
vn -0.665007 -0.746837 0.000000
vn 0.573885 0.644505 0.505242
vn 0.552923 0.624543 0.551564
vn 0.573424 0.644069 0.506320
vn 0.552484 0.624121 0.552481
vn 0.662827 0.748773 0.000000
vn 0.662827 0.748773 0.000000
vn 0.662827 0.748773 0.000000
vn 0.662827 0.748773 0.000000
vn 0.573885 0.644503 -0.505245
vn 0.573424 0.644067 -0.506323
vn 0.552921 0.624541 -0.551567
vn 0.552482 0.624119 -0.552484
s 1
g pasted__pasted__carton_null_ pasted__group15 group17
usemtl pasted__pasted__lambert5SG
f 4/1/1 2/2/2 3/4/3
f 3/4/3 2/2/2 1/3/4
s 2
f 15/66/5 16/67/6 14/69/7
f 14/69/7 16/67/6 13/68/8
s 3
f 6/5/9 5/6/10 2/71/11
f 2/71/11 5/6/10 1/70/12
s 4
f 8/7/13 6/5/14 4/8/15
f 4/8/15 6/5/14 2/72/16
s 5
f 7/73/17 8/74/18 3/4/19
f 3/4/19 8/74/18 4/1/20
s 6
f 5/75/21 7/76/22 1/77/23
f 1/77/23 7/76/22 3/4/24
s 7
f 19/9/25 20/10/26 18/12/27
f 18/12/27 20/10/26 17/11/28
s 8
f 23/13/29 24/14/30 22/16/31
f 22/16/31 24/14/30 21/15/32
s 9
f 27/17/33 28/18/34 26/20/35
f 26/20/35 28/18/34 25/19/36
s 10
f 31/21/37 32/22/38 30/24/39
f 30/24/39 32/22/38 29/23/40
s 11
f 14/25/41 13/26/42 10/28/43
f 10/28/43 13/26/42 9/27/44
s 12
f 15/78/45 14/79/46 11/81/47
f 11/81/47 14/79/46 10/80/48
s 13
f 16/82/49 15/83/50 12/85/51
f 12/85/51 15/83/50 11/84/52
s 14
f 13/86/53 16/87/54 9/89/55
f 9/89/55 16/87/54 12/88/56
s 15
f 18/29/57 17/30/58 6/5/59
f 6/5/59 17/30/58 5/6/60
s 16
f 18/32/61 6/33/62 19/31/63
f 19/31/63 6/33/62 10/34/64
s 17
f 20/35/65 19/36/66 9/27/67
f 9/27/67 19/36/66 10/28/68
s 18
f 17/37/69 20/38/70 5/40/71
f 5/40/71 20/38/70 9/39/72
s 19
f 22/41/73 21/90/74 8/7/75
f 8/7/75 21/90/74 6/5/76
s 20
f 22/43/77 8/44/78 23/42/79
f 23/42/79 8/44/78 11/45/80
s 21
f 24/91/81 23/92/82 10/94/83
f 10/94/83 23/92/82 11/93/84
s 22
f 21/46/85 24/47/86 6/49/87
f 6/49/87 24/47/86 10/48/88
s 23
f 26/95/89 25/96/90 7/98/91
f 7/98/91 25/96/90 8/97/92
s 24
f 26/51/93 7/52/94 27/50/95
f 27/50/95 7/52/94 12/53/96
s 25
f 28/99/97 27/100/98 11/102/99
f 11/102/99 27/100/98 12/101/100
s 26
f 25/54/101 28/55/102 8/57/103
f 8/57/103 28/55/102 11/56/104
s 27
f 30/103/105 29/104/106 5/106/107
f 5/106/107 29/104/106 7/105/108
s 28
f 30/59/109 5/60/110 31/58/111
f 31/58/111 5/60/110 9/61/112
s 29
f 32/107/113 31/108/114 12/110/115
f 12/110/115 31/108/114 9/109/116
s 30
f 29/62/117 32/63/118 7/65/119
f 7/65/119 32/63/118 12/64/120
