# This file uses centimeters as units for non-parametric coordinates.

mtllib road6.mtl
g default
v -46.396963 0.000000 -90.004877
v 38.497007 0.000000 -90.004877
v -46.396963 0.000000 -113.114740
v 38.497007 0.000000 -113.114740
v -46.396963 0.228681 -91.148287
v 38.497007 0.228681 -91.148287
v -46.396963 0.228681 -111.971331
v 38.497007 0.228681 -111.971331
v 38.497007 0.686043 -91.148287
v -46.396963 0.686043 -91.148287
v -46.396963 0.686043 -90.004877
v 38.497007 0.686043 -90.004877
v -46.396963 0.686043 -111.971331
v 38.497007 0.686043 -111.971331
v 38.497007 0.686043 -113.114740
v -46.396963 0.686043 -113.114740
vt 0.010000 0.950300
vt 0.010000 0.608827
vt 0.990000 0.608827
vt 0.990000 0.950300
vt 0.010000 0.608827
vt 0.990000 0.608827
vt 0.990000 0.950300
vt 0.010000 0.950300
vt 0.029888 0.982221
vt 0.270265 0.982221
vt 0.283464 0.987105
vt 0.016688 0.987105
vt 0.029888 0.982221
vt 0.270265 0.982221
vt 0.283464 0.987105
vt 0.016688 0.987105
vt 0.989972 0.598448
vt 0.009972 0.598448
vt 0.009972 0.574029
vt 0.989972 0.574029
vt 0.009972 0.574029
vt 0.989972 0.574029
vt 0.989972 0.598448
vt 0.009972 0.598448
vt 0.009972 0.574029
vt 0.989972 0.574029
vt 0.989972 0.598448
vt 0.009972 0.598448
vt 0.016688 0.972453
vt 0.029888 0.972453
vt 0.029888 0.982221
vt 0.016688 0.987105
vt 0.009972 0.574029
vt 0.989972 0.574029
vt 0.989972 0.598448
vt 0.009972 0.598448
vt 0.270265 0.972453
vt 0.283464 0.972453
vt 0.009972 0.574029
vt 0.989972 0.574029
vt 0.989972 0.598448
vt 0.009972 0.598448
vt 0.016688 0.972453
vt 0.029888 0.972453
vt 0.009972 0.574029
vt 0.989972 0.574029
vt 0.989972 0.598448
vt 0.009972 0.598448
vt 0.270265 0.972453
vt 0.283464 0.972453
vt 0.283464 0.987105
vt 0.270265 0.982221
vn 0.000000 -1.000000 0.000000
vn 0.000000 -1.000000 0.000000
vn 0.000000 -1.000000 0.000000
vn 0.000000 -1.000000 0.000000
vn 0.000000 1.000000 0.000000
vn 0.000000 1.000000 0.000000
vn 0.000000 1.000000 0.000000
vn 0.000000 1.000000 0.000000
vn 1.000000 -0.000058 0.000000
vn 1.000000 -0.000000 0.000000
vn 1.000000 -0.000054 0.000000
vn 1.000000 0.000000 0.000000
vn -1.000000 0.000008 0.000000
vn -1.000000 -0.000046 0.000000
vn -1.000000 0.000005 0.000000
vn -1.000000 -0.000046 0.000000
vn 0.000000 1.000000 0.000000
vn 0.000000 1.000000 0.000000
vn 0.000000 1.000000 0.000000
vn 0.000000 1.000000 0.000000
vn 0.000000 1.000000 0.000000
vn 0.000000 1.000000 0.000000
vn 0.000000 1.000000 0.000000
vn 0.000000 1.000000 0.000000
vn 0.000000 0.000000 -1.000000
vn 0.000000 0.000000 -1.000000
vn 0.000000 0.000000 -1.000000
vn 0.000000 0.000000 -1.000000
vn -1.000000 0.000000 0.000000
vn -1.000000 0.000000 0.000000
vn -1.000000 0.000000 0.000000
vn -1.000000 0.000000 0.000000
vn 0.000000 0.000000 1.000000
vn 0.000000 0.000000 1.000000
vn 0.000000 0.000000 1.000000
vn 0.000000 0.000000 1.000000
vn 1.000000 0.000000 0.000000
vn 1.000000 0.000000 0.000000
vn 1.000000 0.000000 0.000000
vn 1.000000 0.000000 0.000000
vn 0.000000 0.000000 1.000000
vn 0.000000 0.000000 1.000000
vn 0.000000 0.000000 1.000000
vn 0.000000 0.000000 1.000000
vn 1.000000 0.000000 0.000000
vn 1.000000 0.000000 0.000000
vn 1.000000 0.000000 0.000000
vn 1.000000 0.000000 0.000000
vn 0.000000 0.000000 -1.000000
vn 0.000000 0.000000 -1.000000
vn 0.000000 0.000000 -1.000000
vn 0.000000 0.000000 -1.000000
vn -1.000000 0.000000 0.000000
vn -1.000000 0.000000 0.000000
vn -1.000000 0.000000 0.000000
vn -1.000000 0.000000 0.000000
s 1
g polySurface4 pasted__roadCurve_null_
usemtl lambert44SG
f 4/1/1 2/2/2 3/4/3
f 3/4/3 2/2/2 1/3/4
s 2
f 8/5/5 7/6/6 6/8/7
f 6/8/7 7/6/6 5/7/8
s 3
f 8/9/9 6/10/10 4/12/11
f 4/12/11 6/10/10 2/11/12
s 4
f 5/13/13 7/14/14 1/16/15
f 1/16/15 7/14/14 3/15/16
s 5
f 11/17/17 12/18/18 10/20/19
f 10/20/19 12/18/18 9/19/20
s 6
f 15/21/21 16/22/22 14/24/23
f 14/24/23 16/22/22 13/23/24
s 7
f 10/25/25 9/26/26 5/28/27
f 5/28/27 9/26/26 6/27/28
s 8
f 10/30/29 5/31/30 11/29/31
f 11/29/31 5/31/30 1/32/32
s 9
f 12/33/33 11/34/34 2/36/35
f 2/36/35 11/34/34 1/35/36
s 10
f 9/37/37 12/38/38 6/10/39
f 6/10/39 12/38/38 2/11/40
s 11
f 14/39/41 13/40/42 8/42/43
f 8/42/43 13/40/42 7/41/44
s 12
f 14/44/45 8/9/46 15/43/47
f 15/43/47 8/9/46 4/12/48
s 13
f 16/45/49 15/46/50 3/48/51
f 3/48/51 15/46/50 4/47/52
s 14
f 13/49/53 16/50/54 7/52/55
f 7/52/55 16/50/54 3/51/56
