# This file uses centimeters as units for non-parametric coordinates.

mtllib road3.mtl
g default
v 91.853305 0.000000 35.552297
v 47.521584 0.000000 91.327177
v 114.959843 0.000000 35.947853
v 47.126043 0.000000 114.433733
v 92.996551 0.228682 35.571863
v 47.502015 0.228682 92.470419
v 113.816613 0.228682 35.928265
v 47.145613 0.228682 113.290491
v 47.502015 0.686046 92.470419
v 92.996551 0.686046 35.571863
v 91.853305 0.686046 35.552297
v 47.521584 0.686046 91.327177
v 113.816613 0.686046 35.928265
v 47.145613 0.686046 113.290491
v 47.126043 0.686046 114.433733
v 114.959843 0.686046 35.947853
v 60.535639 0.228682 92.539987
v 71.996863 0.228682 90.015158
v 81.342674 0.228682 82.579037
v 88.474199 0.228682 72.535588
v 91.813134 0.228682 60.876520
v 92.771721 0.228682 48.705430
v 113.591786 0.228682 49.061824
v 111.831539 0.228682 66.609404
v 106.994711 0.228682 82.298115
v 95.812672 0.228682 97.553066
v 82.098245 0.228682 108.224071
v 64.761836 0.228682 112.861673
v 91.628479 0.000000 48.685856
v 90.713917 0.000000 60.561723
v 87.374978 0.000000 72.220791
v 80.548118 0.000000 81.756806
v 71.442190 0.000000 89.015297
v 60.258651 0.000000 91.430633
v 65.038821 0.000000 113.971027
v 82.652918 0.000000 109.223932
v 96.607228 0.000000 98.375297
v 108.093932 0.000000 82.612915
v 112.930761 0.000000 66.924201
v 114.735032 0.000000 49.081404
v 60.535639 0.686046 92.539987
v 71.996863 0.686046 90.015158
v 81.342674 0.686046 82.579037
v 88.474199 0.686046 72.535588
v 91.813134 0.686046 60.876520
v 92.771721 0.686046 48.705430
v 91.628479 0.686046 48.685856
v 90.713917 0.686046 60.561723
v 87.374978 0.686046 72.220791
v 80.548118 0.686046 81.756806
v 71.442190 0.686046 89.015297
v 60.258651 0.686046 91.430633
v 113.591786 0.686046 49.061824
v 111.831539 0.686046 66.609404
v 106.994711 0.686046 82.298115
v 95.812672 0.686046 97.553066
v 82.098245 0.686046 108.224071
v 64.761836 0.686046 112.861673
v 65.038821 0.686046 113.971027
v 82.652918 0.686046 109.223932
v 96.607228 0.686046 98.375297
v 108.093932 0.686046 82.612915
v 112.930761 0.686046 66.924201
v 114.735032 0.686046 49.081404
vt 0.425943 0.686908
vt 0.389011 0.885514
vt 0.571393 0.892160
vt 0.544639 0.693028
vt 0.389011 0.885514
vt 0.425943 0.686908
vt 0.544639 0.693028
vt 0.571393 0.892160
vt 0.309686 0.982769
vt 0.022368 0.982769
vt 0.006591 0.975922
vt 0.325463 0.975922
vt 0.309686 0.982769
vt 0.022368 0.982769
vt 0.006591 0.975922
vt 0.325463 0.975922
vt 0.580884 0.925791
vt 0.582353 0.936725
vt 0.394306 0.929349
vt 0.398501 0.919145
vt 0.394306 0.929349
vt 0.398501 0.919145
vt 0.580884 0.925791
vt 0.582353 0.936725
vt 0.008305 0.966138
vt 0.008305 0.955309
vt 0.260160 0.955309
vt 0.260160 0.966138
vt 0.325463 0.996463
vt 0.309686 0.996463
vt 0.309686 0.982769
vt 0.325463 0.975922
vt 0.791126 0.966138
vt 0.791126 0.955309
vt 0.998451 0.955309
vt 0.998451 0.966138
vt 0.022368 0.996463
vt 0.006591 0.996463
vt 0.791126 0.966138
vt 0.791126 0.955309
vt 0.998451 0.955309
vt 0.998451 0.966138
vt 0.325463 0.996463
vt 0.309686 0.996463
vt 0.008305 0.966138
vt 0.008305 0.955309
vt 0.260160 0.955309
vt 0.260160 0.966138
vt 0.022368 0.996463
vt 0.006591 0.996463
vt 0.006591 0.975922
vt 0.022368 0.982769
vt 0.744546 0.595140
vt 0.880105 0.746086
vt 0.981739 0.617959
vt 0.822013 0.496069
vt 0.656851 0.666785
vt 0.734232 0.852207
vt 0.097959 0.736562
vt 0.219909 0.582433
vt 0.119092 0.499947
vt 0.000000 0.659598
vt 0.241315 0.828243
vt 0.317712 0.642413
vt 0.880105 0.746086
vt 0.744546 0.595140
vt 0.822013 0.496069
vt 0.981739 0.617959
vt 0.734232 0.852207
vt 0.656851 0.666785
vt 0.744546 0.595140
vt 0.880105 0.746086
vt 0.571393 0.892160
vt 0.544639 0.693028
vt 0.656851 0.666785
vt 0.734232 0.852207
vt 0.219909 0.582433
vt 0.097959 0.736562
vt 0.000000 0.659598
vt 0.119092 0.499947
vt 0.317712 0.642413
vt 0.241315 0.828243
vt 0.097959 0.736562
vt 0.219909 0.582433
vt 0.425943 0.686908
vt 0.389011 0.885514
vt 0.241315 0.828243
vt 0.317712 0.642413
vt 0.107450 0.770193
vt 0.100757 0.778963
vt 0.000000 0.702074
vt 0.006693 0.693303
vt 0.250806 0.861874
vt 0.246610 0.872078
vt 0.889307 0.791101
vt 0.882568 0.782366
vt 0.991229 0.651590
vt 1.000000 0.658283
vt 0.747972 0.896020
vt 0.743723 0.885838
vt 0.889307 0.791101
vt 0.882568 0.782366
vt 0.991229 0.651590
vt 1.000000 0.658283
vt 0.747972 0.896020
vt 0.743723 0.885838
vt 0.882568 0.782366
vt 0.889307 0.791101
vt 0.582353 0.936725
vt 0.580884 0.925791
vt 0.743723 0.885838
vt 0.747972 0.896020
vt 0.107450 0.770193
vt 0.100757 0.778963
vt 0.000000 0.702074
vt 0.006693 0.693303
vt 0.250806 0.861874
vt 0.246610 0.872078
vt 0.100757 0.778963
vt 0.107450 0.770193
vt 0.398501 0.919145
vt 0.394306 0.929349
vt 0.246610 0.872078
vt 0.250806 0.861874
vt 0.791126 0.966138
vt 0.791126 0.955309
vt 0.998451 0.955309
vt 0.998451 0.966138
vt 0.509055 0.966138
vt 0.509055 0.955309
vt 0.791126 0.955309
vt 0.791126 0.966138
vt 0.509055 0.955309
vt 0.509055 0.966138
vt 0.260160 0.966138
vt 0.260160 0.955309
vt 0.791126 0.955309
vt 0.791126 0.966138
vt 0.509055 0.966138
vt 0.509055 0.955309
vt 0.998451 0.955309
vt 0.998451 0.966138
vt 0.791126 0.966138
vt 0.791126 0.955309
vt 0.791126 0.966138
vt 0.791126 0.955309
vt 0.998451 0.955309
vt 0.998451 0.966138
vt 0.509055 0.966138
vt 0.509055 0.955309
vt 0.791126 0.955309
vt 0.791126 0.966138
vt 0.260160 0.966138
vt 0.260160 0.955309
vt 0.509055 0.955309
vt 0.509055 0.966138
vt 0.260160 0.955309
vt 0.260160 0.966138
vt 0.008305 0.966138
vt 0.008305 0.955309
vt 0.509055 0.955309
vt 0.509055 0.966138
vt 0.260160 0.966138
vt 0.260160 0.955309
vt 0.509055 0.966138
vt 0.509055 0.955309
vt 0.008305 0.966138
vt 0.008305 0.955309
vt 0.260160 0.955309
vt 0.260160 0.966138
vt 0.791126 0.966138
vt 0.791126 0.955309
vt 0.998451 0.955309
vt 0.998451 0.966138
vt 0.509055 0.966138
vt 0.509055 0.955309
vt 0.791126 0.955309
vt 0.791126 0.966138
vt 0.260160 0.955309
vt 0.260160 0.966138
vt 0.008305 0.966138
vt 0.008305 0.955309
vt 0.509055 0.955309
vt 0.509055 0.966138
vt 0.260160 0.966138
vt 0.260160 0.955309
vt 0.791126 0.955309
vt 0.791126 0.966138
vt 0.509055 0.966138
vt 0.509055 0.955309
vt 0.791126 0.966138
vt 0.791126 0.955309
vt 0.998451 0.955309
vt 0.998451 0.966138
vt 0.509055 0.966138
vt 0.509055 0.955309
vt 0.791126 0.955309
vt 0.791126 0.966138
vt 0.260160 0.966138
vt 0.260160 0.955309
vt 0.509055 0.955309
vt 0.509055 0.966138
vt 0.260160 0.955309
vt 0.260160 0.966138
vt 0.008305 0.966138
vt 0.008305 0.955309
vt 0.509055 0.955309
vt 0.509055 0.966138
vt 0.260160 0.966138
vt 0.260160 0.955309
vt 0.791126 0.955309
vt 0.791126 0.966138
vt 0.509055 0.966138
vt 0.509055 0.955309
vn 0.000000 -1.000000 0.000000
vn 0.000000 -1.000000 0.000000
vn 0.000000 -1.000000 0.000000
vn 0.000000 -1.000000 0.000000
vn -0.000000 1.000000 -0.000000
vn -0.000000 1.000000 -0.000000
vn 0.000000 1.000000 0.000000
vn 0.000000 1.000000 0.000000
vn -0.999854 -0.000003 -0.017116
vn -0.999854 0.000003 -0.017116
vn -0.999854 -0.000003 -0.017116
vn -0.999854 0.000003 -0.017116
vn 0.017116 -0.000032 -0.999854
vn 0.017116 -0.000092 -0.999854
vn 0.017116 -0.000036 -0.999854
vn 0.017116 -0.000092 -0.999854
vn 0.000000 1.000000 0.000000
vn -0.000000 1.000000 -0.000000
vn -0.000001 1.000000 -0.000000
vn -0.000001 1.000000 -0.000000
vn 0.000000 1.000000 0.000000
vn 0.000000 1.000000 0.000000
vn 0.000000 1.000000 0.000000
vn 0.000000 1.000000 0.000000
vn 0.815356 0.000000 0.578959
vn 0.815357 0.000000 0.578959
vn 0.815358 0.000000 0.578957
vn 0.815358 0.000000 0.578957
vn 0.017112 0.000000 -0.999854
vn 0.017112 0.000000 -0.999854
vn 0.017112 0.000000 -0.999854
vn 0.017112 0.000000 -0.999854
vn -0.813110 0.000000 -0.582110
vn -0.813110 0.000000 -0.582110
vn -0.813112 0.000000 -0.582108
vn -0.813112 0.000000 -0.582107
vn -0.999854 0.000000 -0.017116
vn -0.999854 0.000000 -0.017115
vn -0.999854 0.000000 -0.017115
vn -0.999854 0.000000 -0.017115
vn -0.806529 0.000000 -0.591195
vn -0.806529 0.000000 -0.591195
vn -0.806530 0.000000 -0.591193
vn -0.806530 0.000000 -0.591193
vn -0.999854 0.000000 -0.017115
vn -0.999854 0.000000 -0.017115
vn -0.999854 0.000000 -0.017115
vn -0.999854 0.000000 -0.017115
vn 0.808171 0.000000 0.588947
vn 0.808171 0.000000 0.588947
vn 0.808171 0.000000 0.588948
vn 0.808171 0.000000 0.588948
vn 0.017132 0.000000 -0.999853
vn 0.017132 0.000000 -0.999853
vn 0.017132 0.000000 -0.999853
vn 0.017132 0.000000 -0.999853
vn -0.000000 -1.000000 -0.000000
vn 0.000000 -1.000000 0.000000
vn -0.000000 -1.000000 -0.000000
vn 0.000000 -1.000000 0.000000
vn 0.000000 -1.000000 0.000000
vn -0.000000 -1.000000 -0.000000
vn 0.000000 -1.000000 0.000000
vn 0.000000 -1.000000 0.000000
vn -0.000000 -1.000000 -0.000000
vn -0.000000 -1.000000 -0.000000
vn -0.000000 -1.000000 -0.000000
vn -0.000000 -1.000000 -0.000000
vn 0.000000 -1.000000 0.000000
vn -0.000000 -1.000000 -0.000000
vn 0.000000 -1.000000 0.000000
vn 0.000000 -1.000000 0.000000
vn -0.000000 1.000000 -0.000000
vn 0.000000 1.000000 0.000000
vn -0.000000 1.000000 -0.000000
vn 0.000000 1.000000 0.000000
vn 0.000000 1.000000 0.000000
vn 0.000000 1.000000 0.000000
vn 0.000000 1.000000 0.000000
vn 0.000000 1.000000 0.000000
vn 0.000000 1.000000 0.000000
vn 0.000000 1.000000 0.000000
vn 0.000000 1.000000 0.000000
vn 0.000000 1.000000 0.000000
vn 0.000000 1.000000 0.000000
vn 0.000000 1.000000 0.000000
vn 0.000002 1.000000 0.000000
vn 0.000002 1.000000 0.000000
vn 0.000001 1.000000 0.000000
vn 0.000000 1.000000 0.000000
vn 0.000001 1.000000 0.000000
vn 0.000000 1.000000 0.000000
vn 0.000000 1.000000 0.000000
vn -0.000000 1.000000 -0.000000
vn -0.000001 1.000000 -0.000000
vn -0.000001 1.000000 -0.000000
vn -0.000000 1.000000 -0.000000
vn -0.000000 1.000000 -0.000000
vn -0.000000 1.000000 -0.000000
vn 0.000000 1.000000 0.000000
vn 0.000000 1.000000 0.000000
vn 0.000000 1.000000 0.000000
vn 0.000000 1.000000 0.000000
vn 0.000000 1.000000 0.000000
vn 0.000000 1.000000 0.000000
vn 0.000000 1.000000 0.000000
vn 0.000000 1.000000 0.000000
vn 0.000000 1.000000 0.000000
vn 0.000000 1.000000 0.000000
vn 0.000000 1.000000 0.000000
vn 0.000000 1.000000 0.000000
vn 0.000000 1.000000 0.000000
vn 0.000000 1.000000 0.000000
vn 0.000000 1.000000 0.000000
vn 0.000000 1.000000 0.000000
vn 0.000000 1.000000 0.000000
vn 0.000000 1.000000 0.000000
vn 0.000000 1.000000 0.000000
vn 0.000000 1.000000 0.000000
vn 0.000000 1.000000 0.000000
vn 0.000000 1.000000 0.000000
vn 0.000000 1.000000 0.000000
vn 0.000000 1.000000 0.000000
vn 0.000000 1.000000 0.000000
vn 0.000002 1.000000 0.000000
vn -0.000003 1.000000 -0.000000
vn 0.000002 1.000000 0.000000
vn -0.000003 1.000000 -0.000000
vn 0.000000 1.000000 0.000000
vn -0.000000 1.000000 -0.000000
vn -0.000000 1.000000 -0.000000
vn -0.000000 1.000000 -0.000000
vn 0.999854 0.000000 0.017116
vn 0.999854 0.000000 0.017116
vn 0.999854 0.000000 0.017117
vn 0.999854 0.000000 0.017117
vn 0.996913 0.000000 0.078515
vn 0.996913 0.000000 0.078515
vn 0.996913 0.000000 0.078517
vn 0.996913 0.000000 0.078517
vn 0.961354 0.000000 0.275314
vn 0.961354 0.000000 0.275314
vn 0.961354 0.000000 0.275314
vn 0.961354 0.000000 0.275314
vn -0.005337 0.000000 0.999986
vn -0.005337 0.000000 0.999986
vn -0.005337 0.000000 0.999986
vn -0.005337 0.000000 0.999986
vn 0.215135 0.000000 0.976584
vn 0.215135 0.000000 0.976584
vn 0.215135 0.000000 0.976584
vn 0.215135 0.000000 0.976584
vn 0.622625 0.000000 0.782520
vn 0.622625 0.000000 0.782520
vn 0.622622 0.000000 0.782523
vn 0.622622 0.000000 0.782523
vn 0.008122 0.000000 -0.999967
vn 0.008122 0.000000 -0.999967
vn 0.008122 0.000000 -0.999967
vn 0.008122 0.000000 -0.999967
vn -0.211105 0.000000 -0.977463
vn -0.211105 0.000000 -0.977463
vn -0.211105 0.000000 -0.977463
vn -0.211105 0.000000 -0.977463
vn -0.623320 0.000000 -0.781967
vn -0.623320 0.000000 -0.781967
vn -0.623319 0.000000 -0.781968
vn -0.623319 0.000000 -0.781968
vn -0.999854 0.000000 -0.017116
vn -0.999854 0.000000 -0.017116
vn -0.999854 0.000000 -0.017116
vn -0.999854 0.000000 -0.017116
vn -0.997048 0.000000 -0.076783
vn -0.997048 0.000000 -0.076783
vn -0.997048 0.000000 -0.076783
vn -0.997048 0.000000 -0.076783
vn -0.961354 0.000000 -0.275314
vn -0.961354 0.000000 -0.275314
vn -0.961354 0.000000 -0.275314
vn -0.961354 0.000000 -0.275314
vn -0.024335 0.000000 -0.999704
vn -0.024335 0.000000 -0.999704
vn -0.024335 0.000000 -0.999704
vn -0.024335 0.000000 -0.999704
vn -0.258419 0.000000 -0.966033
vn -0.258419 0.000000 -0.966033
vn -0.258421 0.000000 -0.966033
vn -0.258421 0.000000 -0.966033
vn -0.614091 0.000000 -0.789235
vn -0.614091 0.000000 -0.789235
vn -0.614093 0.000000 -0.789233
vn -0.614093 0.000000 -0.789233
vn -0.999854 0.000000 -0.017116
vn -0.999854 0.000000 -0.017116
vn -0.999854 0.000000 -0.017116
vn -0.999854 0.000000 -0.017116
vn -0.995006 0.000000 -0.099812
vn -0.995006 0.000000 -0.099812
vn -0.995006 0.000000 -0.099812
vn -0.995006 0.000000 -0.099812
vn -0.955616 0.000000 -0.294616
vn -0.955616 0.000000 -0.294616
vn -0.955615 0.000000 -0.294617
vn -0.955616 0.000000 -0.294617
vn 0.999854 0.000000 0.017115
vn 0.999854 0.000000 0.017115
vn 0.999854 0.000000 0.017114
vn 0.999854 0.000000 0.017114
vn 0.994926 0.000000 0.100607
vn 0.994926 0.000000 0.100607
vn 0.994926 0.000000 0.100608
vn 0.994926 0.000000 0.100608
vn 0.955616 0.000000 0.294616
vn 0.955616 0.000000 0.294616
vn 0.955616 0.000000 0.294616
vn 0.955616 0.000000 0.294617
vn 0.025823 0.000000 0.999667
vn 0.025823 0.000000 0.999667
vn 0.025822 0.000000 0.999667
vn 0.025822 0.000000 0.999667
vn 0.260220 0.000000 0.965549
vn 0.260220 0.000000 0.965549
vn 0.260221 0.000000 0.965549
vn 0.260221 0.000000 0.965549
vn 0.613775 0.000000 0.789481
vn 0.613775 0.000000 0.789481
vn 0.613775 0.000000 0.789481
vn 0.613775 0.000000 0.789481
s 1
g polySurface7 pasted__pasted__roadCurve_null_ group2
usemtl lambert40SG
f 31/1/1 38/2/2 32/4/3
f 32/4/3 38/2/2 37/3/4
s 2
f 20/6/5 19/7/6 25/5/7
f 25/5/7 19/7/6 26/8/8
s 3
f 8/9/9 6/10/10 4/12/11
f 4/12/11 6/10/10 2/11/12
s 4
f 5/13/13 7/14/14 1/16/15
f 1/16/15 7/14/14 3/15/16
s 5
f 50/17/17 43/18/18 49/20/19
f 49/20/19 43/18/18 44/19/20
s 6
f 62/21/21 55/22/22 61/24/23
f 61/24/23 55/22/22 56/23/24
s 7
f 43/25/25 19/26/26 44/28/27
f 44/28/27 19/26/26 20/27/28
s 8
f 10/30/29 5/31/30 11/29/31
f 11/29/31 5/31/30 1/32/32
s 9
f 49/33/33 31/34/34 50/36/35
f 50/36/35 31/34/34 32/35/36
s 10
f 9/37/37 12/38/38 6/10/39
f 6/10/39 12/38/38 2/11/40
s 11
f 55/39/41 25/40/42 56/42/43
f 56/42/43 25/40/42 26/41/44
s 12
f 14/44/45 8/9/46 15/43/47
f 15/43/47 8/9/46 4/12/48
s 13
f 61/45/49 37/46/50 62/48/51
f 62/48/51 37/46/50 38/47/52
s 14
f 13/49/53 16/50/54 7/52/55
f 7/52/55 16/50/54 3/51/56
s 15
f 35/54/57 4/55/58 34/53/59
f 34/53/59 4/55/58 2/56/60
f 36/58/61 35/54/57 33/57/62
f 33/57/62 35/54/57 34/53/59
f 32/4/63 37/3/64 33/57/62
f 33/57/62 37/3/64 36/58/61
s 16
f 40/59/65 29/60/66 3/62/67
f 3/62/67 29/60/66 1/61/68
f 39/63/69 30/64/70 40/59/65
f 40/59/65 30/64/70 29/60/66
f 38/2/71 31/1/72 39/63/69
f 39/63/69 31/1/72 30/64/70
s 2
f 28/65/73 17/66/74 8/68/75
f 8/68/75 17/66/74 6/67/76
f 27/69/77 18/70/78 28/72/73
f 28/72/73 18/70/78 17/71/74
f 19/74/6 18/75/78 26/73/8
f 26/73/8 18/75/78 27/76/77
f 22/77/79 23/78/80 5/80/81
f 5/80/81 23/78/80 7/79/82
f 24/82/83 23/83/80 21/81/84
f 21/81/84 23/83/80 22/84/79
f 25/86/7 24/87/83 20/85/5
f 20/85/5 24/87/83 21/88/84
s 21
f 47/89/85 46/90/86 11/92/87
f 11/92/87 46/90/86 10/91/88
s 22
f 45/94/89 46/90/90 48/93/91
f 48/93/91 46/90/90 47/89/92
s 23
f 49/20/93 44/19/94 48/93/95
f 48/93/95 44/19/94 45/94/96
s 24
f 41/95/97 52/96/98 9/98/99
f 9/98/99 52/96/98 12/97/100
s 25
f 42/99/101 51/100/102 41/95/103
f 41/95/103 51/100/102 52/96/104
s 26
f 50/17/105 51/100/106 43/18/107
f 43/18/107 51/100/106 42/99/108
s 27
f 59/101/109 58/102/110 15/104/111
f 15/104/111 58/102/110 14/103/112
s 28
f 60/105/113 57/106/114 59/108/115
f 59/108/115 57/106/114 58/107/116
s 29
f 56/110/117 57/111/118 61/109/119
f 61/109/119 57/111/118 60/112/120
s 30
f 53/113/121 64/114/122 13/116/123
f 13/116/123 64/114/122 16/115/124
s 31
f 63/118/125 64/119/126 54/117/127
f 54/117/127 64/119/126 53/120/128
s 32
f 55/121/129 62/122/130 54/124/131
f 54/124/131 62/122/130 63/123/132
s 33
f 46/125/133 22/126/134 10/128/135
f 10/128/135 22/126/134 5/127/136
s 34
f 45/129/137 21/130/138 46/132/139
f 46/132/139 21/130/138 22/131/140
s 35
f 44/28/141 20/27/142 45/129/143
f 45/129/143 20/27/142 21/130/144
s 36
f 17/133/145 41/134/146 6/136/147
f 6/136/147 41/134/146 9/135/148
s 37
f 18/137/149 42/138/150 17/140/151
f 17/140/151 42/138/150 41/139/152
s 38
f 19/141/153 43/142/154 18/144/155
f 18/144/155 43/142/154 42/143/156
s 39
f 52/145/157 34/146/158 12/148/159
f 12/148/159 34/146/158 2/147/160
s 40
f 51/149/161 33/150/162 52/152/163
f 52/152/163 33/150/162 34/151/164
s 41
f 50/153/165 32/154/166 51/156/167
f 51/156/167 32/154/166 33/155/168
s 42
f 29/157/169 47/158/170 1/160/171
f 1/160/171 47/158/170 11/159/172
s 43
f 30/161/173 48/162/174 29/164/175
f 29/164/175 48/162/174 47/163/176
s 44
f 31/34/177 49/33/178 30/166/179
f 30/166/179 49/33/178 48/165/180
s 45
f 58/167/181 28/168/182 14/170/183
f 14/170/183 28/168/182 8/169/184
s 46
f 57/171/185 27/172/186 58/174/187
f 58/174/187 27/172/186 28/173/188
s 47
f 56/175/189 26/176/190 57/178/191
f 57/178/191 26/176/190 27/177/192
s 48
f 23/179/193 53/180/194 7/182/195
f 7/182/195 53/180/194 13/181/196
s 49
f 24/183/197 54/184/198 23/186/199
f 23/186/199 54/184/198 53/185/200
s 50
f 25/187/201 55/188/202 24/190/203
f 24/190/203 55/188/202 54/189/204
s 51
f 64/191/205 40/192/206 16/194/207
f 16/194/207 40/192/206 3/193/208
s 52
f 63/195/209 39/196/210 64/198/211
f 64/198/211 39/196/210 40/197/212
s 53
f 62/199/213 38/200/214 63/202/215
f 63/202/215 38/200/214 39/201/216
s 54
f 35/203/217 59/204/218 4/206/219
f 4/206/219 59/204/218 15/205/220
s 55
f 36/207/221 60/208/222 35/210/223
f 35/210/223 60/208/222 59/209/224
s 56
f 37/211/225 61/212/226 36/214/227
f 36/214/227 61/212/226 60/213/228
