# This file uses centimeters as units for non-parametric coordinates.

mtllib tree11.mtl
g default
v 164.001002 12.163797 -73.774424
v 153.791432 11.905708 -88.658839
v 134.073765 13.868689 -89.295616
v 126.399085 12.163797 -73.775656
v 133.469687 11.905709 -54.977909
v 153.929282 13.868689 -56.422418
v 146.112694 20.901732 -73.593164
v 145.157614 20.929360 -75.228717
v 143.293512 21.089188 -75.231423
v 142.358029 21.103262 -73.567953
v 143.289047 20.956954 -71.980961
v 145.160736 20.901732 -71.979689
v 148.179668 -0.000000 -73.443764
v 146.587964 -0.000000 -75.556007
v 143.962859 -0.000000 -75.233684
v 142.929444 -0.000000 -72.799118
v 144.521134 -0.000000 -70.686860
v 147.146254 -0.000000 -71.009176
v 147.886382 9.744621 -73.407737
v 146.472510 9.744621 -75.284005
v 144.140689 9.744621 -74.997686
v 143.222728 9.744621 -72.835123
v 144.636612 9.744621 -70.958855
v 146.968424 9.744621 -71.245174
v 146.118841 20.773095 -73.601194
v 145.168042 20.924977 -75.248724
v 143.266490 21.086670 -75.243341
v 142.315714 21.096481 -73.590452
v 143.266490 20.944598 -71.942922
v 145.168042 20.782906 -71.948283
v 146.540516 30.514756 -73.072614
v 146.273806 30.637330 -74.586844
v 144.827988 30.768145 -75.108459
v 143.648881 30.776129 -74.115843
v 143.915569 30.653298 -72.601613
v 145.361386 30.522737 -72.079998
v 146.675443 40.236119 -72.207009
v 146.447089 40.281442 -73.512359
v 145.204997 40.393976 -73.965312
v 144.191281 40.460926 -73.112915
v 144.419634 40.415606 -71.807543
v 145.661727 40.303075 -71.354590
v 147.627251 49.549705 -71.938286
v 147.435241 49.522409 -73.027924
v 146.395638 49.485330 -73.406041
v 145.548059 49.475799 -72.694474
v 145.740068 49.503354 -71.604836
v 146.779657 49.540432 -71.226742
v 147.152875 58.316798 -71.911283
v 147.016322 58.058002 -72.613464
v 146.311167 57.910448 -72.835507
v 145.742556 58.021432 -72.355348
v 145.879112 58.280229 -71.653166
v 146.584278 58.428046 -71.431123
v 146.438934 65.876675 -73.562896
v 147.099857 22.030150 -55.963695
v 160.693877 21.180040 -66.671365
v 146.517071 30.749324 -73.058877
v 145.354738 30.721696 -72.087222
v 159.224395 23.571051 -84.441061
v 146.247772 30.909151 -74.542455
v 143.208320 22.030150 -89.725211
v 144.843975 30.923226 -75.053641
v 127.062474 21.796887 -81.430785
v 143.681208 30.776918 -74.105847
v 130.477476 23.571051 -63.210402
v 143.949721 30.721696 -72.626899
v 160.844377 32.475920 -68.322970
v 155.929355 32.265089 -82.223754
v 146.437918 40.356410 -73.502672
v 146.673799 40.331439 -72.213453
v 140.503858 33.868602 -86.888135
v 145.223532 40.500862 -73.945137
v 131.171650 32.475920 -76.260708
v 144.213933 40.513583 -73.103550
v 132.783604 32.265089 -59.934335
v 144.431108 40.449880 -71.817348
v 149.233884 33.868602 -56.755771
v 145.662494 40.331439 -71.347719
v 155.241570 43.234076 -81.716140
v 143.460717 43.064312 -83.188248
v 146.385825 49.579717 -73.371002
v 147.400276 49.559610 -73.009260
v 134.541468 44.355513 -73.762828
v 145.600981 49.696035 -72.686574
v 138.829412 43.234076 -63.212240
v 145.774213 49.706280 -71.606442
v 151.166049 43.064309 -58.487408
v 146.773570 49.654982 -71.263140
v 158.481277 44.355513 -69.186330
v 147.608288 49.679855 -71.948804
v 143.159016 52.655053 -81.818186
v 137.459854 52.516189 -73.954885
v 145.794938 58.040610 -72.355556
v 146.324378 57.931037 -72.826852
v 140.699266 53.572362 -63.846707
v 145.905736 58.277835 -71.668442
v 149.951445 52.655053 -62.760885
v 146.569515 58.486941 -71.491064
v 158.201003 52.516189 -69.740293
v 147.133068 58.345340 -71.929489
v 153.772739 53.572362 -79.848488
v 147.008494 58.056431 -72.601993
v 140.398417 58.656576 -73.953880
v 142.134747 60.297980 -69.141715
v 146.460253 64.644971 -73.093497
v 146.452647 64.627794 -73.204303
v 148.396872 61.373404 -67.169221
v 146.556014 64.682130 -73.041314
v 152.579516 61.026753 -71.268689
v 146.641664 64.714900 -73.106540
v 152.290357 59.127000 -76.183290
v 146.641402 64.692716 -73.218419
v 145.451290 58.594115 -78.639492
v 146.546130 64.647438 -73.267495
v 160.157298 28.189678 -77.276126
v 148.559168 27.978850 -86.379567
v 145.218036 36.070171 -73.930409
v 146.107977 36.045200 -72.968261
v 133.035608 29.582363 -82.052735
v 143.955606 36.214622 -73.653319
v 130.850359 28.189678 -68.079294
v 143.554094 36.227344 -72.401781
v 140.959238 27.978850 -55.158017
v 144.426625 36.163641 -71.432156
v 156.551946 29.582363 -61.288470
v 145.717963 36.045200 -71.695421
v 133.104147 38.814121 -73.706341
v 139.014493 38.644358 -63.409575
v 145.097618 45.159763 -71.651549
v 144.776393 45.139655 -72.679548
v 151.909158 39.935559 -61.953857
v 146.116476 45.276080 -71.436261
v 157.758359 38.814121 -71.725667
v 146.875151 45.286326 -72.224365
v 154.112174 38.644355 -84.422989
v 146.548274 45.235028 -73.229214
v 140.621467 39.935559 -84.553139
v 145.498428 45.259900 -73.483601
v 137.335442 48.836336 -77.168459
v 138.530097 48.697472 -67.530784
v 145.716732 54.221896 -72.045623
v 145.782517 54.112323 -72.751384
v 147.793014 49.753647 -62.347404
v 146.266375 54.459121 -71.618663
v 155.300159 48.836336 -67.863255
v 146.872804 54.668227 -71.941633
v 156.573561 48.697472 -78.593858
v 146.985956 54.526626 -72.646619
v 146.441160 49.753647 -82.966455
v 146.436201 54.237716 -73.053499
v 154.454003 56.365612 -71.176031
v 151.745856 56.537762 -77.007299
v 146.472232 61.420922 -72.759052
v 146.489889 61.434153 -72.648977
v 143.929609 56.517707 -78.834424
v 146.369987 61.434889 -72.807565
v 139.330118 56.900216 -73.444908
v 146.287315 61.476448 -72.742359
v 140.336707 56.379082 -67.260160
v 146.298192 61.484475 -72.629538
v 148.835785 57.102897 -65.063028
v 146.400398 61.461762 -72.582395
v 162.211698 16.927122 -70.961139
v 156.397184 17.664181 -86.550449
v 145.729447 26.649021 -74.786108
v 146.379126 26.621393 -73.417515
v 136.721280 19.524257 -89.782867
v 144.225696 26.808849 -74.896845
v 126.863224 17.908740 -75.965565
v 143.379310 26.822923 -73.665752
v 131.328390 17.664183 -57.052420
v 144.005781 26.676615 -72.302714
v 152.038335 19.524257 -55.711184
v 145.504851 26.621393 -72.192375
vt 0.549590 0.643033
vt 0.533714 0.611174
vt 0.119076 0.579064
vt 0.317622 0.940205
vt 0.584121 0.646639
vt 0.767250 0.983640
vt 0.603698 0.616945
vt 0.985743 0.650493
vt 0.589130 0.585142
vt 0.859487 0.210041
vt 0.553231 0.582140
vt 0.389947 0.208975
vt 0.158317 0.133866
vt 0.159903 0.169541
vt 0.029710 0.186439
vt 0.025125 0.144790
vt 0.158052 0.096838
vt 0.022300 0.103347
vt 0.157045 0.058476
vt 0.020675 0.062354
vt 0.154848 0.021086
vt 0.020120 0.021086
vt 0.165509 0.204485
vt 0.174562 0.239391
vt 0.044323 0.268051
vt 0.036167 0.227679
vt 0.315435 0.120075
vt 0.316415 0.151530
vt 0.315498 0.089936
vt 0.314050 0.060920
vt 0.311669 0.031579
vt 0.321029 0.182513
vt 0.329669 0.211535
vt 0.450813 0.114900
vt 0.453976 0.138338
vt 0.448219 0.091350
vt 0.446412 0.067482
vt 0.445484 0.043233
vt 0.457625 0.162257
vt 0.462249 0.186280
vt 0.585022 0.099012
vt 0.588974 0.120215
vt 0.582121 0.077890
vt 0.580905 0.057012
vt 0.580978 0.036196
vt 0.592744 0.141073
vt 0.595900 0.161802
vt 0.722739 0.082733
vt 0.726051 0.099222
vt 0.719521 0.066271
vt 0.717889 0.049079
vt 0.718354 0.031639
vt 0.728496 0.116355
vt 0.730453 0.133620
vt 0.856172 0.067155
vt 0.859644 0.078358
vt 0.854256 0.055261
vt 0.854946 0.043254
vt 0.857413 0.031640
vt 0.862867 0.089514
vt 0.865230 0.101021
vt 0.148738 0.945669
vt 0.048820 0.887981
vt 0.148738 0.830293
vt 0.182045 0.887981
vt 0.549590 0.643033
vt 0.533714 0.611174
vt 0.119076 0.579064
vt 0.317622 0.940205
vt 0.584121 0.646639
vt 0.767250 0.983640
vt 0.603698 0.616945
vt 0.985743 0.650493
vt 0.589130 0.585142
vt 0.859487 0.210041
vt 0.553231 0.582140
vt 0.389947 0.208975
vt 0.549590 0.643033
vt 0.533714 0.611174
vt 0.119076 0.579064
vt 0.317622 0.940205
vt 0.584121 0.646639
vt 0.767250 0.983640
vt 0.603698 0.616945
vt 0.985743 0.650493
vt 0.589130 0.585142
vt 0.859487 0.210041
vt 0.553231 0.582140
vt 0.389947 0.208975
vt 0.549590 0.643033
vt 0.533714 0.611174
vt 0.119076 0.579064
vt 0.317622 0.940205
vt 0.584121 0.646639
vt 0.767250 0.983640
vt 0.603698 0.616945
vt 0.985743 0.650493
vt 0.589130 0.585142
vt 0.859487 0.210041
vt 0.553231 0.582140
vt 0.389947 0.208975
vt 0.549590 0.643033
vt 0.533714 0.611174
vt 0.119076 0.579064
vt 0.317622 0.940205
vt 0.584121 0.646639
vt 0.767250 0.983640
vt 0.603698 0.616945
vt 0.985743 0.650493
vt 0.589130 0.585142
vt 0.859487 0.210041
vt 0.553231 0.582140
vt 0.389947 0.208975
vt 0.549590 0.643033
vt 0.533714 0.611174
vt 0.119076 0.579064
vt 0.317622 0.940205
vt 0.584121 0.646639
vt 0.767250 0.983640
vt 0.603698 0.616945
vt 0.985743 0.650493
vt 0.589130 0.585142
vt 0.859487 0.210041
vt 0.553231 0.582140
vt 0.389947 0.208975
vt 0.549590 0.643033
vt 0.533714 0.611174
vt 0.119076 0.579064
vt 0.317622 0.940205
vt 0.584121 0.646639
vt 0.767250 0.983640
vt 0.603698 0.616945
vt 0.985743 0.650493
vt 0.589130 0.585142
vt 0.859487 0.210041
vt 0.553231 0.582140
vt 0.389947 0.208975
vt 0.549590 0.643033
vt 0.533714 0.611174
vt 0.119076 0.579064
vt 0.317622 0.940205
vt 0.584121 0.646639
vt 0.767250 0.983640
vt 0.603698 0.616945
vt 0.985743 0.650493
vt 0.589130 0.585142
vt 0.859487 0.210041
vt 0.553231 0.582140
vt 0.389947 0.208975
vt 0.549590 0.643033
vt 0.533714 0.611174
vt 0.119076 0.579064
vt 0.317622 0.940205
vt 0.584121 0.646639
vt 0.767250 0.983640
vt 0.603698 0.616945
vt 0.985743 0.650493
vt 0.589130 0.585142
vt 0.859487 0.210041
vt 0.553231 0.582140
vt 0.389947 0.208975
vt 0.549590 0.643033
vt 0.533714 0.611174
vt 0.119076 0.579064
vt 0.317622 0.940205
vt 0.584121 0.646639
vt 0.767250 0.983640
vt 0.603698 0.616945
vt 0.985743 0.650493
vt 0.589130 0.585142
vt 0.859487 0.210041
vt 0.553231 0.582140
vt 0.389947 0.208975
vt 0.549590 0.643033
vt 0.533714 0.611174
vt 0.119076 0.579064
vt 0.317622 0.940205
vt 0.584121 0.646639
vt 0.767250 0.983640
vt 0.603698 0.616945
vt 0.985743 0.650493
vt 0.589130 0.585142
vt 0.859487 0.210041
vt 0.553231 0.582140
vt 0.389947 0.208975
vt 0.990426 0.051827
vt 0.082127 0.945669
vt 0.082127 0.830293
vn 0.472499 0.841580 -0.261700
vn 0.421896 0.856770 -0.296562
vn 0.416669 0.858119 -0.300031
vn 0.416184 0.858242 -0.300352
vn 0.074991 0.866277 -0.493903
vn 0.099519 0.855650 -0.507896
vn 0.101305 0.854845 -0.508899
vn 0.101532 0.854742 -0.509026
vn -0.467846 0.841488 -0.270221
vn -0.471905 0.868519 -0.151594
vn -0.471925 0.870611 -0.139005
vn -0.471923 0.870819 -0.137707
vn -0.461901 0.816551 0.346255
vn -0.469182 0.862552 0.189400
vn -0.469076 0.859977 0.201014
vn -0.469189 0.862783 0.188327
vn 0.025526 0.876243 0.481193
vn -0.054629 0.897615 0.437383
vn -0.048154 0.896177 0.441075
vn -0.055280 0.897756 0.437010
vn 0.426821 0.868565 0.251829
vn 0.427890 0.888010 0.168371
vn 0.427840 0.889280 0.161662
vn 0.427833 0.889414 0.160942
vn 0.404209 0.048018 -0.913405
vn 0.988530 0.094835 -0.117538
vn 0.381066 -0.152588 -0.911869
vn 0.939309 -0.321152 -0.120665
vn -0.593732 -0.018740 -0.804445
vn -0.574151 -0.321153 -0.753134
vn -0.990998 -0.029607 0.130564
vn -0.980235 -0.152589 0.125919
vn -0.369576 0.029037 0.928747
vn -0.365160 -0.321152 0.873796
vn 0.610874 0.085782 0.787067
vn 0.599168 -0.152590 0.785948
vn 0.459444 0.009021 -0.888161
vn 0.997518 0.069483 -0.011374
vn -0.523130 -0.001320 -0.852252
vn -0.999814 0.012593 -0.014617
vn -0.535084 0.038275 0.843932
vn 0.481420 0.081504 0.872692
vn 0.940870 -0.050890 0.334923
vn 0.762965 0.023672 -0.646006
vn -0.157820 0.097450 -0.982648
vn -0.928323 0.116897 -0.352919
vn -0.763931 0.060274 0.642477
vn 0.204390 -0.033183 0.978327
vn 0.929956 -0.075038 0.359931
vn 0.769374 0.007237 -0.638758
vn -0.183891 0.104844 -0.977339
vn -0.939421 0.117993 -0.321818
vn -0.762358 0.039229 0.645966
vn 0.155895 -0.055799 0.986196
vn 0.938789 -0.029036 0.343267
vn 0.784083 0.005094 -0.620635
vn -0.144190 0.071007 -0.986999
vn -0.933958 0.100792 -0.342875
vn -0.745471 0.055072 0.664259
vn 0.203570 -0.009188 0.979017
vn 0.927847 0.096912 0.360151
vn 0.762343 0.021660 -0.646810
vn -0.205589 -0.001797 -0.978637
vn -0.952538 0.029731 -0.302964
vn -0.731880 0.106097 0.673124
vn 0.183202 0.148779 0.971752
vn 0.514791 0.849517 0.115374
vn 0.300244 0.851515 0.429856
vn 0.464307 0.852151 0.241367
vn 0.134891 0.879217 0.456927
vn 0.159276 0.876515 -0.454261
vn 0.342525 0.910392 -0.232082
vn -0.210859 0.852898 -0.477602
vn -0.109096 0.857377 -0.502993
vn -0.457905 0.888479 -0.030454
vn -0.390485 0.892427 -0.226042
vn -0.169385 0.883962 0.435797
vn -0.326812 0.914850 0.237157
vn 0.449793 0.843636 -0.293196
vn 0.465244 0.881347 0.082317
vn 0.396313 0.848869 -0.349797
vn 0.468294 0.880603 0.072380
vn 0.181452 0.848183 -0.497655
vn -0.107307 0.896664 -0.429511
vn -0.456366 0.858621 -0.233454
vn -0.504714 0.859015 -0.085774
vn -0.481589 0.866460 0.131600
vn -0.357369 0.896396 0.262225
vn -0.110731 0.895610 0.430839
vn 0.086440 0.916915 0.389609
vn 0.437646 0.867790 -0.235386
vn 0.290535 0.876432 -0.384000
vn 0.023292 0.836639 -0.547259
vn -0.133704 0.842212 -0.522304
vn -0.364978 0.844568 -0.391786
vn -0.434594 0.895889 -0.092256
vn -0.413564 0.861294 0.295191
vn -0.299803 0.860522 0.411849
vn -0.113584 0.864841 0.489029
vn 0.073149 0.895228 0.439563
vn 0.358431 0.890585 0.279974
vn 0.415606 0.903266 0.106690
vn -0.004509 0.862857 -0.505428
vn -0.209165 0.870027 -0.446434
vn -0.463656 0.824399 -0.324636
vn -0.538890 0.832619 -0.127843
vn -0.555835 0.824569 0.105511
vn -0.291675 0.886455 0.359337
vn 0.052015 0.853855 0.517906
vn 0.219727 0.850998 0.476993
vn 0.399906 0.859710 0.317764
vn 0.427019 0.890504 0.157025
vn 0.427804 0.884765 -0.184865
vn 0.285647 0.911219 -0.296792
vn -0.632236 0.761062 0.145126
vn -0.624742 0.680794 -0.382383
vn -0.556619 0.788830 0.260620
vn -0.635516 0.688270 -0.349862
vn -0.298176 0.791096 0.534096
vn 0.048619 0.875128 0.481443
vn 0.413552 0.846379 0.335586
vn 0.535126 0.844298 -0.028300
vn 0.552936 0.755149 -0.352151
vn 0.380013 0.705649 -0.598038
vn 0.198417 0.628668 -0.751936
vn -0.166223 0.671129 -0.722465
vn 0.222681 0.843638 -0.488558
vn 0.436930 0.881347 -0.179779
vn 0.147197 0.848869 -0.507696
vn 0.434181 0.880603 -0.189805
vn -0.113442 0.848183 -0.517414
vn -0.320740 0.896663 -0.305157
vn -0.510414 0.858621 0.047412
vn -0.472108 0.859015 0.198008
vn -0.336112 0.866460 0.369155
vn -0.161237 0.896395 0.412890
vn 0.137354 0.895610 0.423105
vn 0.281741 0.916915 0.282647
vn -0.454024 0.872711 -0.179547
vn -0.481536 0.876417 0.003922
vn -0.451195 0.836639 0.310578
vn -0.336824 0.842212 0.420985
vn -0.093443 0.844568 0.527232
vn 0.187715 0.895889 0.402674
vn 0.484582 0.861294 0.152817
vn 0.509347 0.860522 -0.008232
vn 0.458989 0.864841 -0.203420
vn 0.302962 0.895890 -0.324954
vn 0.030759 0.896970 -0.441020
vn -0.153458 0.914628 -0.374041
vn -0.347999 0.862857 -0.366571
vn -0.457441 0.870027 -0.183851
vn -0.560499 0.824399 0.078786
vn -0.481308 0.832619 0.274023
vn -0.334555 0.824569 0.456244
vn 0.031749 0.886455 0.461725
vn 0.391253 0.853855 0.343298
vn 0.486007 0.850998 0.198997
vn 0.509188 0.859710 -0.040337
vn 0.419393 0.890504 -0.176386
vn 0.186800 0.884765 -0.426962
vn 0.006498 0.911219 -0.411871
vn 0.470214 0.810894 -0.348352
vn 0.517321 0.847102 0.121640
vn 0.390535 0.806307 -0.444242
vn 0.522815 0.847672 0.090094
vn 0.149628 0.737898 -0.658117
vn -0.157687 0.793829 -0.587342
vn -0.457811 0.773763 -0.437836
vn -0.538491 0.834380 -0.117634
vn -0.539631 0.822985 0.177465
vn -0.368181 0.843319 0.391478
vn -0.192125 0.819633 0.539713
vn 0.134775 0.875659 0.463743
vn 0.198808 0.858766 -0.472225
vn 0.525899 0.845367 -0.093729
vn 0.355351 0.868509 -0.345568
vn 0.515436 0.856792 0.015276
vn -0.117862 0.914127 -0.387919
vn -0.154715 0.913812 -0.375514
vn -0.463228 0.885998 -0.020679
vn -0.473009 0.880885 -0.017439
vn -0.131125 0.900604 0.414390
vn -0.294682 0.907439 0.299527
vn 0.426687 0.877372 0.219448
vn 0.161837 0.926204 0.340523
vn -0.048444 0.958027 -0.282557
s 1
g treePine1:null_ group52
usemtl pasted__lambert48SG
f 8/1/1 7/2/2 2/4/3
f 7/2/2 1/3/4 2/4/3
s 2
f 9/5/5 8/1/6 3/6/7
f 8/1/6 2/4/8 3/6/7
s 3
f 10/7/9 9/5/10 4/8/11
f 9/5/10 3/6/12 4/8/11
s 4
f 10/7/13 4/8/14 11/9/15
f 11/9/15 4/8/14 5/10/16
s 5
f 11/9/17 5/10/18 12/11/19
f 12/11/19 5/10/18 6/12/20
s 6
f 7/2/21 12/11/22 1/3/23
f 12/11/22 6/12/24 1/3/23
s 7
f 20/13/25 19/14/26 14/16/27
f 14/16/27 19/14/26 13/15/28
f 21/17/29 20/13/25 15/18/30
f 15/18/30 20/13/25 14/16/27
f 22/19/31 21/17/29 16/20/32
f 16/20/32 21/17/29 15/18/30
f 23/21/33 22/19/31 17/22/34
f 17/22/34 22/19/31 16/20/32
f 24/23/35 23/24/33 18/26/36
f 18/26/36 23/24/33 17/25/34
f 19/14/26 24/23/35 13/15/28
f 13/15/28 24/23/35 18/26/36
f 26/27/37 25/28/38 20/13/25
f 20/13/25 25/28/38 19/14/26
f 27/29/39 26/27/37 21/17/29
f 21/17/29 26/27/37 20/13/25
f 27/29/39 21/17/29 28/30/40
f 28/30/40 21/17/29 22/19/31
f 28/30/40 22/19/31 29/31/41
f 29/31/41 22/19/31 23/21/33
f 29/33/41 23/24/33 30/32/42
f 30/32/42 23/24/33 24/23/35
f 30/32/42 24/23/35 25/28/38
f 25/28/38 24/23/35 19/14/26
f 31/35/43 25/28/38 32/34/44
f 32/34/44 25/28/38 26/27/37
f 32/34/44 26/27/37 33/36/45
f 33/36/45 26/27/37 27/29/39
f 33/36/45 27/29/39 34/37/46
f 34/37/46 27/29/39 28/30/40
f 34/37/46 28/30/40 35/38/47
f 35/38/47 28/30/40 29/31/41
f 35/40/47 29/33/41 36/39/48
f 36/39/48 29/33/41 30/32/42
f 31/35/43 36/39/48 25/28/38
f 25/28/38 36/39/48 30/32/42
f 37/42/49 31/35/43 38/41/50
f 38/41/50 31/35/43 32/34/44
f 39/43/51 38/41/50 33/36/45
f 33/36/45 38/41/50 32/34/44
f 40/44/52 39/43/51 34/37/46
f 34/37/46 39/43/51 33/36/45
f 41/45/53 40/44/52 35/38/47
f 35/38/47 40/44/52 34/37/46
f 42/46/54 41/47/53 36/39/48
f 36/39/48 41/47/53 35/40/47
f 42/46/54 36/39/48 37/42/49
f 37/42/49 36/39/48 31/35/43
f 43/49/55 37/42/49 44/48/56
f 44/48/56 37/42/49 38/41/50
f 44/48/56 38/41/50 45/50/57
f 45/50/57 38/41/50 39/43/51
f 45/50/57 39/43/51 46/51/58
f 46/51/58 39/43/51 40/44/52
f 47/52/59 46/51/58 41/45/53
f 41/45/53 46/51/58 40/44/52
f 48/53/60 47/54/59 42/46/54
f 42/46/54 47/54/59 41/47/53
f 43/49/55 48/53/60 37/42/49
f 37/42/49 48/53/60 42/46/54
f 49/56/61 43/49/55 50/55/62
f 50/55/62 43/49/55 44/48/56
f 50/55/62 44/48/56 51/57/63
f 51/57/63 44/48/56 45/50/57
f 52/58/64 51/57/63 46/51/58
f 46/51/58 51/57/63 45/50/57
f 53/59/65 52/58/64 47/52/59
f 47/52/59 52/58/64 46/51/58
f 54/60/66 53/61/65 48/53/60
f 48/53/60 53/61/65 47/54/59
f 54/60/66 48/53/60 49/56/61
f 49/56/61 48/53/60 43/49/55
f 13/63/28 17/64/34 15/62/30
f 15/62/30 17/64/34 16/65/32
s 25
f 58/66/67 59/67/68 57/69/69
f 59/67/68 56/68/70 57/69/69
f 61/70/71 58/66/67 60/71/72
f 58/66/67 57/69/69 60/71/72
f 63/72/73 61/70/71 62/73/74
f 61/70/71 60/71/72 62/73/74
f 65/74/75 63/72/73 64/75/76
f 63/72/73 62/73/74 64/75/76
f 67/76/77 65/74/75 66/77/78
f 65/74/75 64/75/76 66/77/78
f 59/67/68 67/76/77 56/68/70
f 67/76/77 66/77/78 56/68/70
s 26
f 70/78/79 71/79/80 69/81/81
f 71/79/80 68/80/82 69/81/81
f 70/78/79 69/81/81 73/82/83
f 73/82/83 69/81/81 72/83/84
f 73/82/83 72/83/84 75/84/85
f 75/84/85 72/83/84 74/85/86
f 75/84/85 74/85/86 77/86/87
f 77/86/87 74/85/86 76/87/88
f 77/86/87 76/87/88 79/88/89
f 79/88/89 76/87/88 78/89/90
f 79/88/89 78/89/90 71/79/80
f 71/79/80 78/89/90 68/80/82
s 27
f 83/91/91 80/92/92 82/90/93
f 82/90/93 80/92/92 81/93/94
f 82/90/93 81/93/94 85/94/95
f 85/94/95 81/93/94 84/95/96
f 85/94/95 84/95/96 87/96/97
f 87/96/97 84/95/96 86/97/98
f 87/96/97 86/97/98 89/98/99
f 89/98/99 86/97/98 88/99/100
f 89/98/99 88/99/100 91/100/101
f 91/100/101 88/99/100 90/101/102
f 91/100/101 90/101/102 83/91/91
f 83/91/91 90/101/102 80/92/92
s 28
f 95/103/103 92/104/104 94/102/105
f 94/102/105 92/104/104 93/105/106
f 94/102/105 93/105/106 97/106/107
f 97/106/107 93/105/106 96/107/108
f 97/106/107 96/107/108 99/108/109
f 99/108/109 96/107/108 98/109/110
f 99/108/109 98/109/110 101/110/111
f 101/110/111 98/109/110 100/111/112
f 101/110/111 100/111/112 103/112/113
f 103/112/113 100/111/112 102/113/114
f 103/112/113 102/113/114 95/103/103
f 95/103/103 102/113/114 92/104/104
s 29
f 106/114/115 107/115/116 105/117/117
f 107/115/116 104/116/118 105/117/117
f 106/114/115 105/117/117 109/118/119
f 109/118/119 105/117/117 108/119/120
f 109/118/119 108/119/120 111/120/121
f 111/120/121 108/119/120 110/121/122
f 111/120/121 110/121/122 113/122/123
f 113/122/123 110/121/122 112/123/124
f 113/122/123 112/123/124 115/124/125
f 115/124/125 112/123/124 114/125/126
f 115/124/125 114/125/126 107/115/116
f 107/115/116 114/125/126 104/116/118
s 30
f 118/126/127 119/127/128 117/129/129
f 119/127/128 116/128/130 117/129/129
f 118/126/127 117/129/129 121/130/131
f 121/130/131 117/129/129 120/131/132
f 121/130/131 120/131/132 123/132/133
f 123/132/133 120/131/132 122/133/134
f 123/132/133 122/133/134 125/134/135
f 125/134/135 122/133/134 124/135/136
f 125/134/135 124/135/136 127/136/137
f 127/136/137 124/135/136 126/137/138
f 127/136/137 126/137/138 119/127/128
f 119/127/128 126/137/138 116/128/130
s 31
f 131/139/139 128/140/140 130/138/141
f 130/138/141 128/140/140 129/141/142
f 130/138/141 129/141/142 133/142/143
f 133/142/143 129/141/142 132/143/144
f 133/142/143 132/143/144 135/144/145
f 135/144/145 132/143/144 134/145/146
f 135/144/145 134/145/146 137/146/147
f 137/146/147 134/145/146 136/147/148
f 137/146/147 136/147/148 139/148/149
f 139/148/149 136/147/148 138/149/150
f 139/148/149 138/149/150 131/139/139
f 131/139/139 138/149/150 128/140/140
s 32
f 143/151/151 140/152/152 142/150/153
f 142/150/153 140/152/152 141/153/154
f 142/150/153 141/153/154 145/154/155
f 145/154/155 141/153/154 144/155/156
f 145/154/155 144/155/156 147/156/157
f 147/156/157 144/155/156 146/157/158
f 147/156/157 146/157/158 149/158/159
f 149/158/159 146/157/158 148/159/160
f 149/158/159 148/159/160 151/160/161
f 151/160/161 148/159/160 150/161/162
f 151/160/161 150/161/162 143/151/151
f 143/151/151 150/161/162 140/152/152
s 33
f 154/162/163 155/163/164 153/165/165
f 155/163/164 152/164/166 153/165/165
f 154/162/163 153/165/165 157/166/167
f 157/166/167 153/165/165 156/167/168
f 157/166/167 156/167/168 159/168/169
f 159/168/169 156/167/168 158/169/170
f 159/168/169 158/169/170 161/170/171
f 161/170/171 158/169/170 160/171/172
f 161/170/171 160/171/172 163/172/173
f 163/172/173 160/171/172 162/173/174
f 163/172/173 162/173/174 155/163/164
f 155/163/164 162/173/174 152/164/166
s 34
f 166/174/175 167/175/176 165/177/177
f 167/175/176 164/176/178 165/177/177
f 169/178/179 166/174/175 168/179/180
f 166/174/175 165/177/177 168/179/180
f 169/178/179 168/179/180 171/180/181
f 171/180/181 168/179/180 170/181/182
f 173/182/183 171/180/181 172/183/184
f 171/180/181 170/181/182 172/183/184
f 175/184/185 173/182/183 174/185/186
f 173/182/183 172/183/184 174/185/186
f 167/175/176 175/184/185 164/176/178
f 175/184/185 174/185/186 164/176/178
s 7
f 49/56/61 50/55/62 55/186/187
f 50/55/62 51/57/63 55/186/187
f 51/57/63 52/58/64 55/186/187
f 52/58/64 53/59/65 55/186/187
f 53/61/65 54/60/66 55/186/187
f 54/60/66 49/56/61 55/186/187
f 15/62/30 14/187/27 13/63/28
f 18/188/36 17/64/34 13/63/28
