# This file uses centimeters as units for non-parametric coordinates.

mtllib house12.mtl
g default
v -4.675055 0.000000 -84.726425
v -1.708871 0.000000 -37.598900
v -38.555102 0.000000 -35.279821
v -41.521285 0.000000 -82.407341
v -4.736514 46.510458 -85.702906
v -41.582745 46.510458 -83.383826
v -38.555102 58.020333 -35.279821
v -1.708871 58.020333 -37.598900
v -41.667093 20.393823 -84.723972
v -4.820863 20.393823 -87.043056
v -4.820863 19.860979 -87.043059
v -41.667093 19.860979 -84.723972
v -41.532486 45.621659 -82.585307
v -41.521285 44.507878 -82.407341
v -41.521285 21.425390 -82.407341
v -41.521285 19.860978 -82.407342
v -4.675055 19.860978 -84.726428
v -4.675055 21.425390 -84.726426
v -4.675055 44.507878 -84.726425
v -4.686256 45.621659 -84.904389
v -37.703822 27.678099 -82.647610
v -31.345238 27.678099 -83.047816
v -37.703822 40.525415 -82.647610
v -31.345238 40.525415 -83.047816
v -31.264548 40.525415 -81.765786
v -31.264548 27.678099 -81.765783
v -37.623132 27.678099 -81.365580
v -37.623132 40.525415 -81.365580
v -26.564722 27.678099 -83.348700
v -26.564722 40.525415 -83.348700
v -20.206139 40.525415 -83.748906
v -20.206139 27.678099 -83.748907
v -20.125448 27.678099 -82.466873
v -20.125448 40.525415 -82.466875
v -26.484032 27.678099 -82.066667
v -26.484032 40.525415 -82.066669
v -15.425624 27.678099 -84.049791
v -9.067040 27.678099 -84.449997
v -15.425624 40.525415 -84.049789
v -9.067039 40.525415 -84.449996
v -15.344933 27.678099 -82.767756
v -15.344933 40.525415 -82.767756
v -8.986349 40.525415 -83.167965
v -8.986349 27.678099 -83.167965
v -20.206139 17.080055 -83.748907
v -20.206139 4.232739 -83.748906
v -20.125448 4.232741 -82.466873
v -20.125448 17.080057 -82.466873
v -37.703823 17.080055 -82.647611
v -37.703822 4.232739 -82.647610
v -37.623132 17.080057 -81.365577
v -37.623132 4.232741 -81.365580
v -16.173565 17.033953 -84.002716
v -8.434626 17.033953 -84.489802
v -16.173565 0.468226 -84.002714
v -8.434626 0.468226 -84.489799
v -8.356197 0.468228 -83.243696
v -8.356197 17.033955 -83.243694
v -16.095136 0.468228 -82.756609
v -16.095136 17.033955 -82.756609
v -8.826188 40.638519 -84.773469
v -15.723634 40.638519 -84.339347
v -8.826188 42.366290 -84.773469
v -15.723634 42.366290 -84.339347
v -8.796815 40.638519 -84.306787
v -15.694261 40.638519 -83.872665
v -8.796815 42.366290 -84.306787
v -15.694261 42.366290 -83.872665
v -19.969054 40.638519 -84.072142
v -26.866500 40.638519 -83.638020
v -19.969054 42.366290 -84.072142
v -26.866500 42.366290 -83.638020
v -19.939681 40.638519 -83.605460
v -26.837128 40.638519 -83.171338
v -19.939681 42.366290 -83.605460
v -26.837128 42.366290 -83.171338
v -31.112906 40.638519 -83.370753
v -38.010352 40.638519 -82.936631
v -31.112906 42.366290 -83.370753
v -38.010352 42.366290 -82.936631
v -31.083533 40.638519 -82.904071
v -37.980979 40.638519 -82.469949
v -31.083533 42.366290 -82.904071
v -37.980979 42.366290 -82.469949
vt 0.005930 0.647594
vt 0.459781 0.647596
vt 0.459779 0.995232
vt 0.005928 0.995230
vt 0.994561 0.264063
vt 0.584082 0.264066
vt 0.584082 0.258142
vt 0.994561 0.258139
vt 0.583513 0.657513
vt 0.583516 0.011497
vt 0.994586 0.011498
vt 0.994579 0.657514
vt 0.994562 0.519983
vt 0.584084 0.519986
vt 0.584084 0.507603
vt 0.994562 0.507600
vt 0.481643 0.647595
vt 0.481643 0.995231
vt 0.584082 0.232334
vt 0.994561 0.232331
vt 0.994562 0.529865
vt 0.584084 0.529868
vt 0.743499 0.869841
vt 0.764414 0.869841
vt 0.764415 0.973575
vt 0.743500 0.973575
vt 0.973592 0.869841
vt 0.764414 0.848926
vt 0.973592 0.848926
vt 0.973592 0.973574
vt 0.994507 0.869840
vt 0.994508 0.973574
vt 0.764415 0.994491
vt 0.973593 0.994490
vt 0.721199 0.966735
vt 0.721198 0.693150
vt 0.737606 0.693249
vt 0.737608 0.966163
vt 0.491985 0.693053
vt 0.508393 0.693151
vt 0.508395 0.966737
vt 0.491987 0.966173
vt 0.508393 0.693151
vt 0.721198 0.693150
vt 0.721199 0.966735
vt 0.508395 0.966737
vt 0.508533 0.992524
vt 0.737608 0.992522
vt 0.748263 0.823645
vt 0.748263 0.722895
vt 0.764485 0.722895
vt 0.764486 0.823644
vt 0.979721 0.722894
vt 0.979721 0.823644
vt 0.995944 0.823644
vt 0.995943 0.722894
vt 0.583517 0.011499
vt 0.057745 0.250054
vt 0.057745 0.232635
vt 0.057746 0.011497
vt 0.055759 0.519463
vt 0.583514 0.657515
vt 0.046850 0.529359
vt 0.057744 0.507062
vt 0.031900 0.238568
vt 0.031900 0.232635
vt 0.703848 0.463323
vt 0.757104 0.320482
vt 0.757105 0.463323
vt 0.633011 0.320483
vt 0.633011 0.463324
vt 0.584082 0.250964
vt 0.703847 0.320483
vt 0.994560 0.250961
vt 0.827941 0.463322
vt 0.881197 0.463322
vt 0.952034 0.463321
vt 0.952033 0.320481
vt 0.881197 0.320482
vt 0.827940 0.320482
vt 0.508303 0.668592
vt 0.721288 0.668591
vt 0.979722 0.839866
vt 0.764486 0.839867
vt 0.764485 0.706672
vt 0.979721 0.706672
vt 0.017454 0.583669
vt 0.202822 0.583669
vt 0.202822 0.630010
vt 0.017454 0.630011
vt 0.017454 0.642553
vt 0.202822 0.642553
vt 0.004912 0.583669
vt 0.004912 0.630011
vt 0.202822 0.571127
vt 0.017454 0.571127
vt 0.215364 0.630010
vt 0.215364 0.583669
vt 0.626080 0.058648
vt 0.821298 0.058648
vt 0.866289 0.016731
vt 0.583489 0.011518
vt 0.583489 0.232665
vt 0.626080 0.201700
vt 0.994576 0.232665
vt 0.821298 0.201700
vt 0.952631 0.016731
vt 0.994576 0.011518
vt 0.952631 0.201187
vt 0.866289 0.201187
vt 0.459781 0.647596
vt 0.459779 0.995232
vt 0.743499 0.869841
vt 0.764414 0.869841
vt 0.764415 0.973575
vt 0.743500 0.973575
vt 0.973592 0.973574
vt 0.973592 0.869841
vt 0.973592 0.973574
vt 0.764415 0.973575
vt 0.764414 0.869841
vt 0.973592 0.869841
vt 0.973592 0.973574
vt 0.973592 0.869841
vt 0.994507 0.869840
vt 0.994508 0.973574
vt 0.764415 0.973575
vt 0.973592 0.973574
vt 0.764414 0.869841
vt 0.973592 0.869841
vt 0.973592 0.973574
vt 0.764415 0.973575
vt 0.583514 0.657515
vt 0.583517 0.011499
vt 0.055759 0.519463
vt 0.046850 0.529359
vt 0.583517 0.011499
vt 0.057745 0.250054
vt 0.057744 0.507062
vt 0.055759 0.519463
vt 0.057745 0.232635
vt 0.057745 0.250054
vt 0.583517 0.011499
vt 0.057746 0.011497
vt 0.057745 0.232635
vt 0.031900 0.232635
vt 0.031900 0.238568
vt 0.057745 0.250054
vt 0.973593 0.994490
vt 0.764415 0.994491
vt 0.994508 0.973574
vt 0.994507 0.869840
vt 0.764415 0.994491
vt 0.764415 0.973575
vt 0.973592 0.973574
vt 0.973593 0.994490
vt 0.764414 0.869841
vt 0.764414 0.848926
vt 0.973592 0.848926
vt 0.973592 0.869841
vt 0.973592 0.869841
vt 0.764414 0.869841
vt 0.764414 0.848926
vt 0.973592 0.848926
vt 0.764415 0.973575
vt 0.743500 0.973575
vt 0.743499 0.869841
vt 0.764414 0.869841
vt 0.017454 0.583669
vt 0.202822 0.583669
vt 0.202822 0.630010
vt 0.017454 0.630011
vt 0.017454 0.642553
vt 0.017454 0.630011
vt 0.202822 0.630010
vt 0.202822 0.642553
vt 0.004912 0.583669
vt 0.017454 0.583669
vt 0.017454 0.630011
vt 0.004912 0.630011
vt 0.202822 0.571127
vt 0.202822 0.583669
vt 0.017454 0.583669
vt 0.017454 0.571127
vt 0.215364 0.630010
vt 0.202822 0.630010
vt 0.202822 0.583669
vt 0.215364 0.583669
vt 0.017454 0.583669
vt 0.202822 0.583669
vt 0.202822 0.630010
vt 0.017454 0.630011
vt 0.017454 0.642553
vt 0.017454 0.630011
vt 0.202822 0.630010
vt 0.202822 0.642553
vt 0.004912 0.583669
vt 0.017454 0.583669
vt 0.017454 0.630011
vt 0.004912 0.630011
vt 0.202822 0.571127
vt 0.202822 0.583669
vt 0.017454 0.583669
vt 0.017454 0.571127
vt 0.215364 0.630010
vt 0.202822 0.630010
vt 0.202822 0.583669
vt 0.215364 0.583669
vn -0.014590 0.972652 -0.231809
vn -0.014590 0.972652 -0.231809
vn -0.014590 0.972652 -0.231809
vn -0.014590 0.972652 -0.231809
vn -0.062815 0.000000 -0.998025
vn -0.062815 0.000005 -0.998025
vn -0.062815 0.000000 -0.998025
vn -0.062815 0.000005 -0.998025
vn 0.062815 0.000000 0.998025
vn 0.062815 0.000000 0.998025
vn 0.062815 0.000000 0.998025
vn 0.062815 0.000000 0.998025
vn -0.062025 -0.158089 -0.985475
vn -0.062025 -0.158087 -0.985475
vn -0.062025 -0.158089 -0.985475
vn -0.062025 -0.158087 -0.985475
vn -0.025510 0.913824 -0.405310
vn -0.025510 0.913824 -0.405309
vn -0.025510 0.913824 -0.405308
vn -0.025510 0.913824 -0.405308
vn -0.000000 -1.000000 0.000000
vn -0.000000 -1.000000 -0.000000
vn -0.000000 -1.000000 -0.000001
vn -0.000000 -1.000000 -0.000001
vn -0.046685 -0.669048 -0.741751
vn -0.046685 -0.669048 -0.741752
vn -0.046685 -0.669048 -0.741751
vn -0.046685 -0.669048 -0.741752
vn -0.000000 1.000000 0.000000
vn -0.000000 1.000000 0.000000
vn -0.000000 1.000000 0.000000
vn -0.000000 1.000000 0.000000
vn 0.998025 0.000000 -0.062815
vn 0.998025 0.000000 -0.062815
vn 0.998025 0.000000 -0.062815
vn 0.998025 0.000000 -0.062815
vn -0.062815 -0.000000 -0.998025
vn -0.062815 -0.000000 -0.998025
vn -0.062815 -0.000000 -0.998025
vn -0.062815 0.000000 -0.998025
vn -0.000000 1.000000 0.000000
vn 0.000000 1.000000 0.000000
vn 0.000000 1.000000 0.000001
vn 0.000000 1.000000 0.000001
vn 0.000000 -1.000000 0.000001
vn 0.000000 -1.000000 0.000000
vn 0.000000 -1.000000 0.000000
vn 0.000000 -1.000000 0.000000
vn -0.062815 -0.000000 -0.998025
vn -0.062815 -0.000000 -0.998025
vn -0.062815 -0.000000 -0.998025
vn -0.062815 -0.000000 -0.998025
vn 0.000000 -1.000000 0.000000
vn 0.000000 -1.000000 0.000000
vn 0.000000 -1.000000 0.000000
vn 0.000000 -1.000000 0.000000
vn -0.998025 -0.000000 0.062815
vn -0.998025 -0.000000 0.062815
vn -0.998025 -0.000000 0.062815
vn -0.998025 0.000000 0.062815
vn -0.062815 0.000000 -0.998025
vn -0.062816 0.000000 -0.998025
vn -0.062815 0.000000 -0.998025
vn -0.062816 0.000000 -0.998025
vn -0.000000 1.000000 -0.000002
vn -0.000000 1.000000 -0.000001
vn -0.000000 1.000000 -0.000002
vn -0.000000 1.000000 -0.000001
vn 0.000000 -1.000000 0.000003
vn 0.000000 -1.000000 0.000003
vn 0.000000 -1.000000 0.000003
vn 0.000000 -1.000000 0.000003
vn -0.062815 0.000000 -0.998025
vn -0.062815 0.000000 -0.998025
vn -0.062815 0.000000 -0.998025
vn -0.062815 0.000000 -0.998025
vn 0.998025 -0.000000 -0.062815
vn 0.998025 -0.000000 -0.062815
vn 0.998025 -0.000000 -0.062815
vn 0.998025 0.000000 -0.062815
vn -0.000000 1.000000 -0.000002
vn -0.000000 1.000000 -0.000002
vn -0.000000 1.000000 -0.000002
vn -0.000000 1.000000 -0.000002
vn -0.062816 0.000000 -0.998025
vn -0.062816 0.000000 -0.998025
vn -0.062815 0.000000 -0.998025
vn -0.062815 0.000000 -0.998025
vn 0.000000 -1.000000 0.000003
vn 0.000000 -1.000000 0.000003
vn 0.000000 -1.000000 0.000000
vn 0.000000 -1.000000 0.000000
vn -0.998025 0.000003 0.062815
vn -0.998025 0.000000 0.062815
vn -0.998025 -0.000000 0.062815
vn -0.998025 -0.000000 0.062815
vn -0.998025 -0.000004 0.062815
vn -0.998025 -0.000000 0.062815
vn -0.998025 -0.000000 0.062815
vn -0.998025 0.000000 0.062815
vn -0.998025 0.000000 0.062815
vn -0.998025 0.000000 0.062815
vn -0.998025 0.000000 0.062815
vn -0.998025 0.000000 0.062815
vn -0.998025 0.000000 0.062815
vn -0.998025 0.000000 0.062815
vn -0.998025 0.000000 0.062815
vn -0.998025 0.000000 0.062815
vn 0.998025 -0.000001 -0.062815
vn 0.998025 -0.000000 -0.062815
vn 0.998025 -0.000000 -0.062815
vn 0.998025 0.000000 -0.062815
vn 0.998025 0.000001 -0.062815
vn 0.998025 0.000000 -0.062815
vn 0.998025 0.000000 -0.062815
vn 0.998025 0.000000 -0.062815
vn 0.998025 0.000001 -0.062815
vn 0.998025 -0.000000 -0.062815
vn 0.998025 0.000000 -0.062815
vn 0.998025 -0.000000 -0.062815
vn 0.998025 -0.000006 -0.062815
vn 0.998025 -0.000002 -0.062815
vn 0.998025 0.000000 -0.062815
vn 0.998025 0.000001 -0.062815
vn -0.998025 0.000000 0.062815
vn -0.998025 0.000000 0.062815
vn -0.998025 0.000000 0.062815
vn -0.998025 0.000000 0.062815
vn 0.000000 -1.000000 0.000000
vn 0.000000 -1.000000 0.000000
vn 0.000000 -1.000000 0.000000
vn 0.000000 -1.000000 0.000000
vn -0.998025 -0.000000 0.062816
vn -0.998025 -0.000000 0.062816
vn -0.998025 -0.000000 0.062816
vn -0.998025 0.000000 0.062816
vn 0.998025 0.000000 -0.062815
vn 0.998025 0.000000 -0.062815
vn 0.998025 0.000000 -0.062815
vn 0.998025 0.000000 -0.062815
vn -0.062815 0.000000 -0.998025
vn -0.062815 0.000000 -0.998025
vn -0.062815 0.000000 -0.998025
vn -0.062815 0.000000 -0.998025
vn -0.062815 0.000000 -0.998025
vn -0.062815 0.000000 -0.998025
vn -0.062815 0.000000 -0.998025
vn -0.062815 0.000000 -0.998025
vn -0.062815 0.000000 -0.998025
vn -0.062816 0.000000 -0.998025
vn -0.062816 0.000000 -0.998025
vn -0.062816 0.000000 -0.998025
vn -0.062815 -0.000000 -0.998025
vn -0.062815 -0.000000 -0.998025
vn -0.062815 -0.000000 -0.998025
vn -0.062815 0.000000 -0.998025
vn -0.062815 0.000000 -0.998025
vn -0.062815 0.000000 -0.998025
vn -0.062815 0.000000 -0.998025
vn -0.062815 0.000000 -0.998025
vn -0.062815 0.000000 -0.998025
vn -0.062815 0.000000 -0.998025
vn -0.062815 0.000000 -0.998025
vn -0.062815 0.000000 -0.998025
vn -0.062815 0.000000 -0.998025
vn -0.062815 0.000000 -0.998025
vn -0.062815 0.000000 -0.998025
vn -0.062815 0.000000 -0.998025
vn -0.062815 0.000000 -0.998025
vn -0.062815 0.000000 -0.998025
vn -0.062815 0.000000 -0.998025
vn -0.062815 0.000000 -0.998025
vn -0.062815 0.000000 -0.998025
vn -0.062815 0.000000 -0.998025
vn -0.062815 0.000000 -0.998025
vn -0.062815 0.000000 -0.998025
vn 0.998025 0.000000 -0.062815
vn 0.998025 0.000000 -0.062815
vn 0.998025 0.000000 -0.062815
vn 0.998025 0.000000 -0.062815
vn -0.000000 1.000000 0.000000
vn -0.000000 1.000000 0.000000
vn -0.000000 1.000000 0.000000
vn -0.000000 1.000000 0.000000
vn -0.998025 0.000000 0.062816
vn -0.998025 0.000000 0.062816
vn -0.998025 0.000000 0.062816
vn -0.998025 0.000000 0.062816
vn -0.998025 0.000000 0.062815
vn -0.998025 0.000000 0.062815
vn -0.998025 0.000000 0.062815
vn -0.998025 0.000000 0.062815
vn 0.998025 0.000000 -0.062815
vn 0.998025 0.000000 -0.062815
vn 0.998025 0.000000 -0.062815
vn 0.998025 0.000000 -0.062815
vn -0.062815 0.000000 -0.998025
vn -0.062815 0.000000 -0.998025
vn -0.062815 0.000000 -0.998025
vn -0.062815 0.000000 -0.998025
vn 0.000000 -1.000000 0.000000
vn 0.000000 -1.000000 0.000000
vn 0.000000 -1.000000 0.000000
vn 0.000000 -1.000000 0.000000
vn -0.998025 0.000000 0.062815
vn -0.998025 0.000000 0.062815
vn -0.998025 0.000000 0.062815
vn -0.998025 0.000000 0.062815
vn -0.000000 1.000000 0.000000
vn -0.000000 1.000000 0.000000
vn -0.000000 1.000000 0.000000
vn -0.000000 1.000000 0.000000
vn 0.998025 0.000000 -0.062815
vn 0.998025 0.000000 -0.062815
vn 0.998025 0.000000 -0.062815
vn 0.998025 0.000000 -0.062815
vn -0.062815 0.000000 -0.998025
vn -0.062815 0.000000 -0.998025
vn -0.062815 0.000000 -0.998025
vn -0.062815 0.000000 -0.998025
vn 0.000000 -1.000000 0.000000
vn 0.000000 -1.000000 0.000000
vn 0.000000 -1.000000 0.000000
vn 0.000000 -1.000000 0.000000
vn -0.998025 0.000000 0.062815
vn -0.998025 0.000000 0.062815
vn -0.998025 0.000000 0.062815
vn -0.998025 0.000000 0.062815
vn -0.000000 1.000000 0.000000
vn -0.000000 1.000000 0.000000
vn -0.000000 1.000000 0.000000
vn -0.000000 1.000000 0.000000
vn 0.998025 0.000000 -0.062815
vn 0.998025 0.000000 -0.062815
vn 0.998025 0.000000 -0.062815
vn 0.998025 0.000000 -0.062815
vn -0.062815 0.000000 -0.998025
vn -0.062815 0.000000 -0.998025
vn -0.062815 0.000000 -0.998025
vn -0.062815 0.000000 -0.998025
vn 0.000000 -1.000000 0.000000
vn 0.000000 -1.000000 0.000000
vn 0.000000 -1.000000 0.000000
vn 0.000000 -1.000000 0.000000
vn -0.998025 0.000000 0.062815
vn -0.998025 0.000000 0.062815
vn -0.998025 0.000000 0.062815
vn -0.998025 0.000000 0.062815
vn -0.000000 1.000000 0.000000
vn -0.000000 1.000000 0.000000
vn -0.000000 1.000000 0.000000
vn -0.000000 1.000000 0.000000
vn 0.998025 0.000000 -0.062815
vn 0.998025 0.000000 -0.062815
vn 0.998025 0.000000 -0.062815
vn 0.998025 0.000000 -0.062815
vn -0.062815 0.000000 -0.998025
vn -0.062815 0.000000 -0.998025
vn -0.062815 0.000000 -0.998025
vn -0.062815 0.000000 -0.998025
vn -0.062815 -0.000000 -0.998025
vn -0.062816 -0.000000 -0.998025
vn -0.062815 -0.000000 -0.998025
vn -0.062816 -0.000000 -0.998025
vn -0.062815 -0.000000 -0.998025
vn -0.062815 -0.000000 -0.998025
vn -0.062815 -0.000000 -0.998025
vn -0.062815 0.000000 -0.998025
vn -0.062815 0.000000 -0.998025
vn -0.062815 0.000000 -0.998025
vn -0.062815 0.000000 -0.998025
vn -0.062815 0.000000 -0.998025
vn -0.062815 -0.000000 -0.998025
vn -0.062815 -0.000000 -0.998025
vn -0.062815 -0.000000 -0.998025
vn -0.062815 -0.000000 -0.998025
vn -0.062815 -0.000000 -0.998025
vn -0.062816 0.000000 -0.998025
vn -0.062815 -0.000000 -0.998025
vn -0.062816 0.000000 -0.998025
vn -0.062814 -0.000000 -0.998025
vn -0.062815 -0.000000 -0.998025
vn -0.062816 -0.000000 -0.998025
vn -0.062816 -0.000000 -0.998025
vn -0.062815 0.000000 -0.998025
vn -0.062815 0.000000 -0.998025
vn -0.062815 0.000000 -0.998025
vn -0.062815 0.000000 -0.998025
vn -0.062815 0.000000 -0.998025
vn -0.062815 0.000000 -0.998025
s 1
g pasted__pasted__houseShop_null_ pasted__group8 group10
usemtl pasted__pasted__lambert18SG
f 8/1/1 5/2/2 7/4/3
f 7/4/3 5/2/2 6/3/4
s 2
f 9/5/5 10/6/6 12/8/7
f 12/8/7 10/6/6 11/7/8
s 3
f 7/9/9 3/10/10 8/12/11
f 8/12/11 3/10/10 2/11/12
s 4
f 13/13/13 20/14/14 14/16/15
f 14/16/15 20/14/14 19/15/16
s 5
f 9/111/17 15/17/18 10/112/19
f 10/112/19 15/17/18 18/18/20
s 6
f 11/7/21 17/19/22 12/8/23
f 12/8/23 17/19/22 16/20/24
s 7
f 6/21/25 5/22/26 13/13/27
f 13/13/27 5/22/26 20/14/28
s 8
f 21/23/29 27/24/30 22/26/31
f 22/26/31 27/24/30 26/25/32
s 9
f 28/27/33 27/24/34 23/29/35
f 23/29/35 27/24/34 21/28/36
s 10
f 25/30/37 26/25/38 28/27/39
f 28/27/39 26/25/38 27/24/40
s 11
f 29/113/41 35/114/42 32/116/43
f 32/116/43 35/114/42 33/115/44
s 12
f 34/117/45 36/118/46 31/32/47
f 31/32/47 36/118/46 30/31/48
s 13
f 34/119/49 33/120/50 36/122/51
f 36/122/51 33/120/50 35/121/52
s 14
f 43/123/53 42/124/54 40/126/55
f 40/126/55 42/124/54 39/125/56
s 15
f 38/33/57 44/127/58 40/34/59
f 40/34/59 44/127/58 43/128/60
s 16
f 41/129/61 42/130/62 44/132/63
f 44/132/63 42/130/62 43/131/64
s 17
f 52/35/65 47/36/66 50/38/67
f 50/38/67 47/36/66 46/37/68
s 18
f 45/39/69 48/40/70 49/42/71
f 49/42/71 48/40/70 51/41/72
s 19
f 48/43/73 47/44/74 51/46/75
f 51/46/75 47/44/74 52/45/76
s 20
f 49/47/77 51/46/78 50/48/79
f 50/48/79 51/46/78 52/45/80
s 21
f 56/49/81 55/50/82 57/52/83
f 57/52/83 55/50/82 59/51/84
s 22
f 57/52/85 59/51/86 58/54/87
f 58/54/87 59/51/86 60/53/88
s 23
f 54/55/89 58/54/90 53/56/91
f 53/56/91 58/54/90 60/53/92
s 24
f 15/58/93 16/59/94 3/57/95
f 3/57/95 16/59/94 4/60/96
s 25
f 6/63/97 13/61/98 7/62/99
f 13/61/98 3/57/100 7/62/99
s 26
f 13/61/101 14/64/102 3/57/103
f 14/64/102 15/58/104 3/57/103
s 27
f 12/66/105 16/59/106 9/65/107
f 9/65/107 16/59/106 15/58/108
s 28
f 5/136/109 8/133/110 20/135/111
f 8/133/110 2/134/112 20/135/111
s 29
f 20/140/113 2/137/114 19/139/115
f 2/137/114 18/138/116 19/139/115
s 30
f 18/142/117 2/143/118 17/141/119
f 17/141/119 2/143/118 1/144/120
s 31
f 11/146/121 10/147/122 17/145/123
f 17/145/123 10/147/122 18/148/124
s 32
f 24/149/125 22/150/126 25/30/127
f 25/30/127 22/150/126 26/25/128
s 33
f 24/151/129 25/30/130 23/152/131
f 23/152/131 25/30/130 28/27/132
s 34
f 32/153/133 33/154/134 31/156/135
f 31/156/135 33/154/134 34/155/136
s 35
f 35/157/137 29/158/138 36/160/139
f 36/160/139 29/158/138 30/159/140
s 36
f 32/68/141 31/69/142 39/67/143
f 39/67/143 31/69/142 19/15/144
s 37
f 38/70/145 40/71/146 19/15/147
f 19/15/147 40/71/146 39/67/148
s 38
f 37/73/149 38/70/150 18/72/151
f 18/72/151 38/70/150 19/15/152
s 39
f 15/74/153 32/68/154 18/72/155
f 32/68/154 37/73/156 18/72/155
s 40
f 24/76/157 19/15/158 30/75/159
f 30/75/159 19/15/158 31/69/160
s 41
f 23/77/161 14/16/162 24/76/163
f 24/76/163 14/16/162 19/15/164
s 42
f 23/77/165 21/78/166 14/16/167
f 14/16/167 21/78/166 15/74/168
s 43
f 29/80/169 15/74/170 22/79/171
f 22/79/171 15/74/170 21/78/172
s 44
f 30/75/173 29/80/174 24/76/175
f 24/76/175 29/80/174 22/79/176
s 45
f 42/161/177 41/162/178 39/164/179
f 39/164/179 41/162/178 37/163/180
s 46
f 44/165/181 38/166/182 41/168/183
f 41/168/183 38/166/182 37/167/184
s 47
f 48/43/185 45/81/186 47/44/187
f 47/44/187 45/81/186 46/82/188
s 48
f 58/54/189 54/83/190 57/52/191
f 57/52/191 54/83/190 56/84/192
s 49
f 55/85/193 53/86/194 59/51/195
f 59/51/195 53/86/194 60/53/196
s 50
f 64/87/197 63/88/198 62/90/199
f 62/90/199 63/88/198 61/89/200
s 51
f 66/91/201 62/90/202 65/92/203
f 65/92/203 62/90/202 61/89/204
s 52
f 68/93/205 64/87/206 66/94/207
f 66/94/207 64/87/206 62/90/208
s 53
f 67/95/209 63/88/210 68/96/211
f 68/96/211 63/88/210 64/87/212
s 54
f 65/97/213 61/89/214 67/98/215
f 67/98/215 61/89/214 63/88/216
s 55
f 72/169/217 71/170/218 70/172/219
f 70/172/219 71/170/218 69/171/220
s 56
f 74/173/221 70/174/222 73/176/223
f 73/176/223 70/174/222 69/175/224
s 57
f 76/177/225 72/178/226 74/180/227
f 74/180/227 72/178/226 70/179/228
s 58
f 75/181/229 71/182/230 76/184/231
f 76/184/231 71/182/230 72/183/232
s 59
f 73/185/233 69/186/234 75/188/235
f 75/188/235 69/186/234 71/187/236
s 60
f 80/189/237 79/190/238 78/192/239
f 78/192/239 79/190/238 77/191/240
s 61
f 82/193/241 78/194/242 81/196/243
f 81/196/243 78/194/242 77/195/244
s 62
f 84/197/245 80/198/246 82/200/247
f 82/200/247 80/198/246 78/199/248
s 63
f 83/201/249 79/202/250 84/204/251
f 84/204/251 79/202/250 80/203/252
s 64
f 81/205/253 77/206/254 83/208/255
f 83/208/255 77/206/254 79/207/256
s 65
f 50/99/257 46/100/258 4/102/259
f 4/102/259 46/100/258 55/101/260
s 66
f 4/102/261 16/103/262 50/99/263
f 50/99/263 16/103/262 49/104/264
s 67
f 17/105/265 45/106/266 16/103/267
f 16/103/267 45/106/266 49/104/268
s 68
f 56/107/269 1/108/270 55/101/271
f 55/101/271 1/108/270 4/102/272
s 69
f 17/105/273 1/108/274 54/109/275
f 54/109/275 1/108/274 56/107/276
s 70
f 45/106/277 17/105/278 53/110/279
f 53/110/279 17/105/278 54/109/280
s 71
f 45/106/281 53/110/282 46/100/283
f 46/100/283 53/110/282 55/101/284
s off
f 15/74/285 29/80/286 32/68/287
f 37/73/288 32/68/289 39/67/290
