# This file uses centimeters as units for non-parametric coordinates.

mtllib house13.mtl
g default
v 17.727350 -0.000000 -119.098984
v 15.630164 -0.000000 -159.143000
v 46.938217 -0.000000 -160.782662
v 49.035403 -0.000000 -120.738650
v 17.770804 39.495707 -118.269272
v 49.078857 39.495707 -119.908935
v 46.938217 49.269652 -160.782662
v 15.630164 49.269652 -159.143000
v 49.138494 17.318007 -118.770220
v 17.830441 17.318007 -117.130554
v 17.830441 16.865527 -117.130552
v 49.138494 16.865527 -118.770220
v 49.043323 38.740958 -120.587433
v 49.035403 37.795158 -120.738650
v 49.035403 18.193992 -120.738650
v 49.035404 16.865526 -120.738649
v 17.727350 16.865526 -119.098981
v 17.727350 18.193992 -119.098982
v 17.727350 37.795158 -119.098984
v 17.735270 38.740958 -118.947768
v 45.791725 23.503662 -120.568772
v 40.388868 23.503662 -120.285813
v 45.791725 34.413334 -120.568772
v 40.388868 34.413334 -120.285813
v 40.331818 34.413334 -121.375148
v 40.331818 23.503662 -121.375150
v 45.734674 23.503662 -121.658107
v 45.734674 34.413334 -121.658107
v 36.326888 23.503662 -120.073079
v 36.326888 34.413334 -120.073079
v 30.924033 34.413334 -119.790121
v 30.924033 23.503662 -119.790120
v 30.866982 23.503662 -120.879458
v 30.866982 34.413334 -120.879455
v 36.269838 23.503662 -121.162416
v 36.269838 34.413334 -121.162414
v 26.862054 23.503662 -119.577385
v 21.459197 23.503662 -119.294427
v 26.862053 34.413334 -119.577387
v 21.459197 34.413334 -119.294428
v 26.805003 23.503662 -120.666723
v 26.805003 34.413334 -120.666723
v 21.402146 34.413334 -120.383763
v 21.402146 23.503662 -120.383763
v 30.924033 14.504024 -119.790120
v 30.924033 3.594353 -119.790121
v 30.866982 3.594355 -120.879458
v 30.866982 14.504026 -120.879458
v 45.791725 14.504024 -120.568771
v 45.791725 3.594353 -120.568772
v 45.734674 14.504026 -121.658109
v 45.734674 3.594355 -121.658107
v 27.497576 14.464875 -119.610669
v 20.921838 14.464875 -119.266283
v 27.497575 0.397607 -119.610670
v 20.921838 0.397607 -119.266285
v 20.866386 0.397609 -120.325093
v 20.866386 14.464878 -120.325095
v 27.442123 0.397609 -120.669480
v 27.442123 14.464878 -120.669480
v 21.251789 34.509379 -119.021911
v 27.112514 34.509379 -119.328849
v 21.251789 35.976566 -119.021911
v 27.112514 35.976566 -119.328849
v 21.231021 34.509379 -119.418448
v 27.091746 34.509379 -119.725386
v 21.231021 35.976566 -119.418448
v 27.091746 35.976566 -119.725386
v 30.719826 34.509379 -119.517771
v 36.580550 34.509379 -119.824709
v 30.719826 35.976566 -119.517771
v 36.580550 35.976566 -119.824709
v 30.699058 34.509379 -119.914308
v 36.559783 34.509379 -120.221246
v 30.699058 35.976566 -119.914308
v 36.559783 35.976566 -120.221246
v 40.188699 34.509379 -120.013675
v 46.049424 34.509379 -120.320613
v 40.188699 35.976566 -120.013675
v 46.049424 35.976566 -120.320613
v 40.167932 34.509379 -120.410212
v 46.028656 34.509379 -120.717150
v 40.167932 35.976566 -120.410212
v 46.028656 35.976566 -120.717150
vt 0.005930 0.647594
vt 0.459781 0.647596
vt 0.459779 0.995232
vt 0.005928 0.995230
vt 0.994561 0.264063
vt 0.584082 0.264066
vt 0.584082 0.258142
vt 0.994561 0.258139
vt 0.583513 0.657513
vt 0.583516 0.011497
vt 0.994586 0.011498
vt 0.994579 0.657514
vt 0.994562 0.519983
vt 0.584084 0.519986
vt 0.584084 0.507603
vt 0.994562 0.507600
vt 0.481643 0.647595
vt 0.481643 0.995231
vt 0.584082 0.232334
vt 0.994561 0.232331
vt 0.994562 0.529865
vt 0.584084 0.529868
vt 0.743499 0.869841
vt 0.764414 0.869841
vt 0.764415 0.973575
vt 0.743500 0.973575
vt 0.973592 0.869841
vt 0.764414 0.848926
vt 0.973592 0.848926
vt 0.973592 0.973574
vt 0.994507 0.869840
vt 0.994508 0.973574
vt 0.764415 0.994491
vt 0.973593 0.994490
vt 0.721199 0.966735
vt 0.721198 0.693150
vt 0.737606 0.693249
vt 0.737608 0.966163
vt 0.491985 0.693053
vt 0.508393 0.693151
vt 0.508395 0.966737
vt 0.491987 0.966173
vt 0.508393 0.693151
vt 0.721198 0.693150
vt 0.721199 0.966735
vt 0.508395 0.966737
vt 0.508533 0.992524
vt 0.737608 0.992522
vt 0.748263 0.823645
vt 0.748263 0.722895
vt 0.764485 0.722895
vt 0.764486 0.823644
vt 0.979721 0.722894
vt 0.979721 0.823644
vt 0.995944 0.823644
vt 0.995943 0.722894
vt 0.583517 0.011499
vt 0.057745 0.250054
vt 0.057745 0.232635
vt 0.057746 0.011497
vt 0.055759 0.519463
vt 0.583514 0.657515
vt 0.046850 0.529359
vt 0.057744 0.507062
vt 0.031900 0.238568
vt 0.031900 0.232635
vt 0.703848 0.463323
vt 0.757104 0.320482
vt 0.757105 0.463323
vt 0.633011 0.320483
vt 0.633011 0.463324
vt 0.584082 0.250964
vt 0.703847 0.320483
vt 0.994560 0.250961
vt 0.827941 0.463322
vt 0.881197 0.463322
vt 0.952034 0.463321
vt 0.952033 0.320481
vt 0.881197 0.320482
vt 0.827940 0.320482
vt 0.508303 0.668592
vt 0.721288 0.668591
vt 0.979722 0.839866
vt 0.764486 0.839867
vt 0.764485 0.706672
vt 0.979721 0.706672
vt 0.017454 0.583669
vt 0.202822 0.583669
vt 0.202822 0.630010
vt 0.017454 0.630011
vt 0.017454 0.642553
vt 0.202822 0.642553
vt 0.004912 0.583669
vt 0.004912 0.630011
vt 0.202822 0.571127
vt 0.017454 0.571127
vt 0.215364 0.630010
vt 0.215364 0.583669
vt 0.626080 0.058648
vt 0.821298 0.058648
vt 0.866289 0.016731
vt 0.583489 0.011518
vt 0.583489 0.232665
vt 0.626080 0.201700
vt 0.994576 0.232665
vt 0.821298 0.201700
vt 0.952631 0.016731
vt 0.994576 0.011518
vt 0.952631 0.201187
vt 0.866289 0.201187
vt 0.459781 0.647596
vt 0.459779 0.995232
vt 0.743499 0.869841
vt 0.764414 0.869841
vt 0.764415 0.973575
vt 0.743500 0.973575
vt 0.973592 0.973574
vt 0.973592 0.869841
vt 0.973592 0.973574
vt 0.764415 0.973575
vt 0.764414 0.869841
vt 0.973592 0.869841
vt 0.973592 0.973574
vt 0.973592 0.869841
vt 0.994507 0.869840
vt 0.994508 0.973574
vt 0.764415 0.973575
vt 0.973592 0.973574
vt 0.764414 0.869841
vt 0.973592 0.869841
vt 0.973592 0.973574
vt 0.764415 0.973575
vt 0.583514 0.657515
vt 0.583517 0.011499
vt 0.055759 0.519463
vt 0.046850 0.529359
vt 0.583517 0.011499
vt 0.057745 0.250054
vt 0.057744 0.507062
vt 0.055759 0.519463
vt 0.057745 0.232635
vt 0.057745 0.250054
vt 0.583517 0.011499
vt 0.057746 0.011497
vt 0.057745 0.232635
vt 0.031900 0.232635
vt 0.031900 0.238568
vt 0.057745 0.250054
vt 0.973593 0.994490
vt 0.764415 0.994491
vt 0.994508 0.973574
vt 0.994507 0.869840
vt 0.764415 0.994491
vt 0.764415 0.973575
vt 0.973592 0.973574
vt 0.973593 0.994490
vt 0.764414 0.869841
vt 0.764414 0.848926
vt 0.973592 0.848926
vt 0.973592 0.869841
vt 0.973592 0.869841
vt 0.764414 0.869841
vt 0.764414 0.848926
vt 0.973592 0.848926
vt 0.764415 0.973575
vt 0.743500 0.973575
vt 0.743499 0.869841
vt 0.764414 0.869841
vt 0.017454 0.583669
vt 0.202822 0.583669
vt 0.202822 0.630010
vt 0.017454 0.630011
vt 0.017454 0.642553
vt 0.017454 0.630011
vt 0.202822 0.630010
vt 0.202822 0.642553
vt 0.004912 0.583669
vt 0.017454 0.583669
vt 0.017454 0.630011
vt 0.004912 0.630011
vt 0.202822 0.571127
vt 0.202822 0.583669
vt 0.017454 0.583669
vt 0.017454 0.571127
vt 0.215364 0.630010
vt 0.202822 0.630010
vt 0.202822 0.583669
vt 0.215364 0.583669
vt 0.017454 0.583669
vt 0.202822 0.583669
vt 0.202822 0.630010
vt 0.017454 0.630011
vt 0.017454 0.642553
vt 0.017454 0.630011
vt 0.202822 0.630010
vt 0.202822 0.642553
vt 0.004912 0.583669
vt 0.017454 0.583669
vt 0.017454 0.630011
vt 0.004912 0.630011
vt 0.202822 0.571127
vt 0.202822 0.583669
vt 0.017454 0.583669
vt 0.017454 0.571127
vt 0.215364 0.630010
vt 0.202822 0.630010
vt 0.202822 0.583669
vt 0.215364 0.583669
vn 0.012148 0.972652 0.231950
vn 0.012148 0.972652 0.231950
vn 0.012148 0.972652 0.231950
vn 0.012148 0.972652 0.231949
vn 0.052300 0.000000 0.998631
vn 0.052300 0.000005 0.998631
vn 0.052300 0.000000 0.998631
vn 0.052300 0.000005 0.998631
vn -0.052300 0.000000 -0.998631
vn -0.052300 0.000000 -0.998631
vn -0.052300 0.000000 -0.998631
vn -0.052300 0.000000 -0.998631
vn 0.051642 -0.158089 0.986073
vn 0.051643 -0.158087 0.986074
vn 0.051642 -0.158089 0.986073
vn 0.051643 -0.158087 0.986074
vn 0.021240 0.913823 0.405556
vn 0.021240 0.913823 0.405556
vn 0.021240 0.913824 0.405554
vn 0.021240 0.913824 0.405554
vn 0.000000 -1.000000 -0.000000
vn 0.000000 -1.000000 0.000000
vn 0.000000 -1.000000 0.000001
vn 0.000000 -1.000000 0.000001
vn 0.038871 -0.669048 0.742202
vn 0.038871 -0.669048 0.742202
vn 0.038871 -0.669048 0.742202
vn 0.038871 -0.669048 0.742202
vn 0.000000 1.000000 0.000000
vn 0.000000 1.000000 0.000000
vn 0.000000 1.000000 0.000000
vn 0.000000 1.000000 0.000000
vn -0.998631 0.000000 0.052300
vn -0.998631 0.000000 0.052300
vn -0.998631 0.000000 0.052300
vn -0.998631 0.000000 0.052300
vn 0.052300 -0.000000 0.998631
vn 0.052300 -0.000000 0.998631
vn 0.052300 -0.000000 0.998631
vn 0.052300 0.000000 0.998631
vn 0.000000 1.000000 0.000000
vn -0.000000 1.000000 -0.000000
vn -0.000000 1.000000 -0.000001
vn -0.000000 1.000000 -0.000001
vn -0.000000 -1.000000 -0.000001
vn -0.000000 -1.000000 -0.000000
vn -0.000000 -1.000000 -0.000000
vn 0.000000 -1.000000 0.000000
vn 0.052300 -0.000000 0.998631
vn 0.052300 -0.000000 0.998631
vn 0.052300 -0.000000 0.998631
vn 0.052300 -0.000000 0.998631
vn 0.000000 -1.000000 0.000000
vn 0.000000 -1.000000 0.000000
vn 0.000000 -1.000000 0.000000
vn 0.000000 -1.000000 0.000000
vn 0.998631 -0.000000 -0.052300
vn 0.998631 -0.000000 -0.052300
vn 0.998631 -0.000000 -0.052300
vn 0.998631 0.000000 -0.052300
vn 0.052300 0.000000 0.998631
vn 0.052301 0.000000 0.998631
vn 0.052301 0.000000 0.998631
vn 0.052301 0.000000 0.998631
vn 0.000000 1.000000 0.000002
vn 0.000000 1.000000 0.000001
vn 0.000000 1.000000 0.000002
vn 0.000000 1.000000 0.000001
vn -0.000000 -1.000000 -0.000003
vn -0.000000 -1.000000 -0.000003
vn -0.000000 -1.000000 -0.000003
vn -0.000000 -1.000000 -0.000003
vn 0.052300 0.000000 0.998631
vn 0.052300 0.000000 0.998631
vn 0.052300 0.000000 0.998631
vn 0.052300 0.000000 0.998631
vn -0.998631 -0.000000 0.052300
vn -0.998631 -0.000000 0.052300
vn -0.998631 -0.000000 0.052300
vn -0.998631 0.000000 0.052300
vn 0.000000 1.000000 0.000002
vn 0.000000 1.000000 0.000002
vn 0.000000 1.000000 0.000002
vn 0.000000 1.000000 0.000002
vn 0.052301 0.000000 0.998631
vn 0.052301 0.000000 0.998631
vn 0.052300 0.000000 0.998631
vn 0.052300 0.000000 0.998631
vn -0.000000 -1.000000 -0.000003
vn -0.000000 -1.000000 -0.000003
vn -0.000000 -1.000000 -0.000000
vn 0.000000 -1.000000 0.000000
vn 0.998631 0.000003 -0.052300
vn 0.998631 0.000000 -0.052300
vn 0.998631 -0.000000 -0.052300
vn 0.998631 -0.000000 -0.052300
vn 0.998631 -0.000004 -0.052300
vn 0.998631 -0.000000 -0.052300
vn 0.998631 -0.000000 -0.052300
vn 0.998631 0.000000 -0.052300
vn 0.998631 0.000000 -0.052300
vn 0.998631 0.000000 -0.052300
vn 0.998631 0.000000 -0.052300
vn 0.998631 0.000000 -0.052300
vn 0.998631 0.000000 -0.052300
vn 0.998631 0.000000 -0.052300
vn 0.998631 0.000000 -0.052300
vn 0.998631 0.000000 -0.052300
vn -0.998631 -0.000001 0.052300
vn -0.998631 -0.000000 0.052300
vn -0.998631 -0.000000 0.052300
vn -0.998631 0.000000 0.052300
vn -0.998631 0.000001 0.052300
vn -0.998631 0.000000 0.052300
vn -0.998631 0.000000 0.052300
vn -0.998631 0.000000 0.052300
vn -0.998631 0.000001 0.052300
vn -0.998631 -0.000000 0.052300
vn -0.998631 0.000000 0.052300
vn -0.998631 -0.000000 0.052300
vn -0.998631 -0.000006 0.052300
vn -0.998631 -0.000002 0.052300
vn -0.998631 0.000000 0.052300
vn -0.998631 0.000001 0.052300
vn 0.998631 0.000000 -0.052300
vn 0.998631 0.000000 -0.052300
vn 0.998631 0.000000 -0.052300
vn 0.998631 0.000000 -0.052300
vn 0.000000 -1.000000 0.000000
vn 0.000000 -1.000000 0.000000
vn 0.000000 -1.000000 0.000000
vn 0.000000 -1.000000 0.000000
vn 0.998631 -0.000000 -0.052301
vn 0.998631 -0.000000 -0.052301
vn 0.998631 -0.000000 -0.052301
vn 0.998631 0.000000 -0.052301
vn -0.998631 0.000000 0.052300
vn -0.998631 0.000000 0.052300
vn -0.998631 0.000000 0.052300
vn -0.998631 0.000000 0.052300
vn 0.052300 0.000000 0.998631
vn 0.052300 0.000000 0.998631
vn 0.052300 0.000000 0.998631
vn 0.052300 0.000000 0.998631
vn 0.052300 0.000000 0.998631
vn 0.052300 0.000000 0.998631
vn 0.052300 0.000000 0.998631
vn 0.052300 0.000000 0.998631
vn 0.052300 0.000000 0.998631
vn 0.052301 0.000000 0.998631
vn 0.052301 0.000000 0.998631
vn 0.052301 0.000000 0.998631
vn 0.052300 -0.000000 0.998631
vn 0.052300 -0.000000 0.998631
vn 0.052300 -0.000000 0.998631
vn 0.052300 0.000000 0.998631
vn 0.052300 0.000000 0.998631
vn 0.052300 0.000000 0.998631
vn 0.052300 0.000000 0.998631
vn 0.052300 0.000000 0.998631
vn 0.052300 0.000000 0.998631
vn 0.052300 0.000000 0.998631
vn 0.052300 0.000000 0.998631
vn 0.052300 0.000000 0.998631
vn 0.052300 0.000000 0.998631
vn 0.052300 0.000000 0.998631
vn 0.052300 0.000000 0.998631
vn 0.052300 0.000000 0.998631
vn 0.052300 0.000000 0.998631
vn 0.052300 0.000000 0.998631
vn 0.052300 0.000000 0.998631
vn 0.052300 0.000000 0.998631
vn 0.052300 0.000000 0.998631
vn 0.052300 0.000000 0.998631
vn 0.052300 0.000000 0.998631
vn 0.052300 0.000000 0.998631
vn -0.998631 0.000000 0.052300
vn -0.998631 0.000000 0.052300
vn -0.998631 0.000000 0.052300
vn -0.998631 0.000000 0.052300
vn 0.000000 1.000000 0.000000
vn 0.000000 1.000000 0.000000
vn 0.000000 1.000000 0.000000
vn 0.000000 1.000000 0.000000
vn 0.998631 0.000000 -0.052301
vn 0.998631 0.000000 -0.052301
vn 0.998631 0.000000 -0.052301
vn 0.998631 0.000000 -0.052301
vn 0.998631 0.000000 -0.052300
vn 0.998631 0.000000 -0.052300
vn 0.998631 0.000000 -0.052300
vn 0.998631 0.000000 -0.052300
vn -0.998631 0.000000 0.052300
vn -0.998631 0.000000 0.052300
vn -0.998631 0.000000 0.052300
vn -0.998631 0.000000 0.052300
vn 0.052300 0.000000 0.998631
vn 0.052300 0.000000 0.998631
vn 0.052300 0.000000 0.998631
vn 0.052300 0.000000 0.998631
vn 0.000000 -1.000000 0.000000
vn 0.000000 -1.000000 0.000000
vn 0.000000 -1.000000 0.000000
vn 0.000000 -1.000000 0.000000
vn 0.998631 0.000000 -0.052300
vn 0.998631 0.000000 -0.052300
vn 0.998631 0.000000 -0.052300
vn 0.998631 0.000000 -0.052300
vn 0.000000 1.000000 0.000000
vn 0.000000 1.000000 0.000000
vn 0.000000 1.000000 0.000000
vn 0.000000 1.000000 0.000000
vn -0.998631 0.000000 0.052300
vn -0.998631 0.000000 0.052300
vn -0.998631 0.000000 0.052300
vn -0.998631 0.000000 0.052300
vn 0.052300 0.000000 0.998631
vn 0.052300 0.000000 0.998631
vn 0.052300 0.000000 0.998631
vn 0.052300 0.000000 0.998631
vn 0.000000 -1.000000 0.000000
vn 0.000000 -1.000000 0.000000
vn 0.000000 -1.000000 0.000000
vn 0.000000 -1.000000 0.000000
vn 0.998631 0.000000 -0.052300
vn 0.998631 0.000000 -0.052300
vn 0.998631 0.000000 -0.052300
vn 0.998631 0.000000 -0.052300
vn 0.000000 1.000000 0.000000
vn 0.000000 1.000000 0.000000
vn 0.000000 1.000000 0.000000
vn 0.000000 1.000000 0.000000
vn -0.998631 0.000000 0.052300
vn -0.998631 0.000000 0.052300
vn -0.998631 0.000000 0.052300
vn -0.998631 0.000000 0.052300
vn 0.052300 0.000000 0.998631
vn 0.052300 0.000000 0.998631
vn 0.052300 0.000000 0.998631
vn 0.052300 0.000000 0.998631
vn 0.000000 -1.000000 0.000000
vn 0.000000 -1.000000 0.000000
vn 0.000000 -1.000000 0.000000
vn 0.000000 -1.000000 0.000000
vn 0.998631 0.000000 -0.052300
vn 0.998631 0.000000 -0.052300
vn 0.998631 0.000000 -0.052300
vn 0.998631 0.000000 -0.052300
vn 0.000000 1.000000 0.000000
vn 0.000000 1.000000 0.000000
vn 0.000000 1.000000 0.000000
vn 0.000000 1.000000 0.000000
vn -0.998631 0.000000 0.052300
vn -0.998631 0.000000 0.052300
vn -0.998631 0.000000 0.052300
vn -0.998631 0.000000 0.052300
vn 0.052300 0.000000 0.998631
vn 0.052300 0.000000 0.998631
vn 0.052300 0.000000 0.998631
vn 0.052300 0.000000 0.998631
vn 0.052300 -0.000000 0.998631
vn 0.052301 -0.000000 0.998631
vn 0.052300 -0.000000 0.998631
vn 0.052302 -0.000000 0.998631
vn 0.052300 -0.000000 0.998631
vn 0.052300 -0.000000 0.998631
vn 0.052300 -0.000000 0.998631
vn 0.052300 0.000000 0.998631
vn 0.052300 0.000000 0.998631
vn 0.052300 0.000000 0.998631
vn 0.052300 0.000000 0.998631
vn 0.052300 0.000000 0.998631
vn 0.052300 -0.000000 0.998631
vn 0.052300 -0.000000 0.998631
vn 0.052300 -0.000000 0.998631
vn 0.052300 -0.000000 0.998631
vn 0.052300 -0.000000 0.998631
vn 0.052301 0.000000 0.998631
vn 0.052300 -0.000000 0.998631
vn 0.052301 0.000000 0.998631
vn 0.052299 -0.000000 0.998631
vn 0.052300 -0.000000 0.998631
vn 0.052301 -0.000000 0.998631
vn 0.052301 -0.000000 0.998631
vn 0.052300 0.000000 0.998631
vn 0.052300 0.000000 0.998631
vn 0.052300 0.000000 0.998631
vn 0.052300 0.000000 0.998631
vn 0.052300 0.000000 0.998631
vn 0.052300 0.000000 0.998631
s 1
g pasted__pasted__pasted__houseShop_null_ pasted__pasted__group8 pasted__group10 group13
usemtl pasted__pasted__pasted__lambert18SG
f 8/1/1 5/2/2 7/4/3
f 7/4/3 5/2/2 6/3/4
s 2
f 9/5/5 10/6/6 12/8/7
f 12/8/7 10/6/6 11/7/8
s 3
f 7/9/9 3/10/10 8/12/11
f 8/12/11 3/10/10 2/11/12
s 4
f 13/13/13 20/14/14 14/16/15
f 14/16/15 20/14/14 19/15/16
s 5
f 9/111/17 15/17/18 10/112/19
f 10/112/19 15/17/18 18/18/20
s 6
f 11/7/21 17/19/22 12/8/23
f 12/8/23 17/19/22 16/20/24
s 7
f 6/21/25 5/22/26 13/13/27
f 13/13/27 5/22/26 20/14/28
s 8
f 21/23/29 27/24/30 22/26/31
f 22/26/31 27/24/30 26/25/32
s 9
f 28/27/33 27/24/34 23/29/35
f 23/29/35 27/24/34 21/28/36
s 10
f 25/30/37 26/25/38 28/27/39
f 28/27/39 26/25/38 27/24/40
s 11
f 29/113/41 35/114/42 32/116/43
f 32/116/43 35/114/42 33/115/44
s 12
f 34/117/45 36/118/46 31/32/47
f 31/32/47 36/118/46 30/31/48
s 13
f 34/119/49 33/120/50 36/122/51
f 36/122/51 33/120/50 35/121/52
s 14
f 43/123/53 42/124/54 40/126/55
f 40/126/55 42/124/54 39/125/56
s 15
f 38/33/57 44/127/58 40/34/59
f 40/34/59 44/127/58 43/128/60
s 16
f 41/129/61 42/130/62 44/132/63
f 44/132/63 42/130/62 43/131/64
s 17
f 52/35/65 47/36/66 50/38/67
f 50/38/67 47/36/66 46/37/68
s 18
f 45/39/69 48/40/70 49/42/71
f 49/42/71 48/40/70 51/41/72
s 19
f 48/43/73 47/44/74 51/46/75
f 51/46/75 47/44/74 52/45/76
s 20
f 49/47/77 51/46/78 50/48/79
f 50/48/79 51/46/78 52/45/80
s 21
f 56/49/81 55/50/82 57/52/83
f 57/52/83 55/50/82 59/51/84
s 22
f 57/52/85 59/51/86 58/54/87
f 58/54/87 59/51/86 60/53/88
s 23
f 54/55/89 58/54/90 53/56/91
f 53/56/91 58/54/90 60/53/92
s 24
f 15/58/93 16/59/94 3/57/95
f 3/57/95 16/59/94 4/60/96
s 25
f 6/63/97 13/61/98 7/62/99
f 13/61/98 3/57/100 7/62/99
s 26
f 13/61/101 14/64/102 3/57/103
f 14/64/102 15/58/104 3/57/103
s 27
f 12/66/105 16/59/106 9/65/107
f 9/65/107 16/59/106 15/58/108
s 28
f 5/136/109 8/133/110 20/135/111
f 8/133/110 2/134/112 20/135/111
s 29
f 20/140/113 2/137/114 19/139/115
f 2/137/114 18/138/116 19/139/115
s 30
f 18/142/117 2/143/118 17/141/119
f 17/141/119 2/143/118 1/144/120
s 31
f 11/146/121 10/147/122 17/145/123
f 17/145/123 10/147/122 18/148/124
s 32
f 24/149/125 22/150/126 25/30/127
f 25/30/127 22/150/126 26/25/128
s 33
f 24/151/129 25/30/130 23/152/131
f 23/152/131 25/30/130 28/27/132
s 34
f 32/153/133 33/154/134 31/156/135
f 31/156/135 33/154/134 34/155/136
s 35
f 35/157/137 29/158/138 36/160/139
f 36/160/139 29/158/138 30/159/140
s 36
f 32/68/141 31/69/142 39/67/143
f 39/67/143 31/69/142 19/15/144
s 37
f 38/70/145 40/71/146 19/15/147
f 19/15/147 40/71/146 39/67/148
s 38
f 37/73/149 38/70/150 18/72/151
f 18/72/151 38/70/150 19/15/152
s 39
f 15/74/153 32/68/154 18/72/155
f 32/68/154 37/73/156 18/72/155
s 40
f 24/76/157 19/15/158 30/75/159
f 30/75/159 19/15/158 31/69/160
s 41
f 23/77/161 14/16/162 24/76/163
f 24/76/163 14/16/162 19/15/164
s 42
f 23/77/165 21/78/166 14/16/167
f 14/16/167 21/78/166 15/74/168
s 43
f 29/80/169 15/74/170 22/79/171
f 22/79/171 15/74/170 21/78/172
s 44
f 30/75/173 29/80/174 24/76/175
f 24/76/175 29/80/174 22/79/176
s 45
f 42/161/177 41/162/178 39/164/179
f 39/164/179 41/162/178 37/163/180
s 46
f 44/165/181 38/166/182 41/168/183
f 41/168/183 38/166/182 37/167/184
s 47
f 48/43/185 45/81/186 47/44/187
f 47/44/187 45/81/186 46/82/188
s 48
f 58/54/189 54/83/190 57/52/191
f 57/52/191 54/83/190 56/84/192
s 49
f 55/85/193 53/86/194 59/51/195
f 59/51/195 53/86/194 60/53/196
s 50
f 64/87/197 63/88/198 62/90/199
f 62/90/199 63/88/198 61/89/200
s 51
f 66/91/201 62/90/202 65/92/203
f 65/92/203 62/90/202 61/89/204
s 52
f 68/93/205 64/87/206 66/94/207
f 66/94/207 64/87/206 62/90/208
s 53
f 67/95/209 63/88/210 68/96/211
f 68/96/211 63/88/210 64/87/212
s 54
f 65/97/213 61/89/214 67/98/215
f 67/98/215 61/89/214 63/88/216
s 55
f 72/169/217 71/170/218 70/172/219
f 70/172/219 71/170/218 69/171/220
s 56
f 74/173/221 70/174/222 73/176/223
f 73/176/223 70/174/222 69/175/224
s 57
f 76/177/225 72/178/226 74/180/227
f 74/180/227 72/178/226 70/179/228
s 58
f 75/181/229 71/182/230 76/184/231
f 76/184/231 71/182/230 72/183/232
s 59
f 73/185/233 69/186/234 75/188/235
f 75/188/235 69/186/234 71/187/236
s 60
f 80/189/237 79/190/238 78/192/239
f 78/192/239 79/190/238 77/191/240
s 61
f 82/193/241 78/194/242 81/196/243
f 81/196/243 78/194/242 77/195/244
s 62
f 84/197/245 80/198/246 82/200/247
f 82/200/247 80/198/246 78/199/248
s 63
f 83/201/249 79/202/250 84/204/251
f 84/204/251 79/202/250 80/203/252
s 64
f 81/205/253 77/206/254 83/208/255
f 83/208/255 77/206/254 79/207/256
s 65
f 50/99/257 46/100/258 4/102/259
f 4/102/259 46/100/258 55/101/260
s 66
f 4/102/261 16/103/262 50/99/263
f 50/99/263 16/103/262 49/104/264
s 67
f 17/105/265 45/106/266 16/103/267
f 16/103/267 45/106/266 49/104/268
s 68
f 56/107/269 1/108/270 55/101/271
f 55/101/271 1/108/270 4/102/272
s 69
f 17/105/273 1/108/274 54/109/275
f 54/109/275 1/108/274 56/107/276
s 70
f 45/106/277 17/105/278 53/110/279
f 53/110/279 17/105/278 54/109/280
s 71
f 45/106/281 53/110/282 46/100/283
f 46/100/283 53/110/282 55/101/284
s off
f 15/74/285 29/80/286 32/68/287
f 37/73/288 32/68/289 39/67/290
