# This file uses centimeters as units for non-parametric coordinates.

mtllib mailbox.mtl
g default
v 84.322211 4.757627 71.698768
v 84.756971 5.256726 59.857452
v 74.422338 4.772920 71.335933
v 74.857098 5.272020 59.494617
v 84.322211 19.518333 72.320916
v 84.756971 20.017433 60.479601
v 74.422338 19.533626 71.958082
v 74.857098 20.032726 60.116766
v 83.083085 22.369748 60.517291
v 79.807035 23.058706 60.426048
v 76.530984 22.379870 60.277154
v 76.096225 21.880770 72.118469
v 79.372275 22.559606 72.267363
v 82.648326 21.870649 72.358607
v 84.669513 0.462099 60.535693
v 84.699601 0.496639 59.716205
v 83.849298 0.463366 60.505632
v 83.879386 0.497906 59.686144
v 84.669513 5.382335 60.743076
v 84.699601 5.416875 59.923588
v 83.849298 5.383602 60.713015
v 83.879386 5.418142 59.893526
v 84.269493 0.002880 71.430825
v 84.299581 0.037420 70.611337
v 83.449277 0.004147 71.400764
v 83.479365 0.038687 70.581276
v 84.269493 4.923116 71.638208
v 84.299581 4.957657 70.818720
v 83.449277 4.924383 71.608147
v 83.479365 4.958924 70.788659
v 75.305358 0.016727 71.102286
v 75.335446 0.051268 70.282798
v 74.485142 0.017994 71.072225
v 74.515230 0.052535 70.252737
v 75.305358 4.936964 71.309669
v 75.335446 4.971504 70.490181
v 74.485142 4.938231 71.279608
v 74.515230 4.972771 70.460120
v 75.705378 0.475946 60.207154
v 75.735466 0.510487 59.387665
v 74.885163 0.477213 60.177092
v 74.915251 0.511754 59.357604
v 75.705378 5.396182 60.414537
v 75.735466 5.430723 59.595048
v 74.885163 5.397449 60.384475
v 74.915251 5.431990 59.564987
v 79.764197 23.003261 61.718611
v 74.809647 18.536511 61.348409
v 74.809647 19.978252 61.409177
v 76.483533 22.325396 61.569565
v 76.140892 21.932047 70.901908
v 74.467005 19.584903 70.741519
v 74.467005 18.143162 70.680752
v 79.421534 22.609889 71.051502
v 79.765736 18.528854 61.530053
v 79.423071 18.135481 70.862979
vt 0.049426 0.656885
vt 0.331043 0.656883
vt 0.331045 0.994026
vt 0.049429 0.994028
vt 0.379129 0.472284
vt 0.000000 0.472281
vt 0.000004 -0.000001
vt 0.379132 0.000002
vt 0.697602 0.472281
vt 0.644056 0.547463
vt 0.380911 0.000001
vt 0.697598 -0.000001
vt 0.539259 0.569346
vt 0.434461 0.547465
vt 0.697598 0.472284
vt 0.644052 0.547465
vt 0.380914 -0.000001
vt 0.697602 0.000001
vt 0.539254 0.569346
vt 0.434456 0.547463
vt 0.379176 0.757160
vt 0.379177 0.832348
vt 0.337797 0.832347
vt 0.337797 0.757159
vt 0.337798 0.652362
vt 0.379178 0.652362
vt 0.379179 0.547565
vt -0.000000 0.547463
vt 0.915441 0.027645
vt 0.981524 0.027789
vt 0.981524 0.421358
vt 0.915441 0.421214
vt 0.849309 0.027574
vt 0.849309 0.421143
vt 0.783714 0.027574
vt 0.783714 0.421143
vt 0.717781 0.027559
vt 0.717781 0.421128
vt 0.038999 0.757156
vt 0.038999 0.832343
vt 0.000048 0.832342
vt 0.000048 0.757156
vt 0.340177 0.472284
vt 0.340178 0.426154
vt 0.041380 0.426152
vt 0.041380 0.472282
vt 0.000049 0.652358
vt 0.038927 0.652161
vt 0.995684 0.507447
vt 0.688237 0.507448
vt 0.688237 0.747968
vt 0.995685 0.747967
vt 0.688238 0.994505
vt 0.995686 0.994504
vt 0.447718 0.747969
vt 0.610733 0.994506
vt 0.484415 0.911240
vt 0.380914 0.472284
vt 0.380911 0.472281
vt 0.915441 0.027645
vt 0.981524 0.027789
vt 0.981524 0.421358
vt 0.915441 0.421214
vt 0.849309 0.027574
vt 0.915441 0.027645
vt 0.915441 0.421214
vt 0.849309 0.421143
vt 0.783714 0.027574
vt 0.849309 0.027574
vt 0.849309 0.421143
vt 0.783714 0.421143
vt 0.717781 0.027559
vt 0.783714 0.027574
vt 0.783714 0.421143
vt 0.717781 0.421128
vt 0.915441 0.027645
vt 0.981524 0.027789
vt 0.981524 0.421358
vt 0.915441 0.421214
vt 0.849309 0.027574
vt 0.915441 0.027645
vt 0.915441 0.421214
vt 0.849309 0.421143
vt 0.783714 0.027574
vt 0.849309 0.027574
vt 0.849309 0.421143
vt 0.783714 0.421143
vt 0.717781 0.027559
vt 0.783714 0.027574
vt 0.783714 0.421143
vt 0.717781 0.421128
vt 0.915441 0.027645
vt 0.981524 0.027789
vt 0.981524 0.421358
vt 0.915441 0.421214
vt 0.849309 0.027574
vt 0.915441 0.027645
vt 0.915441 0.421214
vt 0.849309 0.421143
vt 0.783714 0.027574
vt 0.849309 0.027574
vt 0.849309 0.421143
vt 0.783714 0.421143
vt 0.717781 0.027559
vt 0.783714 0.027574
vt 0.783714 0.421143
vt 0.717781 0.421128
vt 0.379132 0.000002
vt 0.379129 0.472284
vt 0.000004 -0.000001
vt 0.379132 0.000002
vt 0.000000 0.472281
vt 0.000004 -0.000001
vt 0.447718 0.747969
vt 0.688237 0.747968
vt 0.610733 0.994506
vt 0.484415 0.911240
vt 0.688238 0.994505
vt 0.610733 0.994506
vt 0.688237 0.747968
vn 0.000000 -0.999113 -0.042112
vn -0.000000 -0.999113 -0.042112
vn -0.000000 -0.999113 -0.042112
vn -0.000000 -0.999113 -0.042112
vn 0.994582 0.095720 0.040551
vn 0.994582 0.095720 0.040551
vn 0.999328 -0.001544 0.036626
vn 0.999328 -0.001544 0.036626
vn 0.036658 0.042083 -0.998441
vn 0.036658 0.042083 -0.998441
vn 0.036658 0.042083 -0.998441
vn 0.036658 0.042083 -0.998441
vn 0.036658 0.042083 -0.998441
vn 0.036658 0.042083 -0.998441
vn -0.036658 -0.042083 0.998441
vn -0.036658 -0.042083 0.998441
vn -0.036658 -0.042083 0.998441
vn -0.036658 -0.042083 0.998441
vn -0.036658 -0.042083 0.998441
vn -0.036658 -0.042083 0.998441
vn -0.522267 0.852618 0.016762
vn -0.985597 0.166576 -0.029166
vn -0.522161 0.852678 0.016966
vn -0.914230 0.404860 -0.016502
vn -0.000372 0.999089 0.042669
vn 0.173176 0.983724 0.047937
vn 0.561043 0.825930 0.055411
vn 0.585644 0.808661 0.055586
vn 0.999328 -0.001544 0.036626
vn 0.999328 -0.001544 0.036626
vn 0.999328 -0.001544 0.036626
vn 0.999328 -0.001544 0.036626
vn 0.036658 0.042083 -0.998441
vn 0.036658 0.042083 -0.998441
vn 0.036658 0.042083 -0.998441
vn 0.036658 0.042083 -0.998441
vn -0.999328 0.001544 -0.036626
vn -0.999328 0.001544 -0.036626
vn -0.999328 0.001544 -0.036626
vn -0.999328 0.001544 -0.036626
vn -0.036658 -0.042083 0.998441
vn -0.036658 -0.042083 0.998441
vn -0.036658 -0.042083 0.998441
vn -0.036658 -0.042083 0.998441
vn 0.999328 -0.001544 0.036626
vn 0.999328 -0.001544 0.036626
vn 0.999328 -0.001544 0.036626
vn 0.999328 -0.001544 0.036626
vn 0.036658 0.042083 -0.998441
vn 0.036658 0.042083 -0.998441
vn 0.036658 0.042083 -0.998441
vn 0.036658 0.042083 -0.998441
vn -0.999328 0.001544 -0.036626
vn -0.999328 0.001544 -0.036626
vn -0.999328 0.001544 -0.036626
vn -0.999328 0.001544 -0.036626
vn -0.036658 -0.042083 0.998441
vn -0.036658 -0.042083 0.998441
vn -0.036658 -0.042083 0.998441
vn -0.036658 -0.042083 0.998441
vn 0.999328 -0.001544 0.036626
vn 0.999328 -0.001544 0.036626
vn 0.999328 -0.001544 0.036626
vn 0.999328 -0.001544 0.036626
vn 0.036658 0.042083 -0.998441
vn 0.036658 0.042083 -0.998441
vn 0.036658 0.042083 -0.998441
vn 0.036658 0.042083 -0.998441
vn -0.999328 0.001544 -0.036626
vn -0.999328 0.001544 -0.036626
vn -0.999328 0.001544 -0.036626
vn -0.999328 0.001544 -0.036626
vn -0.036658 -0.042083 0.998441
vn -0.036658 -0.042083 0.998441
vn -0.036658 -0.042083 0.998441
vn -0.036658 -0.042083 0.998441
vn 0.999328 -0.001544 0.036626
vn 0.999328 -0.001544 0.036626
vn 0.999328 -0.001544 0.036626
vn 0.999328 -0.001544 0.036626
vn 0.036658 0.042083 -0.998441
vn 0.036658 0.042083 -0.998441
vn 0.036658 0.042083 -0.998441
vn 0.036658 0.042083 -0.998441
vn -0.999328 0.001544 -0.036626
vn -0.999328 0.001544 -0.036626
vn -0.999328 0.001544 -0.036626
vn -0.999328 0.001544 -0.036626
vn -0.036658 -0.042083 0.998441
vn -0.036658 -0.042083 0.998441
vn -0.036658 -0.042083 0.998441
vn -0.036658 -0.042083 0.998441
vn -0.522189 0.852669 0.016568
vn -0.914230 0.404860 -0.016502
vn -0.522267 0.852618 0.016761
vn -0.984887 0.170757 -0.028963
vn -0.999328 0.001544 -0.036626
vn -0.999328 0.001544 -0.036626
vn -0.999328 0.001544 -0.036626
vn -0.999328 0.001544 -0.036626
vn -0.000367 0.999139 0.041481
vn 0.168850 0.984494 0.047555
vn -0.999328 0.001200 -0.036640
vn -0.999328 0.001200 -0.036640
vn -0.999328 0.001200 -0.036640
vn -0.999328 0.001200 -0.036640
vn -0.000000 0.999113 0.042112
vn 0.000000 0.999113 0.042112
vn -0.000000 0.999113 0.042112
vn 0.000000 0.999113 0.042112
vn -0.036661 -0.042088 0.998441
vn -0.036660 -0.042086 0.998441
vn -0.036660 -0.042088 0.998441
vn -0.036659 -0.042083 0.998441
vn 0.036833 0.042080 -0.998435
vn 0.036797 0.042054 -0.998437
vn 0.036791 0.042044 -0.998438
vn 0.036763 0.042038 -0.998439
vn 0.036658 0.042083 -0.998441
vn -0.036658 -0.042083 0.998441
vn -0.036666 -0.042078 0.998441
vn 0.036776 0.042083 -0.998437
s 1
g mailBox_null_
usemtl lambert10SG
f 4/1/1 2/2/2 3/4/3
f 3/4/3 2/2/2 1/3/4
s 2
f 6/5/5 5/6/6 2/8/7
f 2/8/7 5/6/6 1/7/8
s 3
f 8/9/9 11/10/10 4/12/11
f 4/12/11 11/10/10 2/11/12
f 11/10/10 10/13/13 2/11/12
f 10/13/13 9/14/14 2/11/12
s 4
f 5/15/15 14/16/16 1/18/17
f 1/18/17 14/16/16 3/17/18
f 14/16/16 13/19/19 3/17/18
f 13/19/19 12/20/20 3/17/18
s 2
f 11/21/21 8/22/22 50/24/23
f 50/24/23 8/22/22 49/23/24
f 11/21/21 50/24/23 10/26/25
f 10/26/25 50/24/23 47/25/26
f 9/27/27 14/28/28 6/5/5
f 6/5/5 14/28/28 5/6/6
s 7
f 20/29/29 19/30/30 16/32/31
f 16/32/31 19/30/30 15/31/32
s 8
f 22/33/33 20/29/34 18/34/35
f 18/34/35 20/29/34 16/32/36
s 9
f 21/35/37 22/33/38 17/36/39
f 17/36/39 22/33/38 18/34/40
s 10
f 19/37/41 21/35/42 15/38/43
f 15/38/43 21/35/42 17/36/44
s 11
f 28/60/45 27/61/46 24/63/47
f 24/63/47 27/61/46 23/62/48
s 12
f 30/64/49 28/65/50 26/67/51
f 26/67/51 28/65/50 24/66/52
s 13
f 29/68/53 30/69/54 25/71/55
f 25/71/55 30/69/54 26/70/56
s 14
f 27/72/57 29/73/58 23/75/59
f 23/75/59 29/73/58 25/74/60
s 15
f 36/76/61 35/77/62 32/79/63
f 32/79/63 35/77/62 31/78/64
s 16
f 38/80/65 36/81/66 34/83/67
f 34/83/67 36/81/66 32/82/68
s 17
f 37/84/69 38/85/70 33/87/71
f 33/87/71 38/85/70 34/86/72
s 18
f 35/88/73 37/89/74 31/91/75
f 31/91/75 37/89/74 33/90/76
s 19
f 44/92/77 43/93/78 40/95/79
f 40/95/79 43/93/78 39/94/80
s 20
f 46/96/81 44/97/82 42/99/83
f 42/99/83 44/97/82 40/98/84
s 21
f 45/100/85 46/101/86 41/103/87
f 41/103/87 46/101/86 42/102/88
s 22
f 43/104/89 45/105/90 39/107/91
f 39/107/91 45/105/90 41/106/92
s 2
f 51/39/93 52/40/94 12/42/95
f 12/42/95 52/40/94 7/41/96
f 52/43/94 53/44/97 7/109/96
f 53/44/97 3/108/98 7/109/96
f 4/110/99 3/111/98 48/45/100
f 48/45/100 3/111/98 53/44/97
f 49/46/24 8/112/22 48/45/100
f 8/112/22 4/113/99 48/45/100
f 12/42/95 13/47/101 51/39/93
f 51/39/93 13/47/101 54/48/102
s 24
f 54/49/103 47/50/104 56/52/105
f 56/52/105 47/50/104 55/51/106
s 25
f 56/52/107 55/51/108 53/54/109
f 53/54/109 55/51/108 48/53/110
s 26
f 47/55/111 49/56/112 55/51/113
f 55/51/113 49/56/112 48/53/114
s 27
f 54/114/115 56/115/116 51/57/117
f 51/57/117 56/115/116 52/116/118
s 2
f 13/47/101 14/28/28 54/48/102
f 14/28/28 47/25/26 54/48/102
f 10/26/25 47/25/26 9/27/27
f 9/27/27 47/25/26 14/28/28
s 3
f 2/11/12 9/14/14 6/58/119
s 4
f 3/17/18 12/20/20 7/59/120
s 26
f 49/56/112 47/55/111 50/117/121
s 27
f 53/118/122 52/119/118 56/120/116
