# This file uses centimeters as units for non-parametric coordinates.

mtllib road5.mtl
g default
v 36.901844 -0.000000 -90.265590
v 93.992303 -0.000000 -47.641423
v 36.598213 -0.000000 -113.373512
v 117.100244 -0.000000 -47.945077
v 36.886817 0.228682 -91.408903
v 95.135612 0.228682 -47.656449
v 36.613217 0.228682 -112.230214
v 115.956938 0.228682 -47.930050
v 95.135612 0.686046 -47.656449
v 36.886817 0.686046 -91.408903
v 36.901844 0.686046 -90.265590
v 93.992303 0.686046 -47.641423
v 36.613217 0.686046 -112.230214
v 115.956938 0.686046 -47.930050
v 117.100244 0.686046 -47.945077
v 36.598213 0.686046 -113.373512
v 94.810862 0.228682 -60.686210
v 91.940467 0.228682 -72.065822
v 84.225027 0.228682 -81.182402
v 73.970434 0.228682 -88.006832
v 62.215693 0.228682 -90.991528
v 50.021176 0.228682 -91.581492
v 49.747568 0.228682 -112.402803
v 67.340366 0.228682 -111.174193
v 83.168218 0.228682 -106.814196
v 98.754461 0.228682 -96.098765
v 109.835465 0.228682 -82.713418
v 114.995402 0.228682 -65.525242
v 50.036195 -0.000000 -90.438164
v 61.934298 -0.000000 -89.883284
v 73.689033 -0.000000 -86.898589
v 83.427209 -0.000000 -80.363333
v 90.957842 -0.000000 -71.481147
v 93.710394 -0.000000 -60.375793
v 116.095862 -0.000000 -65.835660
v 110.818089 -0.000000 -83.298093
v 99.552279 -0.000000 -96.917834
v 83.449617 -0.000000 -107.922440
v 67.621765 -0.000000 -112.282437
v 49.732552 -0.000000 -113.546116
v 94.810862 0.686046 -60.686210
v 91.940467 0.686046 -72.065822
v 84.225027 0.686046 -81.182402
v 73.970434 0.686046 -88.006832
v 62.215693 0.686046 -90.991528
v 50.021176 0.686046 -91.581492
v 50.036195 0.686046 -90.438164
v 61.934298 0.686046 -89.883284
v 73.689033 0.686046 -86.898589
v 83.427209 0.686046 -80.363333
v 90.957842 0.686046 -71.481147
v 93.710394 0.686046 -60.375793
v 49.747568 0.686046 -112.402803
v 67.340366 0.686046 -111.174193
v 83.168218 0.686046 -106.814196
v 98.754461 0.686046 -96.098765
v 109.835465 0.686046 -82.713418
v 114.995402 0.686046 -65.525242
v 116.095862 0.686046 -65.835660
v 110.818089 0.686046 -83.298093
v 99.552279 0.686046 -96.917834
v 83.449617 0.686046 -107.922440
v 67.621765 0.686046 -112.282437
v 49.732552 0.686046 -113.546116
vt 0.425943 0.686908
vt 0.389011 0.885514
vt 0.571393 0.892160
vt 0.544639 0.693028
vt 0.389011 0.885514
vt 0.425943 0.686908
vt 0.544639 0.693028
vt 0.571393 0.892160
vt 0.309686 0.982769
vt 0.022368 0.982769
vt 0.006591 0.975922
vt 0.325463 0.975922
vt 0.309686 0.982769
vt 0.022368 0.982769
vt 0.006591 0.975922
vt 0.325463 0.975922
vt 0.580884 0.925791
vt 0.582353 0.936725
vt 0.394306 0.929349
vt 0.398501 0.919145
vt 0.394306 0.929349
vt 0.398501 0.919145
vt 0.580884 0.925791
vt 0.582353 0.936725
vt 0.008305 0.966138
vt 0.008305 0.955309
vt 0.260160 0.955309
vt 0.260160 0.966138
vt 0.325463 0.996463
vt 0.309686 0.996463
vt 0.309686 0.982769
vt 0.325463 0.975922
vt 0.791126 0.966138
vt 0.791126 0.955309
vt 0.998451 0.955309
vt 0.998451 0.966138
vt 0.022368 0.996463
vt 0.006591 0.996463
vt 0.791126 0.966138
vt 0.791126 0.955309
vt 0.998451 0.955309
vt 0.998451 0.966138
vt 0.325463 0.996463
vt 0.309686 0.996463
vt 0.008305 0.966138
vt 0.008305 0.955309
vt 0.260160 0.955309
vt 0.260160 0.966138
vt 0.022368 0.996463
vt 0.006591 0.996463
vt 0.006591 0.975922
vt 0.022368 0.982769
vt 0.744546 0.595140
vt 0.880105 0.746086
vt 0.981739 0.617959
vt 0.822013 0.496069
vt 0.656851 0.666785
vt 0.734232 0.852207
vt 0.097959 0.736562
vt 0.219909 0.582433
vt 0.119092 0.499947
vt 0.000000 0.659598
vt 0.241315 0.828243
vt 0.317712 0.642413
vt 0.880105 0.746086
vt 0.744546 0.595140
vt 0.822013 0.496069
vt 0.981739 0.617959
vt 0.734232 0.852207
vt 0.656851 0.666785
vt 0.744546 0.595140
vt 0.880105 0.746086
vt 0.571393 0.892160
vt 0.544639 0.693028
vt 0.656851 0.666785
vt 0.734232 0.852207
vt 0.219909 0.582433
vt 0.097959 0.736562
vt 0.000000 0.659598
vt 0.119092 0.499947
vt 0.317712 0.642413
vt 0.241315 0.828243
vt 0.097959 0.736562
vt 0.219909 0.582433
vt 0.425943 0.686908
vt 0.389011 0.885514
vt 0.241315 0.828243
vt 0.317712 0.642413
vt 0.107450 0.770193
vt 0.100757 0.778963
vt 0.000000 0.702074
vt 0.006693 0.693303
vt 0.250806 0.861874
vt 0.246610 0.872078
vt 0.889307 0.791101
vt 0.882568 0.782366
vt 0.991229 0.651590
vt 1.000000 0.658283
vt 0.747972 0.896020
vt 0.743723 0.885838
vt 0.889307 0.791101
vt 0.882568 0.782366
vt 0.991229 0.651590
vt 1.000000 0.658283
vt 0.747972 0.896020
vt 0.743723 0.885838
vt 0.882568 0.782366
vt 0.889307 0.791101
vt 0.582353 0.936725
vt 0.580884 0.925791
vt 0.743723 0.885838
vt 0.747972 0.896020
vt 0.107450 0.770193
vt 0.100757 0.778963
vt 0.000000 0.702074
vt 0.006693 0.693303
vt 0.250806 0.861874
vt 0.246610 0.872078
vt 0.100757 0.778963
vt 0.107450 0.770193
vt 0.398501 0.919145
vt 0.394306 0.929349
vt 0.246610 0.872078
vt 0.250806 0.861874
vt 0.791126 0.966138
vt 0.791126 0.955309
vt 0.998451 0.955309
vt 0.998451 0.966138
vt 0.509055 0.966138
vt 0.509055 0.955309
vt 0.791126 0.955309
vt 0.791126 0.966138
vt 0.509055 0.955309
vt 0.509055 0.966138
vt 0.260160 0.966138
vt 0.260160 0.955309
vt 0.791126 0.955309
vt 0.791126 0.966138
vt 0.509055 0.966138
vt 0.509055 0.955309
vt 0.998451 0.955309
vt 0.998451 0.966138
vt 0.791126 0.966138
vt 0.791126 0.955309
vt 0.791126 0.966138
vt 0.791126 0.955309
vt 0.998451 0.955309
vt 0.998451 0.966138
vt 0.509055 0.966138
vt 0.509055 0.955309
vt 0.791126 0.955309
vt 0.791126 0.966138
vt 0.260160 0.966138
vt 0.260160 0.955309
vt 0.509055 0.955309
vt 0.509055 0.966138
vt 0.260160 0.955309
vt 0.260160 0.966138
vt 0.008305 0.966138
vt 0.008305 0.955309
vt 0.509055 0.955309
vt 0.509055 0.966138
vt 0.260160 0.966138
vt 0.260160 0.955309
vt 0.509055 0.966138
vt 0.509055 0.955309
vt 0.008305 0.966138
vt 0.008305 0.955309
vt 0.260160 0.955309
vt 0.260160 0.966138
vt 0.791126 0.966138
vt 0.791126 0.955309
vt 0.998451 0.955309
vt 0.998451 0.966138
vt 0.509055 0.966138
vt 0.509055 0.955309
vt 0.791126 0.955309
vt 0.791126 0.966138
vt 0.260160 0.955309
vt 0.260160 0.966138
vt 0.008305 0.966138
vt 0.008305 0.955309
vt 0.509055 0.955309
vt 0.509055 0.966138
vt 0.260160 0.966138
vt 0.260160 0.955309
vt 0.791126 0.955309
vt 0.791126 0.966138
vt 0.509055 0.966138
vt 0.509055 0.955309
vt 0.791126 0.966138
vt 0.791126 0.955309
vt 0.998451 0.955309
vt 0.998451 0.966138
vt 0.509055 0.966138
vt 0.509055 0.955309
vt 0.791126 0.955309
vt 0.791126 0.966138
vt 0.260160 0.966138
vt 0.260160 0.955309
vt 0.509055 0.955309
vt 0.509055 0.966138
vt 0.260160 0.955309
vt 0.260160 0.966138
vt 0.008305 0.966138
vt 0.008305 0.955309
vt 0.509055 0.955309
vt 0.509055 0.966138
vt 0.260160 0.966138
vt 0.260160 0.955309
vt 0.791126 0.955309
vt 0.791126 0.966138
vt 0.509055 0.966138
vt 0.509055 0.955309
vn 0.000000 -1.000000 0.000000
vn -0.000000 -1.000000 -0.000000
vn -0.000000 -1.000000 -0.000000
vn -0.000000 -1.000000 -0.000000
vn -0.000000 1.000000 -0.000000
vn 0.000000 1.000000 0.000000
vn -0.000000 1.000000 -0.000000
vn 0.000000 1.000000 0.000000
vn 0.013139 0.000019 0.999914
vn 0.013139 0.000000 0.999914
vn 0.013139 0.000018 0.999914
vn 0.013139 0.000000 0.999914
vn -0.999914 -0.000017 0.013139
vn -0.999914 -0.000081 0.013139
vn -0.999914 -0.000021 0.013139
vn -0.999914 -0.000081 0.013139
vn 0.000001 1.000000 0.000000
vn 0.000001 1.000000 0.000000
vn -0.000001 1.000000 -0.000000
vn -0.000001 1.000000 -0.000000
vn 0.000000 1.000000 0.000000
vn -0.000000 1.000000 -0.000000
vn -0.000000 1.000000 -0.000000
vn -0.000000 1.000000 -0.000000
vn 0.554027 0.000000 -0.832499
vn 0.554027 0.000000 -0.832499
vn 0.554029 0.000000 -0.832497
vn 0.554029 0.000000 -0.832497
vn -0.999914 0.000000 0.013142
vn -0.999914 0.000000 0.013142
vn -0.999914 0.000000 0.013142
vn -0.999914 0.000000 0.013142
vn -0.557246 0.000000 0.830348
vn -0.557246 0.000000 0.830348
vn -0.557243 0.000000 0.830349
vn -0.557243 0.000000 0.830349
vn 0.013142 0.000000 0.999914
vn 0.013142 0.000000 0.999914
vn 0.013142 0.000000 0.999914
vn 0.013142 0.000000 0.999914
vn -0.566524 0.000000 0.824045
vn -0.566524 0.000000 0.824045
vn -0.566524 0.000000 0.824045
vn -0.566524 0.000000 0.824045
vn 0.013142 0.000000 0.999914
vn 0.013142 0.000000 0.999914
vn 0.013142 0.000000 0.999914
vn 0.013142 0.000000 0.999914
vn 0.564229 0.000000 -0.825618
vn 0.564229 0.000000 -0.825618
vn 0.564229 0.000000 -0.825618
vn 0.564229 0.000000 -0.825618
vn -0.999914 0.000000 0.013122
vn -0.999914 0.000000 0.013122
vn -0.999914 0.000000 0.013122
vn -0.999914 0.000000 0.013123
vn 0.000000 -1.000000 0.000000
vn 0.000000 -1.000000 0.000000
vn 0.000000 -1.000000 0.000000
vn 0.000000 -1.000000 0.000000
vn 0.000000 -1.000000 0.000000
vn 0.000000 -1.000000 0.000000
vn 0.000000 -1.000000 0.000000
vn 0.000000 -1.000000 0.000000
vn -0.000000 -1.000000 -0.000000
vn -0.000000 -1.000000 -0.000000
vn -0.000000 -1.000000 -0.000000
vn 0.000000 -1.000000 0.000000
vn -0.000000 -1.000000 -0.000000
vn -0.000000 -1.000000 -0.000000
vn -0.000000 -1.000000 -0.000000
vn -0.000000 -1.000000 -0.000000
vn 0.000000 1.000000 0.000000
vn 0.000000 1.000000 0.000000
vn 0.000000 1.000000 0.000000
vn 0.000000 1.000000 0.000000
vn -0.000000 1.000000 -0.000000
vn 0.000000 1.000000 0.000000
vn -0.000000 1.000000 -0.000000
vn -0.000000 1.000000 -0.000000
vn -0.000000 1.000000 -0.000000
vn 0.000000 1.000000 0.000000
vn 0.000000 1.000000 0.000000
vn 0.000000 1.000000 0.000000
vn -0.000000 1.000000 -0.000000
vn -0.000000 1.000000 -0.000000
vn -0.000000 1.000000 -0.000000
vn 0.000000 1.000000 0.000000
vn 0.000000 1.000000 0.000000
vn 0.000000 1.000000 0.000000
vn 0.000000 1.000000 0.000000
vn 0.000000 1.000000 0.000000
vn 0.000000 1.000000 0.000000
vn -0.000000 1.000000 -0.000000
vn -0.000000 1.000000 -0.000000
vn -0.000000 1.000000 -0.000000
vn 0.000000 1.000000 0.000000
vn 0.000000 1.000000 0.000000
vn 0.000000 1.000000 0.000000
vn 0.000000 1.000000 0.000000
vn 0.000000 1.000000 0.000000
vn 0.000000 1.000000 0.000000
vn 0.000001 1.000000 0.000000
vn 0.000001 1.000000 0.000000
vn 0.000000 1.000000 0.000000
vn 0.000000 1.000000 0.000000
vn 0.000000 1.000000 0.000000
vn 0.000000 1.000000 0.000000
vn 0.000000 1.000000 0.000000
vn 0.000000 1.000000 0.000000
vn 0.000002 1.000000 0.000000
vn 0.000002 1.000000 0.000000
vn -0.000003 1.000000 -0.000000
vn -0.000003 1.000000 -0.000000
vn 0.000000 1.000000 0.000000
vn 0.000000 1.000000 0.000000
vn 0.000000 1.000000 0.000000
vn 0.000000 1.000000 0.000000
vn 0.000000 1.000000 0.000000
vn 0.000000 1.000000 0.000000
vn 0.000000 1.000000 0.000000
vn 0.000000 1.000000 0.000000
vn 0.000000 1.000000 0.000000
vn 0.000000 1.000000 0.000000
vn 0.000000 1.000000 0.000000
vn 0.000000 1.000000 0.000000
vn 0.000000 1.000000 0.000000
vn 0.000000 1.000000 0.000000
vn 0.000000 1.000000 0.000000
vn -0.000000 1.000000 -0.000000
vn -0.000000 1.000000 -0.000000
vn -0.000000 1.000000 -0.000000
vn -0.013139 0.000000 -0.999914
vn -0.013139 0.000000 -0.999914
vn -0.013139 0.000000 -0.999914
vn -0.013139 0.000000 -0.999914
vn 0.048323 0.000000 -0.998832
vn 0.048323 0.000000 -0.998832
vn 0.048323 0.000000 -0.998832
vn 0.048323 0.000000 -0.998832
vn 0.246104 0.000000 -0.969243
vn 0.246104 0.000000 -0.969243
vn 0.246106 0.000000 -0.969243
vn 0.246106 0.000000 -0.969243
vn 0.999690 0.000000 -0.024916
vn 0.999690 0.000000 -0.024916
vn 0.999690 0.000000 -0.024916
vn 0.999690 0.000000 -0.024916
vn 0.969630 0.000000 -0.244577
vn 0.969630 0.000000 -0.244577
vn 0.969629 0.000000 -0.244581
vn 0.969629 0.000000 -0.244581
vn 0.763329 0.000000 -0.646010
vn 0.763329 0.000000 -0.646010
vn 0.763326 0.000000 -0.646013
vn 0.763326 0.000000 -0.646013
vn -0.999755 0.000000 0.022133
vn -0.999755 0.000000 0.022132
vn -0.999755 0.000000 0.022132
vn -0.999755 0.000000 0.022132
vn -0.970630 0.000000 0.240578
vn -0.970630 0.000000 0.240578
vn -0.970630 0.000000 0.240579
vn -0.970630 0.000000 0.240579
vn -0.762754 0.000000 0.646689
vn -0.762754 0.000000 0.646689
vn -0.762753 0.000000 0.646690
vn -0.762753 0.000000 0.646690
vn 0.013138 0.000000 0.999914
vn 0.013138 0.000000 0.999914
vn 0.013138 0.000000 0.999914
vn 0.013138 0.000000 0.999914
vn -0.046585 0.000000 0.998914
vn -0.046585 0.000000 0.998914
vn -0.046585 0.000000 0.998914
vn -0.046585 0.000000 0.998914
vn -0.246104 0.000000 0.969244
vn -0.246104 0.000000 0.969243
vn -0.246106 0.000000 0.969243
vn -0.246106 0.000000 0.969243
vn -0.998510 0.000000 0.054567
vn -0.998510 0.000000 0.054567
vn -0.998510 0.000000 0.054565
vn -0.998510 0.000000 0.054565
vn -0.957773 0.000000 0.287526
vn -0.957773 0.000000 0.287526
vn -0.957773 0.000000 0.287527
vn -0.957773 0.000000 0.287527
vn -0.770296 0.000000 0.637687
vn -0.770296 0.000000 0.637687
vn -0.770297 0.000000 0.637685
vn -0.770297 0.000000 0.637685
vn 0.013139 0.000000 0.999914
vn 0.013139 0.000000 0.999914
vn 0.013139 0.000000 0.999914
vn 0.013139 0.000000 0.999914
vn -0.069667 0.000000 0.997570
vn -0.069667 0.000000 0.997570
vn -0.069666 0.000000 0.997570
vn -0.069666 0.000000 0.997570
vn -0.265572 0.000000 0.964091
vn -0.265572 0.000000 0.964091
vn -0.265572 0.000000 0.964091
vn -0.265572 0.000000 0.964091
vn -0.013140 0.000000 -0.999914
vn -0.013140 0.000000 -0.999914
vn -0.013140 0.000000 -0.999914
vn -0.013140 0.000000 -0.999914
vn 0.070464 0.000000 -0.997514
vn 0.070464 0.000000 -0.997514
vn 0.070463 0.000000 -0.997514
vn 0.070463 0.000000 -0.997514
vn 0.265573 0.000000 -0.964091
vn 0.265573 0.000000 -0.964091
vn 0.265571 0.000000 -0.964091
vn 0.265571 0.000000 -0.964091
vn 0.998428 0.000000 -0.056052
vn 0.998428 0.000000 -0.056052
vn 0.998428 0.000000 -0.056052
vn 0.998428 0.000000 -0.056052
vn 0.957235 0.000000 -0.289310
vn 0.957235 0.000000 -0.289310
vn 0.957235 0.000000 -0.289311
vn 0.957235 0.000000 -0.289311
vn 0.770553 0.000000 -0.637376
vn 0.770553 0.000000 -0.637376
vn 0.770553 0.000000 -0.637376
vn 0.770553 0.000000 -0.637376
s 1
g polySurface5 pasted__pasted__roadCurve_null_ group2
usemtl lambert43SG
f 31/1/1 38/2/2 32/4/3
f 32/4/3 38/2/2 37/3/4
s 2
f 20/6/5 19/7/6 25/5/7
f 25/5/7 19/7/6 26/8/8
s 3
f 8/9/9 6/10/10 4/12/11
f 4/12/11 6/10/10 2/11/12
s 4
f 5/13/13 7/14/14 1/16/15
f 1/16/15 7/14/14 3/15/16
s 5
f 50/17/17 43/18/18 49/20/19
f 49/20/19 43/18/18 44/19/20
s 6
f 62/21/21 55/22/22 61/24/23
f 61/24/23 55/22/22 56/23/24
s 7
f 43/25/25 19/26/26 44/28/27
f 44/28/27 19/26/26 20/27/28
s 8
f 10/30/29 5/31/30 11/29/31
f 11/29/31 5/31/30 1/32/32
s 9
f 49/33/33 31/34/34 50/36/35
f 50/36/35 31/34/34 32/35/36
s 10
f 9/37/37 12/38/38 6/10/39
f 6/10/39 12/38/38 2/11/40
s 11
f 55/39/41 25/40/42 56/42/43
f 56/42/43 25/40/42 26/41/44
s 12
f 14/44/45 8/9/46 15/43/47
f 15/43/47 8/9/46 4/12/48
s 13
f 61/45/49 37/46/50 62/48/51
f 62/48/51 37/46/50 38/47/52
s 14
f 13/49/53 16/50/54 7/52/55
f 7/52/55 16/50/54 3/51/56
s 15
f 35/54/57 4/55/58 34/53/59
f 34/53/59 4/55/58 2/56/60
f 36/58/61 35/54/57 33/57/62
f 33/57/62 35/54/57 34/53/59
f 32/4/63 37/3/64 33/57/62
f 33/57/62 37/3/64 36/58/61
s 16
f 40/59/65 29/60/66 3/62/67
f 3/62/67 29/60/66 1/61/68
f 39/63/69 30/64/70 40/59/65
f 40/59/65 30/64/70 29/60/66
f 38/2/71 31/1/72 39/63/69
f 39/63/69 31/1/72 30/64/70
s 2
f 28/65/73 17/66/74 8/68/75
f 8/68/75 17/66/74 6/67/76
f 27/69/77 18/70/78 28/72/73
f 28/72/73 18/70/78 17/71/74
f 19/74/6 18/75/78 26/73/8
f 26/73/8 18/75/78 27/76/77
f 22/77/79 23/78/80 5/80/81
f 5/80/81 23/78/80 7/79/82
f 24/82/83 23/83/80 21/81/84
f 21/81/84 23/83/80 22/84/79
f 25/86/7 24/87/83 20/85/5
f 20/85/5 24/87/83 21/88/84
s 21
f 47/89/85 46/90/86 11/92/87
f 11/92/87 46/90/86 10/91/88
s 22
f 45/94/89 46/90/90 48/93/91
f 48/93/91 46/90/90 47/89/92
s 23
f 49/20/93 44/19/94 48/93/95
f 48/93/95 44/19/94 45/94/96
s 24
f 41/95/97 52/96/98 9/98/99
f 9/98/99 52/96/98 12/97/100
s 25
f 42/99/101 51/100/102 41/95/103
f 41/95/103 51/100/102 52/96/104
s 26
f 50/17/105 51/100/106 43/18/107
f 43/18/107 51/100/106 42/99/108
s 27
f 59/101/109 58/102/110 15/104/111
f 15/104/111 58/102/110 14/103/112
s 28
f 60/105/113 57/106/114 59/108/115
f 59/108/115 57/106/114 58/107/116
s 29
f 56/110/117 57/111/118 61/109/119
f 61/109/119 57/111/118 60/112/120
s 30
f 53/113/121 64/114/122 13/116/123
f 13/116/123 64/114/122 16/115/124
s 31
f 63/118/125 64/119/126 54/117/127
f 54/117/127 64/119/126 53/120/128
s 32
f 55/121/129 62/122/130 54/124/131
f 54/124/131 62/122/130 63/123/132
s 33
f 46/125/133 22/126/134 10/128/135
f 10/128/135 22/126/134 5/127/136
s 34
f 45/129/137 21/130/138 46/132/139
f 46/132/139 21/130/138 22/131/140
s 35
f 44/28/141 20/27/142 45/129/143
f 45/129/143 20/27/142 21/130/144
s 36
f 17/133/145 41/134/146 6/136/147
f 6/136/147 41/134/146 9/135/148
s 37
f 18/137/149 42/138/150 17/140/151
f 17/140/151 42/138/150 41/139/152
s 38
f 19/141/153 43/142/154 18/144/155
f 18/144/155 43/142/154 42/143/156
s 39
f 52/145/157 34/146/158 12/148/159
f 12/148/159 34/146/158 2/147/160
s 40
f 51/149/161 33/150/162 52/152/163
f 52/152/163 33/150/162 34/151/164
s 41
f 50/153/165 32/154/166 51/156/167
f 51/156/167 32/154/166 33/155/168
s 42
f 29/157/169 47/158/170 1/160/171
f 1/160/171 47/158/170 11/159/172
s 43
f 30/161/173 48/162/174 29/164/175
f 29/164/175 48/162/174 47/163/176
s 44
f 31/34/177 49/33/178 30/166/179
f 30/166/179 49/33/178 48/165/180
s 45
f 58/167/181 28/168/182 14/170/183
f 14/170/183 28/168/182 8/169/184
s 46
f 57/171/185 27/172/186 58/174/187
f 58/174/187 27/172/186 28/173/188
s 47
f 56/175/189 26/176/190 57/178/191
f 57/178/191 26/176/190 27/177/192
s 48
f 23/179/193 53/180/194 7/182/195
f 7/182/195 53/180/194 13/181/196
s 49
f 24/183/197 54/184/198 23/186/199
f 23/186/199 54/184/198 53/185/200
s 50
f 25/187/201 55/188/202 24/190/203
f 24/190/203 55/188/202 54/189/204
s 51
f 64/191/205 40/192/206 16/194/207
f 16/194/207 40/192/206 3/193/208
s 52
f 63/195/209 39/196/210 64/198/211
f 64/198/211 39/196/210 40/197/212
s 53
f 62/199/213 38/200/214 63/202/215
f 63/202/215 38/200/214 39/201/216
s 54
f 35/203/217 59/204/218 4/206/219
f 4/206/219 59/204/218 15/205/220
s 55
f 36/207/221 60/208/222 35/210/223
f 35/210/223 60/208/222 59/209/224
s 56
f 37/211/225 61/212/226 36/214/227
f 36/214/227 61/212/226 60/213/228
